<?xml version="1.0" encoding="UTF-8"?><svg id="_白文字" xmlns="http://www.w3.org/2000/svg" viewBox="0 0 400 150"><defs><style>.cls-1{fill:#fff;}.cls-2{fill:#ff931e;}.cls-3{fill:#1a1a1a;}.cls-4{fill:#f2f2f2;}</style></defs><path d="M390.94,2.73c3.86,0,7,3.14,7,7V141.73c0,3.86-3.14,7-7,7H8.94c-3.86,0-7-3.14-7-7V9.73c0-3.86,3.14-7,7-7H390.94m0-2H8.94C3.97,.73-.06,4.76-.06,9.73V141.73c0,4.97,4.03,9,9,9H390.94c4.97,0,9-4.03,9-9V9.73c0-4.97-4.03-9-9-9h0Z"/><g><rect class="cls-1" x="5.44" y="6.73" width="389" height="138" rx="4" ry="4"/><path d="M390.44,9.23c.83,0,1.5,.67,1.5,1.5V140.73c0,.83-.67,1.5-1.5,1.5H9.44c-.83,0-1.5-.67-1.5-1.5V10.73c0-.83,.67-1.5,1.5-1.5H390.44m0-5H9.44c-3.59,0-6.5,2.91-6.5,6.5V140.73c0,3.59,2.91,6.5,6.5,6.5H390.44c3.59,0,6.5-2.91,6.5-6.5V10.73c0-3.59-2.91-6.5-6.5-6.5h0Z"/></g><g><polygon class="cls-3" points="361.65 93.67 346.1 93.67 340.49 97.97 340.49 100.43 368.06 100.43 368.06 98.08 361.65 93.67"/><path class="cls-3" d="M388.94,10.23H9.94c-.55,0-1,.45-1,1V140.23c0,.55,.45,1,1,1H232.94c6.11-.44,35.26-6.21,66.85-13.82v-29.48l-2.4-2.6h-10.4l-8.56,9.71v26.3h-15.5l.04-28.89-.04-21.45h15.5v5.15l5.98-5.15h18.17l11,10.99v32.01c4.87-1.23,9.73-2.5,14.51-3.79v-23.35l11.78-13.25h26.57l11.89,11.89v8.4c6.23-2.78,11.4-5.39,12.62-7.68V12.23c0-1.1-.9-2-2-2ZM183.28,92.36h-19.83v21.23l7.92,3.43h11.91v14.33h-16.18l-18.95-10.44v-28.55h-14.32v-11.43h14.43l.36-10.51h14.84v10.51h19.83v11.43Zm49.65,38.99v-5.15l-5.98,5.15h-18.17l-11-10.99v-39.35h13.79v33.41l2.4,2.6h10.4l8.56-9.71v-26.3h15.5l-.04,28.89,.04,21.45h-15.5Z"/><path class="cls-3" d="M340.49,114.19l2.29,1.93c5.8-1.68,11.32-3.38,16.42-5.05h-18.71v3.12Z"/><path class="cls-2" d="M299.79,131.35h13.79v-7.34c-4.61,1.17-9.22,2.3-13.79,3.4v3.93Z"/><path class="cls-2" d="M328.08,120.55l13.33,10.8h21.87l14.92-6.63-5.47-10.93-10.95,6.26h-14.35l-4.66-3.92c-4.75,1.38-9.67,2.75-14.7,4.1v.33Z"/><path class="cls-2" d="M378.32,111.07v-7.16c-5.13,2.29-11.67,4.71-19.12,7.16h19.12Z"/></g><g><path class="cls-4" d="M86.27,130.72c-3.47,0-8.36-.62-17.8-2.4l-6.04-1.14,3.22-19.42,5.89,.62c11.38,1.21,15.24,1.43,16.4,1.38,10.1-3.28,9.66-6.02,9.2-8.92-.58-3.65-2.03-6.42-12.38-9.3-19.28-5.36-24.84-16.98-28.53-24.35-7.12-14.24,8.51-29.17,26.16-31.98h0c8.04-1.28,30.33,.89,35.31,2.98l4.57,3.18-2.5,19.6-7.78-3.22c-15.4-5.1-22.26-5.16-26.39-3.92-4.63,1.39-7.54,3.77-7.54,7.54,0,3.45,.89,7.16,12.43,10,11.51,2.85,25.07,8.3,27.78,25.37,1.9,11.94-3.25,22.71-13.75,28.8-4.09,2.37-8.86,4-14.17,4.85-1.26,.2-2.53,.33-4.09,.33Z"/><path class="cls-2" d="M52.76,110.83c-1.21,0-2.45-.05-3.7-.15-4.12-.32-8.11-1.42-20.81-7.11l-5.61-2.51,7.65-18.15,8.69,3.11c4.83,1.74,6.04,2.16,7.91,2.42,.2,.03,.45,.07,.74,.11,11.14,1.73,13.89-2,15.02-5.96,.76-4.56-4.99-8.48-10.01-10.99-19.48-9.09-22.76-21.5-22.07-30.32,1.23-15.87,15.06-26.39,32.89-25.01h0c8.95,.69,53,19.17,56.63,21.84l3.11,2.29-3.43,20.59-7.96-4.93c-16.05-9.95-46.7-19.29-50.34-19.93-8.32-.59-9.33,4.18-9.45,5.66-.27,3.44,.35,6.09,10.91,11.54,10.53,5.45,22.45,13.91,21.11,31.14-.94,12.05-8.44,21.33-20.08,24.81-3.47,1.04-7.23,1.56-11.21,1.56Z"/></g><g><path class="cls-4" d="M142.91,24.46c-.17,0-.29,.12-.29,.31v1.2c0,.12,.12,.29,.29,.29h11.11c.17,0,.29,.12,.29,.31v10.78c0,.19-.05,.43-.17,.55l-2.28,2.28c-.12,.12-.36,.24-.55,.24h-17.57c-.19,0-.31-.19-.31-.36v-7.44c0-.12,.12-.29,.31-.29h10.13c.19,0,.31-.12,.31-.31v-1.2c0-.17-.12-.36-.31-.36h-10.13c-.19,0-.31-.12-.31-.29v-8.11c0-.17,.12-.41,.24-.48l2.28-2.28c.12-.12,.36-.24,.55-.24h17.52c.17,0,.29,.19,.29,.31v4.8c0,.17-.12,.29-.29,.29h-11.11Z"/><path class="cls-4" d="M181.79,24.94c.12,.12,.19,.36,.19,.55v14.57c0,.17-.12,.29-.31,.29h-5.04c-.17,0-.29-.12-.29-.29v-9c0-.12-.19-.29-.31-.29h-2.45c-.12,0-.31,.17-.31,.29v9c0,.17-.12,.29-.29,.29h-7.87c-.12,0-.29-.12-.29-.29V23.26c0-.17,.17-.29,.29-.29h14.35c.17,0,.36,.05,.48,.17l1.85,1.8Z"/><path class="cls-4" d="M209.5,24.94c.12,.12,.19,.36,.19,.55v14.57c0,.17-.12,.29-.31,.29h-14.28c-.17,0-.41-.05-.53-.17l-1.8-1.8c-.12-.12-.24-.36-.24-.55v-14.57c0-.17,.17-.29,.36-.29h14.28c.17,0,.41,.05,.53,.17l1.8,1.8Zm-5.76,8.23c.19,0,.31-.12,.31-.31v-5.21c0-.19-.12-.31-.31-.31h-2.45c-.12,0-.31,.12-.31,.31v5.21c0,.19,.19,.31,.31,.31h2.45Z"/><path class="cls-4" d="M237.49,22.9c.17,0,.29,.19,.29,.36l-.89,16.8c0,.17-.12,.29-.31,.29h-4.44c-.17,0-.41-.05-.53-.17l-1.03-.72c-.12-.07-.36-.07-.48,0l-1.01,.72c-.19,.12-.43,.17-.6,.17h-7.2c-.19,0-.31-.12-.31-.29l-.96-16.8c0-.17,.12-.36,.31-.36h7.25c.12,0,.31,.19,.31,.36l.36,6.6c0,.24,.17,.36,.36,.24l1.49-1.08c.12-.05,.36-.05,.48,0l1.39,1.03c.17,.12,.41,.05,.41-.19l.36-6.6c0-.17,.19-.36,.36-.36h4.39Z"/><path class="cls-4" d="M265.08,24.94c.12,.12,.24,.36,.24,.55v14.57c0,.17-.12,.36-.31,.36h-16.56c-.12,0-.29-.19-.29-.36V19.42c0-.17,.17-.29,.29-.29h7.87c.17,0,.29,.12,.29,.29v3.19c0,.17,.12,.29,.31,.29h5.88c.12,0,.36,.12,.48,.24l1.8,1.8Zm-5.71,8.23c.12,0,.31-.12,.31-.31v-5.21c0-.19-.19-.31-.31-.31h-2.45c-.19,0-.31,.12-.31,.31v5.21c0,.19,.12,.31,.31,.31h2.45Z"/><path class="cls-4" d="M292.85,24.94c.12,.12,.19,.36,.19,.55v14.57c0,.17-.12,.29-.31,.29h-14.28c-.17,0-.41-.05-.53-.17l-1.8-1.8c-.12-.12-.24-.36-.24-.55v-14.57c0-.17,.17-.29,.36-.29h14.28c.17,0,.41,.05,.53,.17l1.8,1.8Zm-5.76,8.23c.19,0,.31-.12,.31-.31v-5.21c0-.19-.12-.31-.31-.31h-2.45c-.12,0-.31,.12-.31,.31v5.21c0,.19,.19,.31,.31,.31h2.45Z"/><path class="cls-4" d="M320.83,40.06c0,.17-.12,.36-.31,.36h-16.56c-.12,0-.29-.19-.29-.36v-8.76c0-.12,.12-.36,.24-.48l1.8-1.8c.12-.12,.36-.24,.53-.24h5.83c.17,0,.29-.12,.29-.29v-.84c0-.19-.12-.31-.29-.31h-8.11c-.12,0-.29-.12-.29-.29v-3.79c0-.17,.17-.36,.29-.36h14.35c.12,0,.36,.12,.48,.24l1.85,1.8c.07,.12,.19,.36,.19,.55v14.57Zm-11.47-6.53c0,.12,.12,.29,.31,.29h2.4c.17,0,.29-.17,.29-.29v-.96c0-.12-.12-.31-.29-.31h-2.4c-.19,0-.31,.19-.31,.31v.96Z"/><path class="cls-4" d="M348.59,30.46c0,.19-.17,.31-.29,.31h-8.04c-.19,0-.31,.17-.31,.29v9c0,.17-.17,.29-.29,.29h-7.99c-.12,0-.29-.12-.29-.29V23.21c0-.12,.17-.31,.29-.31h7.99c.12,0,.29,.19,.29,.31v1.8c0,.17,.19,.29,.31,.17l2.04-2.04c.12-.12,.36-.24,.48-.24h5.52c.12,0,.29,.19,.29,.31v7.25Z"/><path class="cls-4" d="M376.02,19.13c.19,0,.31,.12,.31,.29v20.64c0,.17-.12,.36-.31,.36h-16.56c-.12,0-.29-.19-.29-.36v-14.57c0-.19,.12-.43,.24-.55l1.8-1.8c.12-.12,.36-.24,.53-.24h5.83c.17,0,.29-.12,.29-.29v-3.19c0-.17,.12-.29,.31-.29h7.85Zm-8.45,14.04c.17,0,.29-.12,.29-.31v-5.21c0-.19-.12-.31-.29-.31h-2.4c-.19,0-.31,.12-.31,.31v5.21c0,.19,.12,.31,.31,.31h2.4Z"/><path class="cls-4" d="M141.53,47.82c-.15,0-.25,.1-.25,.27v1.05c0,.1,.1,.25,.25,.25h9.72c.15,0,.25,.1,.25,.27v9.43c0,.17-.04,.38-.15,.48l-1.99,1.99c-.1,.1-.31,.21-.48,.21h-15.37c-.17,0-.27-.17-.27-.31v-6.51c0-.1,.1-.25,.27-.25h8.86c.17,0,.27-.1,.27-.27v-1.05c0-.15-.1-.31-.27-.31h-8.86c-.17,0-.27-.1-.27-.25v-7.1c0-.15,.1-.36,.21-.42l1.99-1.99c.1-.1,.31-.21,.48-.21h15.33c.15,0,.25,.17,.25,.27v4.2c0,.15-.1,.25-.25,.25h-9.72Z"/><path class="cls-4" d="M171.08,54.92c.17,0,.27,.1,.27,.25v6.3c0,.15-.1,.25-.27,.25h-10.5c-.15,0-.36-.04-.46-.15l-1.57-1.57c-.1-.1-.17-.31-.17-.48v-8.9c0-.17-.15-.27-.25-.27h-1.53c-.1,0-.25-.1-.25-.25v-3.32c0-.15,.15-.31,.25-.31h1.53c.1,0,.25-.1,.25-.25v-2.79c0-.15,.1-.31,.27-.31h6.87c.1,0,.27,.17,.27,.31v2.79c0,.15,.1,.25,.25,.25h5.04c.17,0,.27,.17,.27,.31v3.32c0,.15-.1,.25-.27,.25h-5.04c-.15,0-.25,.1-.25,.27v4.03c0,.17,.1,.27,.25,.27h5.04Z"/><path class="cls-4" d="M184,43.16c.1,0,.27,.1,.27,.25v2.79c0,.15-.17,.31-.27,.31h-7.45c-.1,0-.25-.17-.25-.31v-2.79c0-.15,.15-.25,.25-.25h7.45Zm-7.71,5.29c0-.15,.15-.25,.25-.25h7.45c.1,0,.27,.1,.27,.25v13.02c0,.15-.17,.31-.27,.31h-7.45c-.1,0-.25-.17-.25-.31v-13.02Z"/><path class="cls-4" d="M203.89,54.33c.17,0,.27,.1,.27,.27v6.87c0,.15-.1,.31-.27,.31h-12.49c-.15,0-.36-.1-.46-.21l-1.57-1.57c-.1-.1-.21-.31-.21-.48v-12.74c0-.15,.15-.31,.25-.31h12.56c.1,0,.31,.1,.42,.21l1.57,1.57c.1,.1,.21,.31,.21,.48v2.88c0,.17-.1,.27-.27,.27h-4.41c-.15,0-.25-.1-.25-.27v-.99c0-.17-.17-.27-.27-.27h-2.14c-.17,0-.27,.1-.27,.27v5.14c0,.1,.1,.25,.27,.25h2.14c.1,0,.27-.15,.27-.25v-1.15c0-.17,.1-.27,.25-.27h4.41Z"/><path class="cls-4" d="M218.24,56.39c0-.17-.17-.27-.27-.27h-1.2c-.1,0-.27,.1-.27,.27v5.08c0,.15-.1,.25-.25,.25h-6.89c-.1,0-.25-.1-.25-.25v-18.06c0-.15,.15-.25,.25-.25h6.89c.15,0,.25,.1,.25,.25v6.15c0,.1,.17,.25,.27,.25h2.14c.1,0,.27-.15,.27-.25v-2.79c0-.15,.1-.31,.25-.31h4.41c.17,0,.27,.17,.27,.31v6.72c0,.17-.06,.38-.17,.48l-.57,.52c-.1,.1-.17,.31-.1,.46l1.09,6.55c0,.1-.1,.21-.25,.21h-4.68c-.15,0-.31-.1-.31-.21l-.88-5.12Z"/><path class="cls-4" d="M236.66,54.64c-.1,0-.27,.17-.27,.27v.84c0,.1,.17,.25,.27,.25h7.08c.17,0,.27,.1,.27,.27v5.19c0,.15-.1,.31-.27,.31h-12.49c-.15,0-.36-.1-.46-.21l-1.57-1.57c-.1-.1-.21-.31-.21-.48v-12.74c0-.15,.15-.31,.25-.31h12.56c.15,0,.36,.1,.42,.21l1.62,1.57c.1,.1,.17,.31,.17,.48v5.67c0,.15-.1,.25-.27,.25h-7.08Zm0-4.3c-.1,0-.27,.1-.27,.27v.73c0,.15,.17,.25,.27,.25h2.14c.17,0,.27-.1,.27-.25v-.73c0-.17-.1-.27-.27-.27h-2.14Z"/><path class="cls-4" d="M264.01,53.07c0,.17-.15,.27-.25,.27h-7.03c-.17,0-.27,.15-.27,.25v7.87c0,.15-.15,.25-.25,.25h-6.99c-.1,0-.25-.1-.25-.25v-14.74c0-.1,.15-.27,.25-.27h6.99c.1,0,.25,.17,.25,.27v1.57c0,.15,.17,.25,.27,.15l1.78-1.78c.1-.1,.31-.21,.42-.21h4.83c.1,0,.25,.17,.25,.27v6.34Z"/><path class="cls-4" d="M283.65,43.16c.17,0,.27,.1,.27,.25v18.06c0,.15-.1,.31-.27,.31h-14.49c-.1,0-.25-.17-.25-.31v-12.74c0-.17,.1-.38,.21-.48l1.57-1.57c.1-.1,.31-.21,.46-.21h5.1c.15,0,.25-.1,.25-.25v-2.79c0-.15,.1-.25,.27-.25h6.87Zm-7.39,12.28c.15,0,.25-.1,.25-.27v-4.56c0-.17-.1-.27-.25-.27h-2.1c-.17,0-.27,.1-.27,.27v4.56c0,.17,.1,.27,.27,.27h2.1Z"/><path class="cls-4" d="M296.46,54.64c-.1,0-.27,.17-.27,.27v.84c0,.1,.17,.25,.27,.25h7.08c.17,0,.27,.1,.27,.27v5.19c0,.15-.1,.31-.27,.31h-12.49c-.15,0-.36-.1-.46-.21l-1.57-1.57c-.1-.1-.21-.31-.21-.48v-12.74c0-.15,.15-.31,.25-.31h12.56c.15,0,.36,.1,.42,.21l1.62,1.57c.1,.1,.17,.31,.17,.48v5.67c0,.15-.1,.25-.27,.25h-7.08Zm0-4.3c-.1,0-.27,.1-.27,.27v.73c0,.15,.17,.25,.27,.25h2.14c.17,0,.27-.1,.27-.25v-.73c0-.17-.1-.27-.27-.27h-2.14Z"/><path class="cls-4" d="M315.62,50.34c-.15,0-.25,.1-.25,.27v.73c0,.15,.1,.25,.25,.25h7.87c.17,0,.27,.1,.27,.27v7.64c0,.17-.1,.38-.17,.48l-1.62,1.57c-.1,.1-.31,.15-.42,.15h-12.56c-.1,0-.25-.1-.25-.25v-5.19c0-.17,.15-.27,.25-.27h7.2c.15,0,.25-.15,.25-.25v-.84c0-.17-.1-.27-.25-.27h-7.2c-.1,0-.25-.1-.25-.25v-5.73c0-.15,.1-.36,.21-.42l1.57-1.57c.1-.1,.31-.21,.46-.21h12.49c.17,0,.27,.17,.27,.27v3.36c0,.1-.1,.25-.27,.25h-7.87Z"/><path class="cls-4" d="M336.41,43.16c.1,0,.27,.1,.27,.25v2.79c0,.15-.17,.31-.27,.31h-7.45c-.1,0-.25-.17-.25-.31v-2.79c0-.15,.15-.25,.25-.25h7.45Zm-7.71,5.29c0-.15,.15-.25,.25-.25h7.45c.1,0,.27,.1,.27,.25v13.02c0,.15-.17,.31-.27,.31h-7.45c-.1,0-.25-.17-.25-.31v-13.02Z"/><path class="cls-4" d="M356.3,46.45c.17,0,.27,.17,.27,.31v12.74c0,.17-.06,.38-.17,.48l-1.57,1.57c-.1,.1-.31,.21-.46,.21h-12.49c-.17,0-.27-.17-.27-.31v-5.19c0-.17,.1-.27,.27-.27h7.03c.15,0,.31-.15,.31-.25v-.84c0-.1-.17-.27-.31-.27h-7.03c-.17,0-.27-.1-.27-.25v-5.67c0-.17,.06-.38,.17-.48l1.57-1.57c.1-.1,.31-.21,.46-.21h12.49Zm-7.39,5.14c.15,0,.31-.1,.31-.25v-.73c0-.17-.17-.27-.31-.27h-2.1c-.17,0-.27,.1-.27,.27v.73c0,.15,.1,.25,.27,.25h2.1Z"/><path class="cls-4" d="M376.36,48.24c.1,.1,.17,.31,.17,.48v12.74c0,.15-.1,.25-.27,.25h-4.41c-.15,0-.25-.1-.25-.25v-7.87c0-.1-.17-.25-.27-.25h-2.14c-.1,0-.27,.15-.27,.25v7.87c0,.15-.1,.25-.25,.25h-6.89c-.1,0-.25-.1-.25-.25v-14.7c0-.15,.15-.25,.25-.25h12.56c.15,0,.31,.04,.42,.15l1.62,1.57Z"/></g><circle class="cls-4" cx="14.44" cy="14.73" r="1.5"/><circle class="cls-4" cx="14.44" cy="136.73" r="1.5"/><circle class="cls-4" cx="385.44" cy="14.73" r="1.5"/></svg>