<?xml version="1.0" encoding="UTF-8"?><svg id="_レイヤー_1" xmlns="http://www.w3.org/2000/svg" viewBox="0 0 1284.25 226.57"><defs><style>.cls-1{fill:#f2f2f2;}.cls-2{fill:#ff0;}</style></defs><path class="cls-1" d="M1.63,85.28C1.63,59.27,2.22,29.28,3.38,3.15,25.43,1.05,47.37,0,69.18,0s43.87,1.05,65.8,3.15c1.28,26.13,1.75,56.12,1.75,82.13h-19.83c0-21.82-.23-47.6-1.4-69.3-11.9-.93-24.27-1.4-36.4-1.52V85.28h-19.83V14.47c-12.13,.12-24.38,.58-36.28,1.52-1.05,21.7-1.52,47.48-1.52,69.3H1.63Z"/><path class="cls-1" d="M246.75,1.75l41.18,83.53h-19.95l-10.15-20.07h-75.72l-10.03,20.07h-19.95L193.32,1.75c9.68-.82,17.73-1.05,26.72-1.05s17.03,.23,26.72,1.05Zm-39.43,13.65l-18.32,36.17h62.07l-18.2-36.17c-3.38-.35-8.75-.47-12.83-.47s-9.33,.12-12.72,.47Z"/><path class="cls-1" d="M322.35,50.63v34.65h-19.72V1.28h19.72V35.7c6.3,.23,13.65,.23,21.93,.23,6.53,0,13.65-.12,18.67-.35L402.38,1.28h22.98l-46.55,41.88,48.77,42.12h-23.33l-41.3-34.53c-5.02-.23-12.13-.35-18.67-.35-8.28,0-15.63,.12-21.93,.23Z"/><path class="cls-1" d="M526.04,48.53h-64.98v23.22c15.17,.7,31.38,.93,46.32,.93s31.03-.35,45.5-1.75v13.77c-17.97,1.28-35.12,1.87-52.73,1.87-19.48,0-39.55-.58-58.92-1.87V1.87c20.07-1.28,41.18-1.87,61.37-1.87,16.68,0,33.02,.58,50.05,1.87V15.63c-14.93-1.4-32.67-1.75-47.6-1.75s-29.63,.23-43.98,.82v23.33h64.98v10.5Z"/><path class="cls-1" d="M624.97,82.72c-1.87-21.7-2.8-45.15-2.8-66.73V1.28h20.07V15.98c0,17.62,.7,36.98,1.87,54.6,12.25,1.28,25.08,1.63,37.33,1.63s25.2-.35,37.33-1.63c1.17-17.62,1.87-36.98,1.87-54.6V1.28h20.07V15.98c0,21.7-1.87,45.03-2.92,66.73-18.78,2.68-37.57,3.73-56.35,3.73s-37.45-1.05-56.47-3.73Z"/><path class="cls-1" d="M763.22,1.4h6.88c20.07-.93,35.7-1.28,47.37-1.28,17.15,0,35,.82,52.5,2.68,1.63,8.75,2.45,17.15,2.45,25.78s-.7,17.15-2.45,25.9c-17.5,1.52-35.35,2.33-52.62,2.33-8.87,0-19.95-.12-34.42-.35v28.82h-19.72V1.4Zm87.74,41.18c.7-4.78,1.05-9.1,1.05-14s-.35-9.22-1.05-14c-8.98-.7-23.33-1.05-33.6-1.05-12.48,0-23.22,.35-34.42,.7v28.82c11.2,.58,21.93,.93,34.42,.93s22.75-.58,33.6-1.4Z"/><path class="cls-1" d="M1.98,184.33c-1.28-7-1.98-13.07-1.98-20.07,0-7.7,.58-13.77,1.98-21.35,18.2-1.87,36.17-2.8,54.13-2.8s36.63,.47,55.07,1.98v12.72c-14.82-.93-29.63-1.75-46.9-1.75-16.1,0-29.98,.7-44.1,1.87-.47,3.03-.7,6.07-.7,9.33,0,3.03,.23,5.72,.7,8.87,30.1,2.22,60.67,1.52,91.93,6.53,1.4,7.7,1.98,13.88,1.98,21.35,0,8.17-.58,14.7-1.98,22.75-18.43,1.87-36.98,2.68-55.18,2.68s-36.63-.47-54.95-1.98v-12.6c15.05,.93,30.22,1.63,47.95,1.63,16.22,0,30.22-.58,43.75-1.63,.58-3.5,.82-7.12,.82-10.85,0-3.5-.23-6.88-.82-10.27-30.33-2.1-60.55-1.98-91.7-6.42Z"/><path class="cls-1" d="M255.73,225.28h-19.83v-.12l-64.63-68.95c-5.6-.23-9.92-.35-15.4-.35v69.42h-19.83v-84h3.03c14,0,27.88,.35,44.1,1.17l52.73,57.98v-59.15h19.83v84Z"/><path class="cls-1" d="M339.85,226.57c-20.07,0-40.13-1.05-60.32-3.15-1.05-13.65-1.63-26.48-1.63-40.13s.58-26.48,1.63-40.13c20.18-2.1,40.25-3.15,60.32-3.15s40.02,1.05,60.2,3.15c1.05,13.65,1.63,26.48,1.63,40.13s-.58,26.48-1.63,40.13c-20.18,2.1-40.25,3.15-60.2,3.15Zm-39.78-15.98c13.07,1.17,26.6,1.63,39.78,1.63s26.6-.47,39.67-1.63c.82-9.33,1.4-17.85,1.4-27.3s-.58-17.97-1.4-27.3c-13.07-1.17-26.6-1.63-39.67-1.63s-26.72,.47-39.78,1.63c-.82,9.33-1.28,17.85-1.28,27.3s.47,17.97,1.28,27.3Z"/><path class="cls-1" d="M498.86,155.17l-22.28,69.88c-5.48,.7-10.15,.93-15.17,.93-6.18,0-12.02-.23-18.78-.93l-27.07-83.77h20.53l21.58,69.77c.23,.35,1.52,.47,2.45,.47,.82,0,1.98-.12,2.22-.47l21.7-69.07c5.95-.82,11.08-1.05,16.33-1.05s10.5,.23,16.45,1.05l21.7,69.07c.23,.35,1.4,.47,2.22,.47,.93,0,2.22-.12,2.45-.47l21.58-69.77h20.42l-27.07,83.77c-6.65,.7-12.72,.93-18.67,.93-4.9,0-9.68-.23-15.05-.93l-22.52-69.88c-.35-.12-.93-.12-1.52-.12s-1.05,0-1.52,.12Z"/><path class="cls-1" d="M704.89,175.82l10.62,.35c1.98,8.4,2.8,16.45,2.8,24.73s-.58,15.98-2.8,24.27c-19.13,.82-39.32,1.28-58.1,1.28-13.77,0-31.27-.82-57.75-1.28v-83.77c22.98-.35,40.37-1.05,52.97-1.05,16.1,0,33.48,.35,50.17,1.05,2.1,7.47,3.27,14.23,3.27,21.47,0,4.32-.35,8.63-1.17,12.95Zm-86.1-.82h36.63c5.25,0,10.5,0,15.98,.12l13.88-.47c.58-3.97,.93-7.7,.93-11.78s-.35-7-.82-10.97c-10.5-.35-21.12-.35-32.9-.35s-22.98,.35-33.6,.7l-.12,22.75Zm79.45,39.2c.7-4.55,.93-8.63,.93-13.3s-.12-9.1-.93-13.77c-12.37-.23-25.08-.35-38.5-.35h-40.95v27.3c12.37,.58,24.85,.93,38.62,.93,14.47,0,27.77-.23,40.83-.82Z"/><path class="cls-1" d="M797.17,226.57c-20.07,0-40.13-1.05-60.32-3.15-1.05-13.65-1.63-26.48-1.63-40.13s.58-26.48,1.63-40.13c20.18-2.1,40.25-3.15,60.32-3.15s40.02,1.05,60.2,3.15c1.05,13.65,1.63,26.48,1.63,40.13s-.58,26.48-1.63,40.13c-20.18,2.1-40.25,3.15-60.2,3.15Zm-39.78-15.98c13.07,1.17,26.6,1.63,39.78,1.63s26.6-.47,39.67-1.63c.82-9.33,1.4-17.85,1.4-27.3s-.58-17.97-1.4-27.3c-13.07-1.17-26.6-1.63-39.67-1.63s-26.72,.47-39.78,1.63c-.82,9.33-1.28,17.85-1.28,27.3s.47,17.97,1.28,27.3Z"/><path class="cls-1" d="M967.74,141.75l41.18,83.53h-19.95l-10.15-20.07h-75.72l-10.03,20.07h-19.95l41.18-83.53c9.68-.82,17.73-1.05,26.72-1.05s17.03,.23,26.72,1.05Zm-39.43,13.65l-18.32,36.17h62.07l-18.2-36.17c-3.38-.35-8.75-.47-12.83-.47s-9.33,.12-12.72,.47Z"/><path class="cls-2" d="M1087.9,184.68c10.38,0,20.18-.12,29.75-.7,.7-5.13,1.05-10.15,1.05-15.4s-.35-9.1-.93-14.12c-12.48-.7-24.27-.93-37.68-.93s-24.5,.12-36.75,.58l-.12,71.17h-19.6v-83.88c18.78-.82,37.68-1.28,56.58-1.28,17.38,0,38.62,.82,56.35,3.27,1.52,8.05,2.45,15.52,2.45,23.68,0,9.33-.47,18.9-2.45,28.82-10.38,.58-22.28,1.52-33.6,1.52l36.98,27.88h-25.43l-50.98-38.15v-2.57c8.63,0,16.68,.12,24.38,.12Z"/><path class="cls-1" d="M1276.78,143.85c5.25,13.42,7.47,26.02,7.47,39.43s-2.22,26.02-7.47,39.43c-19.48,2.8-39.2,3.85-58.33,3.85-14,0-27.77-.47-57.63-1.4v-83.89c28.12-.47,43.17-1.28,57.75-1.28,19.02,0,38.73,1.17,58.22,3.85Zm-18.9,67.43c2.68-9.57,4.08-18.43,4.08-28s-1.4-18.43-4.2-28c-12.83-1.28-24.85-1.63-39.32-1.63s-25.55,.47-37.92,1.4v56.35c12.37,.93,23.92,1.52,37.92,1.52s26.6-.35,39.43-1.63Z"/></svg>