<?xml version="1.0" encoding="UTF-8"?><svg id="_イヤー_1" xmlns="http://www.w3.org/2000/svg" viewBox="0 0 640 240"><defs><style>.cls-1{fill:#fff;}.cls-2{fill:#f7931e;}.cls-3{fill:#b54113;}</style></defs><g><path class="cls-3" d="M-104.58,240c-2.39,0-4.41-2.02-4.41-4.41V82.64c0-1.1,.38-2.11,1.11-2.93,7.52-8.48,14.82-12.6,22.3-12.6,11.55,0,23.88,10.29,34.53,19.94,12.54,11.36,28.46,17.12,44.44,17.12,13.61,0,27.27-4.19,38.93-12.67l.68-.5c16.04-11.8,39.81-18.84,63.56-18.84,9.1,0,18.23,1.09,27.13,3.23,5.11,1.23,10.32,1.84,15.5,1.84,11.75,0,23.38-3.13,33.66-9.2,2.46-1.45,5.48-2.19,8.99-2.19,5.02,0,9.01,1.5,11.84,4.45,1.15,1.2,2.09,2.65,2.79,4.31,8.61,20.5,26.93,35.3,48.77,39.42,4.08,.77,8.18,1.14,12.25,1.14,17.74,0,34.94-7.14,47.52-20.12,9.2-9.49,19.48-15.87,30.55-18.94,8.77-2.43,16.94-6.65,24-12.38,2.68-2.17,6.46-3.37,10.66-3.37,5.02,0,9.01,1.5,11.84,4.45,1.52,1.58,2.66,3.59,3.38,5.96,3.04,9.97,8.39,19.08,15.61,26.59,1.64,1.71,3.25,3.52,4.78,5.39,11.51,14.1,28.31,22.83,46.46,24.16,1.61,.12,3.22,.18,4.82,.18,16.47,0,32.41-6.15,44.65-17.33,1.33-1.21,2.73-2.53,4.22-3.95,4.79-4.58,9.14-8.49,13.31-11.95,7.72-6.4,13.88-14.48,18.02-23.61,.63-1.4,1.48-2.57,2.6-3.58,2.69-2.43,6.65-3.61,12.12-3.61,7.13,0,10,2.01,11.07,2.77,.4,.28,.78,.59,1.12,.9,5.33,4.87,11.42,8.84,18.02,11.74,6.58,2.89,13.94,7.2,24.63,14.4,11.24,7.58,24.14,11.31,36.99,11.31,15.82,0,31.56-5.66,44.03-16.76,4.32-3.85,8.74-7.95,12.28-11.24,6.9-6.4,14.04-13.03,21.68-19.46l7.45-6.27c26.08-21.92,34.67-29.34,41.74-39.56,.82-1.19,2.18-1.9,3.63-1.9,.62,0,1.11,.1,1.68,.33,.88,.36,1.73,1.13,2.19,1.96,.45,.83,.64,1.97,.47,2.9l-39.74,222.18c-.38,2.14-2.17,3.64-4.35,3.64H-104.58Z"/><path class="cls-3" d="M-104.58,240c-2.39,0-4.41-2.02-4.41-4.41V82.64c0-1.1,.38-2.11,1.11-2.93,7.52-8.48,14.82-12.6,22.3-12.6,11.55,0,23.88,10.29,34.53,19.94,12.54,11.36,28.46,17.12,44.44,17.12,13.61,0,27.27-4.19,38.93-12.67l.68-.5c16.04-11.8,39.81-18.84,63.56-18.84,9.1,0,18.23,1.09,27.13,3.23,5.11,1.23,10.32,1.84,15.5,1.84,11.75,0,23.38-3.13,33.66-9.2,2.46-1.45,5.48-2.19,8.99-2.19,5.02,0,9.01,1.5,11.84,4.45,1.15,1.2,2.09,2.65,2.79,4.31,8.61,20.5,26.93,35.3,48.77,39.42,4.08,.77,8.18,1.14,12.25,1.14,17.74,0,34.94-7.14,47.52-20.12,9.2-9.49,19.48-15.87,30.55-18.94,8.77-2.43,16.94-6.65,24-12.38,2.68-2.17,6.46-3.37,10.66-3.37,5.02,0,9.01,1.5,11.84,4.45,1.52,1.58,2.66,3.59,3.38,5.96,3.04,9.97,8.39,19.08,15.61,26.59,1.64,1.71,3.25,3.52,4.78,5.39,11.51,14.1,28.31,22.83,46.46,24.16,1.61,.12,3.22,.18,4.82,.18,16.47,0,32.41-6.15,44.65-17.33,1.33-1.21,2.73-2.53,4.22-3.95,4.79-4.58,9.14-8.49,13.31-11.95,7.72-6.4,13.88-14.48,18.02-23.61,.63-1.4,1.48-2.57,2.6-3.58,2.69-2.43,6.65-3.61,12.12-3.61,7.13,0,10,2.01,11.07,2.77,.4,.28,.78,.59,1.12,.9,5.33,4.87,11.42,8.84,18.02,11.74,6.58,2.89,13.94,7.2,24.63,14.4,11.24,7.58,24.14,11.31,36.99,11.31,15.82,0,31.56-5.66,44.03-16.76,4.32-3.85,8.74-7.95,12.28-11.24,6.9-6.4,14.04-13.03,21.68-19.46l7.45-6.27c26.08-21.92,34.67-29.34,41.74-39.56,.82-1.19,2.18-1.9,3.63-1.9,.62,0,1.11,.1,1.68,.33,.88,.36,1.73,1.13,2.19,1.96,.45,.83,.64,1.97,.47,2.9l-39.74,222.18c-.38,2.14-2.17,3.64-4.35,3.64H-104.58Z"/></g><g><path class="cls-2" d="M-96.66,240c-2.35,0-4.34-1.99-4.34-4.34V85.49c0-1.08,.31-1.96,.98-2.75,1.92-2.29,3.69-4.7,5.28-7.23,1.74-2.76,5.63-7.39,12.2-7.39,5.41,0,9.07,3.25,11.19,5.98,.5,.65,.98,1.35,1.42,2.1,11.93,20.38,33.55,32.17,56.11,32.17,7.23,0,14.56-1.21,21.7-3.74,9.1-3.22,17.08-7.67,29.13-14.61,23.98-13.81,46.42-20.81,66.71-20.81,8.95,0,17.21,1.2,25.27,3.65,6.2,1.89,12.59,2.83,18.96,2.83,9.13,0,18.23-1.92,26.68-5.73,2.15-.97,4.67-1.46,7.5-1.46,4.93,0,8.84,1.47,11.63,4.37,1.23,1.28,2.21,2.85,2.91,4.67,8.05,20.84,26.25,36.09,48.18,40.37,4.14,.81,8.32,1.21,12.45,1.21,17.76,0,34.96-7.29,47.37-20.49,9.74-10.37,21.19-17.33,33.11-20.12,9.07-2.13,17.59-6.18,24.96-11.89,2.68-2.07,6.1-3.12,10.16-3.12,4.93,0,8.84,1.47,11.63,4.37,1.74,1.81,2.96,4.17,3.63,7.01,2.44,10.37,7.4,19.97,14.43,27.97,.68,.78,1.36,1.58,2.02,2.39,11.3,13.84,27.81,22.42,45.63,23.72,1.58,.11,3.15,.17,4.72,.17,16.18,0,31.84-6.04,43.86-17.03,1.3-1.19,2.68-2.48,4.14-3.87,3.25-3.11,6.47-5.99,9.57-8.55,8.89-7.36,15.67-16.95,19.63-27.79,.65-1.79,1.58-3.19,2.92-4.4,2.64-2.38,6.53-3.54,11.91-3.54s9.27,1.16,11.91,3.54c.27,.24,.52,.5,.76,.75,6.53,7.19,14.59,12.82,23.59,16.49,6.91,2.81,14.34,6.79,23.4,12.51,10.72,6.77,22.76,10.06,34.69,10.06,18.31,0,36.38-7.71,49.12-22.4,6.7-7.72,14.85-16.71,24.55-24.87l7.32-6.16c25.61-21.52,34.04-28.81,40.99-38.85,.81-1.18,2.14-1.87,3.57-1.87,.61,0,1.09,.09,1.65,.33,.87,.36,1.71,1.11,2.15,1.93,.45,.81,.63,1.93,.47,2.85l-39.03,218.2c-.38,2.1-2.13,3.57-4.27,3.57H-96.66Z"/><path class="cls-2" d="M-96.66,240c-2.35,0-4.34-1.99-4.34-4.34V85.49c0-1.08,.31-1.96,.98-2.75,1.92-2.29,3.69-4.7,5.28-7.23,1.74-2.76,5.63-7.39,12.2-7.39,5.41,0,9.07,3.25,11.19,5.98,.5,.65,.98,1.35,1.42,2.1,11.93,20.38,33.55,32.17,56.11,32.17,7.23,0,14.56-1.21,21.7-3.74,9.1-3.22,17.08-7.67,29.13-14.61,23.98-13.81,46.42-20.81,66.71-20.81,8.95,0,17.21,1.2,25.27,3.65,6.2,1.89,12.59,2.83,18.96,2.83,9.13,0,18.23-1.92,26.68-5.73,2.15-.97,4.67-1.46,7.5-1.46,4.93,0,8.84,1.47,11.63,4.37,1.23,1.28,2.21,2.85,2.91,4.67,8.05,20.84,26.25,36.09,48.18,40.37,4.14,.81,8.32,1.21,12.45,1.21,17.76,0,34.96-7.29,47.37-20.49,9.74-10.37,21.19-17.33,33.11-20.12,9.07-2.13,17.59-6.18,24.96-11.89,2.68-2.07,6.1-3.12,10.16-3.12,4.93,0,8.84,1.47,11.63,4.37,1.74,1.81,2.96,4.17,3.63,7.01,2.44,10.37,7.4,19.97,14.43,27.97,.68,.78,1.36,1.58,2.02,2.39,11.3,13.84,27.81,22.42,45.63,23.72,1.58,.11,3.15,.17,4.72,.17,16.18,0,31.84-6.04,43.86-17.03,1.3-1.19,2.68-2.48,4.14-3.87,3.25-3.11,6.47-5.99,9.57-8.55,8.89-7.36,15.67-16.95,19.63-27.79,.65-1.79,1.58-3.19,2.92-4.4,2.64-2.38,6.53-3.54,11.91-3.54s9.27,1.16,11.91,3.54c.27,.24,.52,.5,.76,.75,6.53,7.19,14.59,12.82,23.59,16.49,6.91,2.81,14.34,6.79,23.4,12.51,10.72,6.77,22.76,10.06,34.69,10.06,18.31,0,36.38-7.71,49.12-22.4,6.7-7.72,14.85-16.71,24.55-24.87l7.32-6.16c25.61-21.52,34.04-28.81,40.99-38.85,.81-1.18,2.14-1.87,3.57-1.87,.61,0,1.09,.09,1.65,.33,.87,.36,1.71,1.11,2.15,1.93,.45,.81,.63,1.93,.47,2.85l-39.03,218.2c-.38,2.1-2.13,3.57-4.27,3.57H-96.66Z"/></g><ellipse class="cls-1" cx="593.77" cy="96.8" rx="3.13" ry="15.5" transform="translate(213.05 562.62) rotate(-60)"/><ellipse class="cls-1" cx="380.59" cy="71.14" rx="3.13" ry="5.2" transform="translate(53.32 278.02) rotate(-42.89)"/><ellipse class="cls-1" cx="102.06" cy="73.51" rx="10.94" ry="2.49"/></svg>