<?xml version="1.0" encoding="utf-8"?>
<!-- Generator: Adobe Illustrator 26.5.0, SVG Export Plug-In . SVG Version: 6.00 Build 0)  -->
<svg version="1.1" xmlns="http://www.w3.org/2000/svg" xmlns:xlink="http://www.w3.org/1999/xlink" x="0px" y="0px"
	 viewBox="0 0 640 240" enable-background="new 0 0 640 240" xml:space="preserve">
<g id="レイヤー_2">
	<rect fill="#ED688A" width="640" height="240"/>
</g>
<g id="レイヤー_1">
	<g>
		<g>
			<g>
				<g>
					<path fill="#006837" d="M285.78,199.64c-5.02,0-9.01-1.5-11.84-4.45c-2.76-2.87-4.27-7.25-4.27-12.33
						c0-5.53,1.76-11.72,4.71-16.56c0.33-0.55,0.68-1.07,1.04-1.57c5.66-7.88,9.45-16.81,11.24-26.15
						c1.33,9.55,4.73,18.79,10.11,27.04c0.15,0.23,0.29,0.46,0.43,0.69c2.94,4.82,4.7,11.01,4.7,16.54c0,5.08-1.52,9.46-4.27,12.33
						C294.79,198.14,290.8,199.64,285.78,199.64z M728.15,193.9c-5.51,0-9.23-3.31-11.39-6.08c-3-3.87-4.73-9.21-4.73-14.67
						c0-5.45,1.72-10.8,4.73-14.67c0.13-0.16,0.26-0.33,0.4-0.49c5.95-7.17,10.15-15.26,12.61-23.72
						c1.66,8.79,5.12,17.36,10.44,25.13c2.58,3.76,4.06,8.77,4.06,13.75c0,5.45-1.72,10.8-4.73,14.67
						C737.38,190.59,733.65,193.9,728.15,193.9z M78.96,182.95c-5.47,0-9.44-1.18-12.12-3.61c-2.65-2.39-3.99-6.08-3.99-10.96
						c0-5.23,1.4-11.09,3.85-16.08c15.45-31.56,3.55-69.69-27.12-86.86c-3.17-1.77-6.47-3.75-10.09-6.04
						C18.57,52.5,6.3,49.16-5.86,49.16c-18.64,0-37.04,7.86-50.02,22.8C-62.7,79.81-71,88.97-80.87,97.28l-7.46,6.27
						c-26.07,21.91-34.66,29.33-41.74,39.56c-0.82,1.19-2.18,1.9-3.63,1.9c-0.62,0-1.11-0.1-1.68-0.33
						c-0.87-0.36-1.73-1.13-2.19-1.96c-0.45-0.83-0.64-1.97-0.47-2.9l39.74-222.18c0.38-2.14,2.17-3.64,4.35-3.64h839.53
						c2.39,0,4.41,2.02,4.41,4.41V71.34c0,1.16-0.38,2.13-1.16,2.98c-0.32,0.34-0.64,0.68-0.96,1.01
						c-8.03,8.08-13.6,17.8-16.61,28.15c-2.4-12.78-8.57-24.95-18.42-34.73c-0.89-0.88-1.74-1.75-2.56-2.59
						c-12.83-13.25-30.12-20.15-47.58-20.15c-11.85,0-23.78,3.18-34.47,9.7c-5.59,3.41-12.36,7.3-20.24,10.29
						c-3.03,1.15-5.79,2.18-8.45,3.14c-32.24,11.71-50.19,46.1-41.37,79.24c0.72,2.7,1.1,5.46,1.1,7.99c0,5.08-1.52,9.46-4.27,12.33
						c-2.83,2.95-6.82,4.45-11.84,4.45s-9.01-1.5-11.84-4.45c-2.75-2.87-4.27-7.25-4.27-12.33c0-2.46,0.36-5.14,1.04-7.76
						c7.65-29.5-5.83-60.42-32.66-74.88c-0.45-0.24-0.89-0.49-1.33-0.73c-12.22-6.9-23.65-17.39-34.95-32.09
						c-11-14.31-27.38-23.51-45.32-25.46c-2.39-0.26-4.77-0.39-7.15-0.39c-15.5,0-30.6,5.45-42.58,15.52
						c-7.81,6.56-16.02,14.79-25.11,25.14c-5.97,6.8-12.57,12.29-19.62,16.32c-15.82,9.04-27.21,24.21-31.49,41.92
						c-0.25,1.02-0.47,2.05-0.67,3.08c-0.19-1.34-0.42-2.69-0.69-4.03c-3.65-18.04-14.65-33.74-30.35-43.34
						c-7.89-4.82-14.97-11.03-21.03-18.45c-11.51-14.08-28.31-22.81-46.46-24.12c-1.6-0.12-3.2-0.17-4.79-0.17
						c-16.47,0-32.42,6.15-44.66,17.34c-1.33,1.22-2.74,2.53-4.22,3.95c-7.33,7.02-14.55,12.84-21.45,17.32
						c-28.59,18.55-38.42,55.78-22.71,86.02c2.68,5.17,4.22,11.3,4.22,16.83c0,4.88-1.34,8.57-3.99,10.96
						C88.4,181.77,84.43,182.95,78.96,182.95z"/>
					<path fill="#006837" d="M285.78,199.64c-5.02,0-9.01-1.5-11.84-4.45c-2.76-2.87-4.27-7.25-4.27-12.33
						c0-5.53,1.76-11.72,4.71-16.56c0.33-0.55,0.68-1.07,1.04-1.57c5.66-7.88,9.45-16.81,11.24-26.15
						c1.33,9.55,4.73,18.79,10.11,27.04c0.15,0.23,0.29,0.46,0.43,0.69c2.94,4.82,4.7,11.01,4.7,16.54c0,5.08-1.52,9.46-4.27,12.33
						C294.79,198.14,290.8,199.64,285.78,199.64z M728.15,193.9c-5.51,0-9.23-3.31-11.39-6.08c-3-3.87-4.73-9.21-4.73-14.67
						c0-5.45,1.72-10.8,4.73-14.67c0.13-0.16,0.26-0.33,0.4-0.49c5.95-7.17,10.15-15.26,12.61-23.72
						c1.66,8.79,5.12,17.36,10.44,25.13c2.58,3.76,4.06,8.77,4.06,13.75c0,5.45-1.72,10.8-4.73,14.67
						C737.38,190.59,733.65,193.9,728.15,193.9z M78.96,182.95c-5.47,0-9.44-1.18-12.12-3.61c-2.65-2.39-3.99-6.08-3.99-10.96
						c0-5.23,1.4-11.09,3.85-16.08c15.45-31.56,3.55-69.69-27.12-86.86c-3.17-1.77-6.47-3.75-10.09-6.04
						C18.57,52.5,6.3,49.16-5.86,49.16c-18.64,0-37.04,7.86-50.02,22.8C-62.7,79.81-71,88.97-80.87,97.28l-7.46,6.27
						c-26.07,21.91-34.66,29.33-41.74,39.56c-0.82,1.19-2.18,1.9-3.63,1.9c-0.62,0-1.11-0.1-1.68-0.33
						c-0.87-0.36-1.73-1.13-2.19-1.96c-0.45-0.83-0.64-1.97-0.47-2.9l39.74-222.18c0.38-2.14,2.17-3.64,4.35-3.64h839.53
						c2.39,0,4.41,2.02,4.41,4.41V71.34c0,1.16-0.38,2.13-1.16,2.98c-0.32,0.34-0.64,0.68-0.96,1.01
						c-8.03,8.08-13.6,17.8-16.61,28.15c-2.4-12.78-8.57-24.95-18.42-34.73c-0.89-0.88-1.74-1.75-2.56-2.59
						c-12.83-13.25-30.12-20.15-47.58-20.15c-11.85,0-23.78,3.18-34.47,9.7c-5.59,3.41-12.36,7.3-20.24,10.29
						c-3.03,1.15-5.79,2.18-8.45,3.14c-32.24,11.71-50.19,46.1-41.37,79.24c0.72,2.7,1.1,5.46,1.1,7.99c0,5.08-1.52,9.46-4.27,12.33
						c-2.83,2.95-6.82,4.45-11.84,4.45s-9.01-1.5-11.84-4.45c-2.75-2.87-4.27-7.25-4.27-12.33c0-2.46,0.36-5.14,1.04-7.76
						c7.65-29.5-5.83-60.42-32.66-74.88c-0.45-0.24-0.89-0.49-1.33-0.73c-12.22-6.9-23.65-17.39-34.95-32.09
						c-11-14.31-27.38-23.51-45.32-25.46c-2.39-0.26-4.77-0.39-7.15-0.39c-15.5,0-30.6,5.45-42.58,15.52
						c-7.81,6.56-16.02,14.79-25.11,25.14c-5.97,6.8-12.57,12.29-19.62,16.32c-15.82,9.04-27.21,24.21-31.49,41.92
						c-0.25,1.02-0.47,2.05-0.67,3.08c-0.19-1.34-0.42-2.69-0.69-4.03c-3.65-18.04-14.65-33.74-30.35-43.34
						c-7.89-4.82-14.97-11.03-21.03-18.45c-11.51-14.08-28.31-22.81-46.46-24.12c-1.6-0.12-3.2-0.17-4.79-0.17
						c-16.47,0-32.42,6.15-44.66,17.34c-1.33,1.22-2.74,2.53-4.22,3.95c-7.33,7.02-14.55,12.84-21.45,17.32
						c-28.59,18.55-38.42,55.78-22.71,86.02c2.68,5.17,4.22,11.3,4.22,16.83c0,4.88-1.34,8.57-3.99,10.96
						C88.4,181.77,84.43,182.95,78.96,182.95z"/>
				</g>
			</g>
		</g>
		<g>
			<g>
				<g>
					<path fill="#009245" d="M286.09,194.53c-4.93,0-8.84-1.47-11.63-4.37c-2.71-2.82-4.2-7.12-4.2-12.11
						c0-5.43,1.73-11.51,4.63-16.27c0.32-0.53,0.66-1.05,1.02-1.54c5.56-7.74,9.28-16.51,11.04-25.68
						c1.3,9.38,4.65,18.45,9.92,26.55c0.14,0.22,0.28,0.44,0.42,0.66c2.9,4.77,4.63,10.85,4.63,16.28c0,4.99-1.49,9.29-4.2,12.11
						C294.93,193.06,291.02,194.53,286.09,194.53z M720.54,188.89c-5.41,0-9.07-3.25-11.19-5.98c-2.95-3.8-4.64-9.05-4.64-14.4
						s1.69-10.61,4.64-14.4c0.34-0.44,0.7-0.86,1.06-1.25c5.35-5.78,9.49-12.36,12.38-19.38c1.81,7.53,4.99,14.83,9.59,21.53
						c2.53,3.69,3.99,8.62,3.99,13.5c0,5.36-1.69,10.61-4.64,14.4C729.61,185.64,725.95,188.89,720.54,188.89z M81.01,181.09
						c-5.37,0-9.27-1.16-11.91-3.54c-2.6-2.35-3.92-5.97-3.92-10.76c0-5.57,1.58-11.73,4.34-16.89
						c16.66-31.19,5.34-69.98-25.49-87.3c-3.03-1.7-6.18-3.59-9.65-5.79C23.66,50.02,11.61,46.74-0.34,46.74
						c-18.31,0-36.38,7.72-49.12,22.4C-56.15,76.85-64.3,85.83-74,94l-7.32,6.16c-25.61,21.52-34.04,28.81-40.99,38.85
						c-0.81,1.18-2.14,1.87-3.57,1.87c-0.61,0-1.09-0.09-1.65-0.33c-0.87-0.36-1.71-1.11-2.15-1.93c-0.45-0.81-0.63-1.93-0.47-2.85
						l39.03-218.2c0.38-2.1,2.13-3.57,4.27-3.57h824.51c2.35,0,4.34,1.99,4.34,4.34V68.51c0,1.17-0.37,2.11-1.17,2.97
						c-0.21,0.22-0.44,0.46-0.66,0.68c-6.3,6.26-11.07,13.54-14.28,21.35c-0.98-4.06-2.36-8.07-4.15-11.96
						c-10.64-23.11-33.74-37.82-59.03-37.82c-0.83,0-1.67,0.02-2.51,0.05C637.62,44.64,622.78,53.19,604,64
						c-4.88,2.81-9.78,5.38-14.55,7.63c-27.72,13.07-42.55,43.73-35.58,73.58c0.55,2.34,0.82,4.64,0.82,6.83
						c0,4.99-1.49,9.29-4.2,12.11c-2.78,2.9-6.7,4.37-11.63,4.37s-8.84-1.47-11.63-4.37c-2.71-2.82-4.2-7.12-4.2-12.11
						c0-2.3,0.32-4.81,0.93-7.28c6.95-28.03-5.43-57.27-30.38-71.81c-13.04-7.59-25.56-19.14-37.24-34.33
						c-10.81-14.06-26.89-23.09-44.51-25c-2.34-0.25-4.69-0.38-7.02-0.38c-15.22,0-30.05,5.35-41.82,15.24
						c-7.67,6.45-15.74,14.53-24.67,24.69c-5.86,6.68-12.34,12.07-19.26,16.03c-15.54,8.88-26.72,23.77-30.92,41.17
						c-0.24,1.01-0.46,2.02-0.66,3.03c-0.18-1.32-0.41-2.64-0.67-3.96c-3.59-17.72-14.39-33.14-29.81-42.57
						c-7.75-4.74-14.7-10.83-20.65-18.12c-11.31-13.83-27.81-22.4-45.63-23.69c-1.57-0.11-3.14-0.17-4.7-0.17
						c-16.18,0-31.84,6.04-43.86,17.03c-1.3,1.19-2.68,2.48-4.14,3.87c-7.78,7.44-15.41,13.51-22.69,18.04
						c-29.11,18.13-39.13,55.76-22.89,85.97c2.78,5.17,4.38,11.36,4.38,16.96c0,4.79-1.32,8.41-3.92,10.76
						C90.28,179.93,86.38,181.09,81.01,181.09z"/>
					<path fill="#009245" d="M286.09,194.53c-4.93,0-8.84-1.47-11.63-4.37c-2.71-2.82-4.2-7.12-4.2-12.11
						c0-5.43,1.73-11.51,4.63-16.27c0.32-0.53,0.66-1.05,1.02-1.54c5.56-7.74,9.28-16.51,11.04-25.68
						c1.3,9.38,4.65,18.45,9.92,26.55c0.14,0.22,0.28,0.44,0.42,0.66c2.9,4.77,4.63,10.85,4.63,16.28c0,4.99-1.49,9.29-4.2,12.11
						C294.93,193.06,291.02,194.53,286.09,194.53z M720.54,188.89c-5.41,0-9.07-3.25-11.19-5.98c-2.95-3.8-4.64-9.05-4.64-14.4
						s1.69-10.61,4.64-14.4c0.34-0.44,0.7-0.86,1.06-1.25c5.35-5.78,9.49-12.36,12.38-19.38c1.81,7.53,4.99,14.83,9.59,21.53
						c2.53,3.69,3.99,8.62,3.99,13.5c0,5.36-1.69,10.61-4.64,14.4C729.61,185.64,725.95,188.89,720.54,188.89z M81.01,181.09
						c-5.37,0-9.27-1.16-11.91-3.54c-2.6-2.35-3.92-5.97-3.92-10.76c0-5.57,1.58-11.73,4.34-16.89
						c16.66-31.19,5.34-69.98-25.49-87.3c-3.03-1.7-6.18-3.59-9.65-5.79C23.66,50.02,11.61,46.74-0.34,46.74
						c-18.31,0-36.38,7.72-49.12,22.4C-56.15,76.85-64.3,85.83-74,94l-7.32,6.16c-25.61,21.52-34.04,28.81-40.99,38.85
						c-0.81,1.18-2.14,1.87-3.57,1.87c-0.61,0-1.09-0.09-1.65-0.33c-0.87-0.36-1.71-1.11-2.15-1.93c-0.45-0.81-0.63-1.93-0.47-2.85
						l39.03-218.2c0.38-2.1,2.13-3.57,4.27-3.57h824.51c2.35,0,4.34,1.99,4.34,4.34V68.51c0,1.17-0.37,2.11-1.17,2.97
						c-0.21,0.22-0.44,0.46-0.66,0.68c-6.3,6.26-11.07,13.54-14.28,21.35c-0.98-4.06-2.36-8.07-4.15-11.96
						c-10.64-23.11-33.74-37.82-59.03-37.82c-0.83,0-1.67,0.02-2.51,0.05C637.62,44.64,622.78,53.19,604,64
						c-4.88,2.81-9.78,5.38-14.55,7.63c-27.72,13.07-42.55,43.73-35.58,73.58c0.55,2.34,0.82,4.64,0.82,6.83
						c0,4.99-1.49,9.29-4.2,12.11c-2.78,2.9-6.7,4.37-11.63,4.37s-8.84-1.47-11.63-4.37c-2.71-2.82-4.2-7.12-4.2-12.11
						c0-2.3,0.32-4.81,0.93-7.28c6.95-28.03-5.43-57.27-30.38-71.81c-13.04-7.59-25.56-19.14-37.24-34.33
						c-10.81-14.06-26.89-23.09-44.51-25c-2.34-0.25-4.69-0.38-7.02-0.38c-15.22,0-30.05,5.35-41.82,15.24
						c-7.67,6.45-15.74,14.53-24.67,24.69c-5.86,6.68-12.34,12.07-19.26,16.03c-15.54,8.88-26.72,23.77-30.92,41.17
						c-0.24,1.01-0.46,2.02-0.66,3.03c-0.18-1.32-0.41-2.64-0.67-3.96c-3.59-17.72-14.39-33.14-29.81-42.57
						c-7.75-4.74-14.7-10.83-20.65-18.12c-11.31-13.83-27.81-22.4-45.63-23.69c-1.57-0.11-3.14-0.17-4.7-0.17
						c-16.18,0-31.84,6.04-43.86,17.03c-1.3,1.19-2.68,2.48-4.14,3.87c-7.78,7.44-15.41,13.51-22.69,18.04
						c-29.11,18.13-39.13,55.76-22.89,85.97c2.78,5.17,4.38,11.36,4.38,16.96c0,4.79-1.32,8.41-3.92,10.76
						C90.28,179.93,86.38,181.09,81.01,181.09z"/>
				</g>
			</g>
		</g>
		<ellipse fill="#FFFFFF" cx="91.5" cy="166" rx="2.5" ry="7"/>
		<ellipse fill="#FFFFFF" cx="295.5" cy="179" rx="2.5" ry="7"/>
		
			<ellipse transform="matrix(0.7071 -0.7071 0.7071 0.7071 5.0131 102.4991)" fill="#FFFFFF" cx="126.23" cy="45.2" rx="15.5" ry="3.13"/>
		
			<ellipse transform="matrix(0.5655 -0.8248 0.8248 0.5655 107.0173 521.6275)" fill="#FFFFFF" cx="548.57" cy="159.25" rx="5.44" ry="2.56"/>
		
			<ellipse transform="matrix(0.7327 -0.6805 0.6805 0.7327 33.9252 181.0154)" fill="#FFFFFF" cx="247.4" cy="47.32" rx="3.13" ry="15.5"/>
		
			<ellipse transform="matrix(0.6444 -0.7647 0.7647 0.6444 128.4117 390.7885)" fill="#FFFFFF" cx="484.4" cy="57.32" rx="3.13" ry="15.5"/>
	</g>
</g>
</svg>
