<?xml version="1.0" encoding="UTF-8"?><svg id="_レイヤー_2" xmlns="http://www.w3.org/2000/svg" viewBox="0 0 1897.59 1269.67"><defs><style>.cls-1{fill:#f15a24;}.cls-2{fill:#ff25a5;}.cls-3{fill:none;stroke:#000;stroke-miterlimit:10;stroke-width:3px;}.cls-4{fill:#22b573;}.cls-5{fill:#0071bc;}.cls-6{fill:#fcee21;}</style></defs><g><g><path class="cls-6" d="M1438.03,1268.17c-.66,0-1.51-.13-2.51-1.07-1.13-1.06-1.93-3.03-2.13-5.28-.09-1-.37-4.05,1.11-10.59,2.25-9.93,7.85-24.54,16.63-43.41,6.12-13.15,14.44-28.39,24.74-45.28,3.76-6.16,6.83-12.71,9.18-19.54,4.78-13.91,15.5-40.09,39.42-85.81,3.25-6.21,5.84-12.75,7.72-19.51,7.33-26.31,15.61-46.67,24.6-60.52,7.02-10.81,14.14-19.28,20.6-24.5,8.4-6.79,15.65-14.89,21.46-24,14.65-22.95,28.38-42.98,39.7-57.94,7.16-9.45,13.28-16.79,18.2-21.81,2.25-2.29,4.4-4.18,6.39-5.59,15.53-11.03,27.58-26.26,34.75-43.9,5.47-13.47,10.63-24.91,15.35-34.02,5.65-10.91,10.22-18.9,14.38-25.15,7.42-11.14,12.52-23.65,15.02-36.8,7.05-37.19,15.68-58.92,21.68-70.6,7.28-14.19,14.37-24.73,21.06-31.34,7.97-7.87,13.63-8.78,17.2-8.78s7.15,1.23,10.72,3.75c6.74,4.77,10.18,12.02,10.21,21.55,.04,11.76-4.78,26.9-14.72,46.26-8.85,17.24-24.45,37.13-45.12,57.52-9.82,9.69-17.52,21.3-22.64,34.11-3.03,7.58-7.18,16.46-12.71,27.14-4.8,9.28-11.03,19.79-18.51,31.24-17.42,26.68-21.09,60.07-9.86,89.9,11.22,29.83,35.99,52.52,66.68,61.09,4.67,1.3,5.74,2.81,6.08,3.31,.65,.92,.8,2.34,.38,3.54-1.18,3.32-5.65,6.06-13.29,8.16-9.3,2.55-23.75,4.3-42.94,5.18-4.11,.19-8.52,.28-13.11,.28-6.4,0-13.34-.19-20.63-.55-1.68-.08-3.36-.13-5.03-.13-37.17,0-71.46,20.67-88.72,53.91-18.04,34.73-14.16,76.78,9.92,107.63,8.56,10.96,13.56,18.65,16.25,23.18,5.4,9.08,8.97,16.2,10.9,21.77,.94,2.71,2.34,7.71,1.1,10.59-.45,1.04-1.77,2.29-3.42,2.65-.5,.11-1.06,.17-1.59,.17-1.72,0-4.21-.41-8.19-3.59-17.9-14.33-39.98-21.93-62.49-21.93-7.19,0-14.42,.78-21.56,2.35-29.54,6.52-54.53,26.06-67.99,53.15-5.1,10.27-9.62,18.25-13.44,23.72-2.3,3.3-4.4,5.77-6.25,7.34-2.54,2.17-3.79,2.17-4.53,2.17h-.03Z"/><path class="cls-6" d="M1438.03,1268.17c-.66,0-1.51-.13-2.51-1.07-1.13-1.06-1.93-3.03-2.13-5.28-.09-1-.37-4.05,1.11-10.59,2.25-9.93,7.85-24.54,16.63-43.41,6.12-13.15,14.44-28.39,24.74-45.28,3.76-6.16,6.83-12.71,9.18-19.54,4.78-13.91,15.5-40.09,39.42-85.81,3.25-6.21,5.84-12.75,7.72-19.51,7.33-26.31,15.61-46.67,24.6-60.52,7.02-10.81,14.14-19.28,20.6-24.5,8.4-6.79,15.65-14.89,21.46-24,14.65-22.95,28.38-42.98,39.7-57.94,7.16-9.45,13.28-16.79,18.2-21.81,2.25-2.29,4.4-4.18,6.39-5.59,15.53-11.03,27.58-26.26,34.75-43.9,5.47-13.47,10.63-24.91,15.35-34.02,5.65-10.91,10.22-18.9,14.38-25.15,7.42-11.14,12.52-23.65,15.02-36.8,7.05-37.19,15.68-58.92,21.68-70.6,7.28-14.19,14.37-24.73,21.06-31.34,7.97-7.87,13.63-8.78,17.2-8.78s7.15,1.23,10.72,3.75c6.74,4.77,10.18,12.02,10.21,21.55,.04,11.76-4.78,26.9-14.72,46.26-8.85,17.24-24.45,37.13-45.12,57.52-9.82,9.69-17.52,21.3-22.64,34.11-3.03,7.58-7.18,16.46-12.71,27.14-4.8,9.28-11.03,19.79-18.51,31.24-17.42,26.68-21.09,60.07-9.86,89.9,11.22,29.83,35.99,52.52,66.68,61.09,4.67,1.3,5.74,2.81,6.08,3.31,.65,.92,.8,2.34,.38,3.54-1.18,3.32-5.65,6.06-13.29,8.16-9.3,2.55-23.75,4.3-42.94,5.18-4.11,.19-8.52,.28-13.11,.28-6.4,0-13.34-.19-20.63-.55-1.68-.08-3.36-.13-5.03-.13-37.17,0-71.46,20.67-88.72,53.91-18.04,34.73-14.16,76.78,9.92,107.63,8.56,10.96,13.56,18.65,16.25,23.18,5.4,9.08,8.97,16.2,10.9,21.77,.94,2.71,2.34,7.71,1.1,10.59-.45,1.04-1.77,2.29-3.42,2.65-.5,.11-1.06,.17-1.59,.17-1.72,0-4.21-.41-8.19-3.59-17.9-14.33-39.98-21.93-62.49-21.93-7.19,0-14.42,.78-21.56,2.35-29.54,6.52-54.53,26.06-67.99,53.15-5.1,10.27-9.62,18.25-13.44,23.72-2.3,3.3-4.4,5.77-6.25,7.34-2.54,2.17-3.79,2.17-4.53,2.17h-.03Z"/></g><g><path class="cls-3" d="M1438.03,1268.17c-.66,0-1.51-.13-2.51-1.07-1.13-1.06-1.93-3.03-2.13-5.28-.09-1-.37-4.05,1.11-10.59,2.25-9.93,7.85-24.54,16.63-43.41,6.12-13.15,14.44-28.39,24.74-45.28,3.76-6.16,6.83-12.71,9.18-19.54,4.78-13.91,15.5-40.09,39.42-85.81,3.25-6.21,5.84-12.75,7.72-19.51,7.33-26.31,15.61-46.67,24.6-60.52,7.02-10.81,14.14-19.28,20.6-24.5,8.4-6.79,15.65-14.89,21.46-24,14.65-22.95,28.38-42.98,39.7-57.94,7.16-9.45,13.28-16.79,18.2-21.81,2.25-2.29,4.4-4.18,6.39-5.59,15.53-11.03,27.58-26.26,34.75-43.9,5.47-13.47,10.63-24.91,15.35-34.02,5.65-10.91,10.22-18.9,14.38-25.15,7.42-11.14,12.52-23.65,15.02-36.8,7.05-37.19,15.68-58.92,21.68-70.6,7.28-14.19,14.37-24.73,21.06-31.34,7.97-7.87,13.63-8.78,17.2-8.78s7.15,1.23,10.72,3.75c6.74,4.77,10.18,12.02,10.21,21.55,.04,11.76-4.78,26.9-14.72,46.26-8.85,17.24-24.45,37.13-45.12,57.52-9.82,9.69-17.52,21.3-22.64,34.11-3.03,7.58-7.18,16.46-12.71,27.14-4.8,9.28-11.03,19.79-18.51,31.24-17.42,26.68-21.09,60.07-9.86,89.9,11.22,29.83,35.99,52.52,66.68,61.09,4.67,1.3,5.74,2.81,6.08,3.31,.65,.92,.8,2.34,.38,3.54-1.18,3.32-5.65,6.06-13.29,8.16-9.3,2.55-23.75,4.3-42.94,5.18-4.11,.19-8.52,.28-13.11,.28-6.4,0-13.34-.19-20.63-.55-1.68-.08-3.36-.13-5.03-.13-37.17,0-71.46,20.67-88.72,53.91-18.04,34.73-14.16,76.78,9.92,107.63,8.56,10.96,13.56,18.65,16.25,23.18,5.4,9.08,8.97,16.2,10.9,21.77,.94,2.71,2.34,7.71,1.1,10.59-.45,1.04-1.77,2.29-3.42,2.65-.5,.11-1.06,.17-1.59,.17-1.72,0-4.21-.41-8.19-3.59-17.9-14.33-39.98-21.93-62.49-21.93-7.19,0-14.42,.78-21.56,2.35-29.54,6.52-54.53,26.06-67.99,53.15-5.1,10.27-9.62,18.25-13.44,23.72-2.3,3.3-4.4,5.77-6.25,7.34-2.54,2.17-3.79,2.17-4.53,2.17h-.03Z"/><path class="cls-3" d="M1438.03,1268.17c-.66,0-1.51-.13-2.51-1.07-1.13-1.06-1.93-3.03-2.13-5.28-.09-1-.37-4.05,1.11-10.59,2.25-9.93,7.85-24.54,16.63-43.41,6.12-13.15,14.44-28.39,24.74-45.28,3.76-6.16,6.83-12.71,9.18-19.54,4.78-13.91,15.5-40.09,39.42-85.81,3.25-6.21,5.84-12.75,7.72-19.51,7.33-26.31,15.61-46.67,24.6-60.52,7.02-10.81,14.14-19.28,20.6-24.5,8.4-6.79,15.65-14.89,21.46-24,14.65-22.95,28.38-42.98,39.7-57.94,7.16-9.45,13.28-16.79,18.2-21.81,2.25-2.29,4.4-4.18,6.39-5.59,15.53-11.03,27.58-26.26,34.75-43.9,5.47-13.47,10.63-24.91,15.35-34.02,5.65-10.91,10.22-18.9,14.38-25.15,7.42-11.14,12.52-23.65,15.02-36.8,7.05-37.19,15.68-58.92,21.68-70.6,7.28-14.19,14.37-24.73,21.06-31.34,7.97-7.87,13.63-8.78,17.2-8.78s7.15,1.23,10.72,3.75c6.74,4.77,10.18,12.02,10.21,21.55,.04,11.76-4.78,26.9-14.72,46.26-8.85,17.24-24.45,37.13-45.12,57.52-9.82,9.69-17.52,21.3-22.64,34.11-3.03,7.58-7.18,16.46-12.71,27.14-4.8,9.28-11.03,19.79-18.51,31.24-17.42,26.68-21.09,60.07-9.86,89.9,11.22,29.83,35.99,52.52,66.68,61.09,4.67,1.3,5.74,2.81,6.08,3.31,.65,.92,.8,2.34,.38,3.54-1.18,3.32-5.65,6.06-13.29,8.16-9.3,2.55-23.75,4.3-42.94,5.18-4.11,.19-8.52,.28-13.11,.28-6.4,0-13.34-.19-20.63-.55-1.68-.08-3.36-.13-5.03-.13-37.17,0-71.46,20.67-88.72,53.91-18.04,34.73-14.16,76.78,9.92,107.63,8.56,10.96,13.56,18.65,16.25,23.18,5.4,9.08,8.97,16.2,10.9,21.77,.94,2.71,2.34,7.71,1.1,10.59-.45,1.04-1.77,2.29-3.42,2.65-.5,.11-1.06,.17-1.59,.17-1.72,0-4.21-.41-8.19-3.59-17.9-14.33-39.98-21.93-62.49-21.93-7.19,0-14.42,.78-21.56,2.35-29.54,6.52-54.53,26.06-67.99,53.15-5.1,10.27-9.62,18.25-13.44,23.72-2.3,3.3-4.4,5.77-6.25,7.34-2.54,2.17-3.79,2.17-4.53,2.17h-.03Z"/></g></g><g><g><path class="cls-4" d="M9.02,1070.62c-.95,0-2.4-.18-4.02-1.69-1.79-1.68-3.05-4.8-3.38-8.37-.39-4.25,.2-9.89,1.76-16.76,3.62-15.95,12.23-38.43,26.32-68.71,10.31-22.16,24.52-47.97,42.24-76.71,4.18-6.77,7.53-14.02,9.99-21.59,10.27-31.62,33.93-83.27,66.64-145.45,3.41-6.47,6.09-13.3,8.01-20.36,14.96-55.12,30.2-85.34,40.36-100.99,8.14-12.54,20.65-30.43,35.26-40.92,10.44-7.49,19.34-16.93,26.2-27.79,25.14-39.75,48.64-74.25,67.96-99.77,8.73-11.53,29.17-38.52,42.43-45.76,20.7-11.3,36.73-29.56,45.28-51.54,10.85-27.93,21.12-51.28,30.5-69.41,10.72-20.7,19.57-35.79,27.08-46.13,8.9-12.26,14.89-26.39,17.53-41.3,9.15-51.71,21.68-94.02,36.23-122.36,11.53-22.45,22.74-39.14,33.34-49.61,9.34-9.22,18.5-13.9,27.22-13.9,5.69,0,11.4,1.99,16.96,5.93,5.19,3.67,8.89,7.87,11.62,13.21,3.03,5.93,4.52,12.77,4.54,20.9,.06,18.62-7.56,42.57-23.3,73.22-15.23,29.66-42.61,63.75-79.18,98.59-11.3,10.77-19.93,24.03-25.19,38.73-4.87,13.6-12.39,30.18-23,50.67-28.54,55.13-77.08,116.31-82.52,123.1-24.47,30.56-28.85,72.6-11.22,107.55,17.05,33.78,51.64,54.95,89.26,54.95,1.3,0,2.61-.03,3.92-.08,8.03-.31,15.47-.47,22.11-.47,15.22,0,26.64,.79,34.91,2.41,10.92,2.14,13.09,5.2,13.8,6.21,1.04,1.48,1.28,3.67,.6,5.6-1.86,5.25-8.94,9.6-21.04,12.92-14.93,4.1-37.16,6.78-67.97,8.19-6.5,.3-13.48,.45-20.75,.45-19.69,0-42.14-1.11-66.75-3.28-2.96-.26-5.91-.39-8.84-.39-35.16,0-68.02,18.53-86.1,49.19-2.05,3.48-4.27,7.06-6.6,10.64-6.08,9.37-13.87,19.04-23.15,28.75-35.93,37.59-37.06,96.44-2.59,135.38,23.94,27.04,43.26,52.27,54.42,71.02,8.55,14.37,14.19,25.63,17.25,34.44,4.01,11.52,2.3,15.47,1.74,16.77-.88,2.05-2.1,3.46-5.41,4.2-.8,.18-1.67,.27-2.51,.27-6.37,0-13.17-5.43-17.75-9.99-7.42-7.38-15.64-18.53-25.12-34.09-18.26-29.97-50.74-47.96-85.37-47.96-3.25,0-6.52,.16-9.8,.48-38.21,3.75-70.89,29.05-84.11,65.09-7.92,21.58-15.56,40.33-22.71,55.7-11.97,25.74-21.79,43.98-30.02,55.77-3.64,5.22-6.97,9.13-9.89,11.62-3.57,3.04-5.71,3.43-7.18,3.43Z"/><path class="cls-4" d="M9.02,1070.62c-.95,0-2.4-.18-4.02-1.69-1.79-1.68-3.05-4.8-3.38-8.37-.39-4.25,.2-9.89,1.76-16.76,3.62-15.95,12.23-38.43,26.32-68.71,10.31-22.16,24.52-47.97,42.24-76.71,4.18-6.77,7.53-14.02,9.99-21.59,10.27-31.62,33.93-83.27,66.64-145.45,3.41-6.47,6.09-13.3,8.01-20.36,14.96-55.12,30.2-85.34,40.36-100.99,8.14-12.54,20.65-30.43,35.26-40.92,10.44-7.49,19.34-16.93,26.2-27.79,25.14-39.75,48.64-74.25,67.96-99.77,8.73-11.53,29.17-38.52,42.43-45.76,20.7-11.3,36.73-29.56,45.28-51.54,10.85-27.93,21.12-51.28,30.5-69.41,10.72-20.7,19.57-35.79,27.08-46.13,8.9-12.26,14.89-26.39,17.53-41.3,9.15-51.71,21.68-94.02,36.23-122.36,11.53-22.45,22.74-39.14,33.34-49.61,9.34-9.22,18.5-13.9,27.22-13.9,5.69,0,11.4,1.99,16.96,5.93,5.19,3.67,8.89,7.87,11.62,13.21,3.03,5.93,4.52,12.77,4.54,20.9,.06,18.62-7.56,42.57-23.3,73.22-15.23,29.66-42.61,63.75-79.18,98.59-11.3,10.77-19.93,24.03-25.19,38.73-4.87,13.6-12.39,30.18-23,50.67-28.54,55.13-77.08,116.31-82.52,123.1-24.47,30.56-28.85,72.6-11.22,107.55,17.05,33.78,51.64,54.95,89.26,54.95,1.3,0,2.61-.03,3.92-.08,8.03-.31,15.47-.47,22.11-.47,15.22,0,26.64,.79,34.91,2.41,10.92,2.14,13.09,5.2,13.8,6.21,1.04,1.48,1.28,3.67,.6,5.6-1.86,5.25-8.94,9.6-21.04,12.92-14.93,4.1-37.16,6.78-67.97,8.19-6.5,.3-13.48,.45-20.75,.45-19.69,0-42.14-1.11-66.75-3.28-2.96-.26-5.91-.39-8.84-.39-35.16,0-68.02,18.53-86.1,49.19-2.05,3.48-4.27,7.06-6.6,10.64-6.08,9.37-13.87,19.04-23.15,28.75-35.93,37.59-37.06,96.44-2.59,135.38,23.94,27.04,43.26,52.27,54.42,71.02,8.55,14.37,14.19,25.63,17.25,34.44,4.01,11.52,2.3,15.47,1.74,16.77-.88,2.05-2.1,3.46-5.41,4.2-.8,.18-1.67,.27-2.51,.27-6.37,0-13.17-5.43-17.75-9.99-7.42-7.38-15.64-18.53-25.12-34.09-18.26-29.97-50.74-47.96-85.37-47.96-3.25,0-6.52,.16-9.8,.48-38.21,3.75-70.89,29.05-84.11,65.09-7.92,21.58-15.56,40.33-22.71,55.7-11.97,25.74-21.79,43.98-30.02,55.77-3.64,5.22-6.97,9.13-9.89,11.62-3.57,3.04-5.71,3.43-7.18,3.43Z"/></g><g><path class="cls-3" d="M9.02,1070.62c-.95,0-2.4-.18-4.02-1.69-1.79-1.68-3.05-4.8-3.38-8.37-.39-4.25,.2-9.89,1.76-16.76,3.62-15.95,12.23-38.43,26.32-68.71,10.31-22.16,24.52-47.97,42.24-76.71,4.18-6.77,7.53-14.02,9.99-21.59,10.27-31.62,33.93-83.27,66.64-145.45,3.41-6.47,6.09-13.3,8.01-20.36,14.96-55.12,30.2-85.34,40.36-100.99,8.14-12.54,20.65-30.43,35.26-40.92,10.44-7.49,19.34-16.93,26.2-27.79,25.14-39.75,48.64-74.25,67.96-99.77,8.73-11.53,29.17-38.52,42.43-45.76,20.7-11.3,36.73-29.56,45.28-51.54,10.85-27.93,21.12-51.28,30.5-69.41,10.72-20.7,19.57-35.79,27.08-46.13,8.9-12.26,14.89-26.39,17.53-41.3,9.15-51.71,21.68-94.02,36.23-122.36,11.53-22.45,22.74-39.14,33.34-49.61,9.34-9.22,18.5-13.9,27.22-13.9,5.69,0,11.4,1.99,16.96,5.93,5.19,3.67,8.89,7.87,11.62,13.21,3.03,5.93,4.52,12.77,4.54,20.9,.06,18.62-7.56,42.57-23.3,73.22-15.23,29.66-42.61,63.75-79.18,98.59-11.3,10.77-19.93,24.03-25.19,38.73-4.87,13.6-12.39,30.18-23,50.67-28.54,55.13-77.08,116.31-82.52,123.1-24.47,30.56-28.85,72.6-11.22,107.55,17.05,33.78,51.64,54.95,89.26,54.95,1.3,0,2.61-.03,3.92-.08,8.03-.31,15.47-.47,22.11-.47,15.22,0,26.64,.79,34.91,2.41,10.92,2.14,13.09,5.2,13.8,6.21,1.04,1.48,1.28,3.67,.6,5.6-1.86,5.25-8.94,9.6-21.04,12.92-14.93,4.1-37.16,6.78-67.97,8.19-6.5,.3-13.48,.45-20.75,.45-19.69,0-42.14-1.11-66.75-3.28-2.96-.26-5.91-.39-8.84-.39-35.16,0-68.02,18.53-86.1,49.19-2.05,3.48-4.27,7.06-6.6,10.64-6.08,9.37-13.87,19.04-23.15,28.75-35.93,37.59-37.06,96.44-2.59,135.38,23.94,27.04,43.26,52.27,54.42,71.02,8.55,14.37,14.19,25.63,17.25,34.44,4.01,11.52,2.3,15.47,1.74,16.77-.88,2.05-2.1,3.46-5.41,4.2-.8,.18-1.67,.27-2.51,.27-6.37,0-13.17-5.43-17.75-9.99-7.42-7.38-15.64-18.53-25.12-34.09-18.26-29.97-50.74-47.96-85.37-47.96-3.25,0-6.52,.16-9.8,.48-38.21,3.75-70.89,29.05-84.11,65.09-7.92,21.58-15.56,40.33-22.71,55.7-11.97,25.74-21.79,43.98-30.02,55.77-3.64,5.22-6.97,9.13-9.89,11.62-3.57,3.04-5.71,3.43-7.18,3.43Z"/><path class="cls-3" d="M9.02,1070.62c-.95,0-2.4-.18-4.02-1.69-1.79-1.68-3.05-4.8-3.38-8.37-.39-4.25,.2-9.89,1.76-16.76,3.62-15.95,12.23-38.43,26.32-68.71,10.31-22.16,24.52-47.97,42.24-76.71,4.18-6.77,7.53-14.02,9.99-21.59,10.27-31.62,33.93-83.27,66.64-145.45,3.41-6.47,6.09-13.3,8.01-20.36,14.96-55.12,30.2-85.34,40.36-100.99,8.14-12.54,20.65-30.43,35.26-40.92,10.44-7.49,19.34-16.93,26.2-27.79,25.14-39.75,48.64-74.25,67.96-99.77,8.73-11.53,29.17-38.52,42.43-45.76,20.7-11.3,36.73-29.56,45.28-51.54,10.85-27.93,21.12-51.28,30.5-69.41,10.72-20.7,19.57-35.79,27.08-46.13,8.9-12.26,14.89-26.39,17.53-41.3,9.15-51.71,21.68-94.02,36.23-122.36,11.53-22.45,22.74-39.14,33.34-49.61,9.34-9.22,18.5-13.9,27.22-13.9,5.69,0,11.4,1.99,16.96,5.93,5.19,3.67,8.89,7.87,11.62,13.21,3.03,5.93,4.52,12.77,4.54,20.9,.06,18.62-7.56,42.57-23.3,73.22-15.23,29.66-42.61,63.75-79.18,98.59-11.3,10.77-19.93,24.03-25.19,38.73-4.87,13.6-12.39,30.18-23,50.67-28.54,55.13-77.08,116.31-82.52,123.1-24.47,30.56-28.85,72.6-11.22,107.55,17.05,33.78,51.64,54.95,89.26,54.95,1.3,0,2.61-.03,3.92-.08,8.03-.31,15.47-.47,22.11-.47,15.22,0,26.64,.79,34.91,2.41,10.92,2.14,13.09,5.2,13.8,6.21,1.04,1.48,1.28,3.67,.6,5.6-1.86,5.25-8.94,9.6-21.04,12.92-14.93,4.1-37.16,6.78-67.97,8.19-6.5,.3-13.48,.45-20.75,.45-19.69,0-42.14-1.11-66.75-3.28-2.96-.26-5.91-.39-8.84-.39-35.16,0-68.02,18.53-86.1,49.19-2.05,3.48-4.27,7.06-6.6,10.64-6.08,9.37-13.87,19.04-23.15,28.75-35.93,37.59-37.06,96.44-2.59,135.38,23.94,27.04,43.26,52.27,54.42,71.02,8.55,14.37,14.19,25.63,17.25,34.44,4.01,11.52,2.3,15.47,1.74,16.77-.88,2.05-2.1,3.46-5.41,4.2-.8,.18-1.67,.27-2.51,.27-6.37,0-13.17-5.43-17.75-9.99-7.42-7.38-15.64-18.53-25.12-34.09-18.26-29.97-50.74-47.96-85.37-47.96-3.25,0-6.52,.16-9.8,.48-38.21,3.75-70.89,29.05-84.11,65.09-7.92,21.58-15.56,40.33-22.71,55.7-11.97,25.74-21.79,43.98-30.02,55.77-3.64,5.22-6.97,9.13-9.89,11.62-3.57,3.04-5.71,3.43-7.18,3.43Z"/></g></g><g><g><path class="cls-1" d="M413.38,1195.52c-1.45,0-3.03-.53-4.55-1.54-2.32-1.53-9.36-6.2-2.01-26.59,2.97-8.23,1.42-17.41-4.08-24.21-1.46-1.81-2.68-3.99-3.6-6.47-2.53-6.79-7.88-12.14-14.66-14.68-2.83-1.06-5.81-1.59-8.77-1.59-4.12,0-8.23,1.02-11.93,3.03-2.62,1.42-4.93,2.15-6.86,2.15-3.56,0-5.65-2.46-6.79-4.52-2.35-4.29-1.64-8.62-.62-11.5,1.79-5.1,6.15-10.95,12.94-17.38,3.14-2.97,7.13-5.92,11.86-8.78,7.65-4.61,12.25-12.96,12.08-21.88-.17-8.93-5.09-17.09-12.91-21.41-3.68-2.03-5.25-5.01-5.86-6.6-1.4-3.67-.55-5.78,.21-7.05,2.23-3.72,8.29-6.15,18.53-7.43,2.1-.26,4.46-.4,7.01-.4,5.91,0,12.97,.7,20.99,2.08,1.42,.24,2.84,.36,4.25,.36,7.49,0,14.68-3.37,19.47-9.32,5.69-7.07,7.11-16.67,3.69-25.08-1.88-4.63-2.8-8.47-2.83-11.74-.02-2.75,.7-6.53,4.25-8.95,1.45-.99,2.94-1.49,4.43-1.49,.94,0,3.15,0,6.66,3.09,4.58,4.04,10.47,6.25,16.54,6.25,.67,0,1.33-.03,2-.08,6.76-.54,13.01-3.81,17.32-9.05,5.01-6.11,8.32-6.11,9.41-6.11,1.52,0,3.04,.53,4.52,1.58,1.43,1.01,2.46,2.18,3.16,3.59,4.3,8.67,13.09,13.88,22.39,13.88,2.23,0,4.49-.3,6.72-.92,.65-.18,1.29-.27,1.97-.27,2.64,0,4.74,1.68,6.04,3.09,2.86,3.1,5.6,8.01,1.42,18.5-2.48,6.21-2.36,13.15,.31,19.27,2.68,6.12,7.69,10.92,13.93,13.32,1.44,.55,2.48,1.25,3.38,2.27,1.87,2.13,1.95,5.05,1.69,7.14-.42,3.29-1.52,12.04-20.85,15.35-8.72,1.49-16.01,7.49-19.15,15.76-3.14,8.27-1.68,17.59,3.85,24.5,1.7,2.12,6.88,8.59,2.96,17.35-1.87,4.19-4.68,6.32-8.34,6.32-.21,0-.41,0-.61-.02-.49-.03-.98-.04-1.46-.04-6.77,0-13.27,2.75-18,7.65-5.07,5.26-7.58,12.47-6.88,19.73,.3,3.15,.21,5.83-.27,8.19-.83,4.02-2.81,6.72-6.04,8.24-1.27,.6-2.45,.89-3.61,.89-3.76,0-6.15-3.17-6.94-4.21-.65-.86-1.26-1.81-1.86-2.9-4.45-8.05-12.88-12.91-21.87-12.91-1.32,0-2.64,.1-3.97,.32-10.41,1.67-18.65,9.69-20.6,20.05-1.03,5.44-2.3,10.1-3.78,13.84-3.76,9.49-7.41,13.63-9.25,15.26-1.94,1.71-3.36,2.06-5.02,2.06Z"/><path class="cls-1" d="M413.38,1195.52c-1.45,0-3.03-.53-4.55-1.54-2.32-1.53-9.36-6.2-2.01-26.59,2.97-8.23,1.42-17.41-4.08-24.21-1.46-1.81-2.68-3.99-3.6-6.47-2.53-6.79-7.88-12.14-14.66-14.68-2.83-1.06-5.81-1.59-8.77-1.59-4.12,0-8.23,1.02-11.93,3.03-2.62,1.42-4.93,2.15-6.86,2.15-3.56,0-5.65-2.46-6.79-4.52-2.35-4.29-1.64-8.62-.62-11.5,1.79-5.1,6.15-10.95,12.94-17.38,3.14-2.97,7.13-5.92,11.86-8.78,7.65-4.61,12.25-12.96,12.08-21.88-.17-8.93-5.09-17.09-12.91-21.41-3.68-2.03-5.25-5.01-5.86-6.6-1.4-3.67-.55-5.78,.21-7.05,2.23-3.72,8.29-6.15,18.53-7.43,2.1-.26,4.46-.4,7.01-.4,5.91,0,12.97,.7,20.99,2.08,1.42,.24,2.84,.36,4.25,.36,7.49,0,14.68-3.37,19.47-9.32,5.69-7.07,7.11-16.67,3.69-25.08-1.88-4.63-2.8-8.47-2.83-11.74-.02-2.75,.7-6.53,4.25-8.95,1.45-.99,2.94-1.49,4.43-1.49,.94,0,3.15,0,6.66,3.09,4.58,4.04,10.47,6.25,16.54,6.25,.67,0,1.33-.03,2-.08,6.76-.54,13.01-3.81,17.32-9.05,5.01-6.11,8.32-6.11,9.41-6.11,1.52,0,3.04,.53,4.52,1.58,1.43,1.01,2.46,2.18,3.16,3.59,4.3,8.67,13.09,13.88,22.39,13.88,2.23,0,4.49-.3,6.72-.92,.65-.18,1.29-.27,1.97-.27,2.64,0,4.74,1.68,6.04,3.09,2.86,3.1,5.6,8.01,1.42,18.5-2.48,6.21-2.36,13.15,.31,19.27,2.68,6.12,7.69,10.92,13.93,13.32,1.44,.55,2.48,1.25,3.38,2.27,1.87,2.13,1.95,5.05,1.69,7.14-.42,3.29-1.52,12.04-20.85,15.35-8.72,1.49-16.01,7.49-19.15,15.76-3.14,8.27-1.68,17.59,3.85,24.5,1.7,2.12,6.88,8.59,2.96,17.35-1.87,4.19-4.68,6.32-8.34,6.32-.21,0-.41,0-.61-.02-.49-.03-.98-.04-1.46-.04-6.77,0-13.27,2.75-18,7.65-5.07,5.26-7.58,12.47-6.88,19.73,.3,3.15,.21,5.83-.27,8.19-.83,4.02-2.81,6.72-6.04,8.24-1.27,.6-2.45,.89-3.61,.89-3.76,0-6.15-3.17-6.94-4.21-.65-.86-1.26-1.81-1.86-2.9-4.45-8.05-12.88-12.91-21.87-12.91-1.32,0-2.64,.1-3.97,.32-10.41,1.67-18.65,9.69-20.6,20.05-1.03,5.44-2.3,10.1-3.78,13.84-3.76,9.49-7.41,13.63-9.25,15.26-1.94,1.71-3.36,2.06-5.02,2.06Z"/></g><g><path class="cls-3" d="M413.38,1195.52c-1.45,0-3.03-.53-4.55-1.54-2.32-1.53-9.36-6.2-2.01-26.59,2.97-8.23,1.42-17.41-4.08-24.21-1.46-1.81-2.68-3.99-3.6-6.47-2.53-6.79-7.88-12.14-14.66-14.68-2.83-1.06-5.81-1.59-8.77-1.59-4.12,0-8.23,1.02-11.93,3.03-2.62,1.42-4.93,2.15-6.86,2.15-3.56,0-5.65-2.46-6.79-4.52-2.35-4.29-1.64-8.62-.62-11.5,1.79-5.1,6.15-10.95,12.94-17.38,3.14-2.97,7.13-5.92,11.86-8.78,7.65-4.61,12.25-12.96,12.08-21.88-.17-8.93-5.09-17.09-12.91-21.41-3.68-2.03-5.25-5.01-5.86-6.6-1.4-3.67-.55-5.78,.21-7.05,2.23-3.72,8.29-6.15,18.53-7.43,2.1-.26,4.46-.4,7.01-.4,5.91,0,12.97,.7,20.99,2.08,1.42,.24,2.84,.36,4.25,.36,7.49,0,14.68-3.37,19.47-9.32,5.69-7.07,7.11-16.67,3.69-25.08-1.88-4.63-2.8-8.47-2.83-11.74-.02-2.75,.7-6.53,4.25-8.95,1.45-.99,2.94-1.49,4.43-1.49,.94,0,3.15,0,6.66,3.09,4.58,4.04,10.47,6.25,16.54,6.25,.67,0,1.33-.03,2-.08,6.76-.54,13.01-3.81,17.32-9.05,5.01-6.11,8.32-6.11,9.41-6.11,1.52,0,3.04,.53,4.52,1.58,1.43,1.01,2.46,2.18,3.16,3.59,4.3,8.67,13.09,13.88,22.39,13.88,2.23,0,4.49-.3,6.72-.92,.65-.18,1.29-.27,1.97-.27,2.64,0,4.74,1.68,6.04,3.09,2.86,3.1,5.6,8.01,1.42,18.5-2.48,6.21-2.36,13.15,.31,19.27,2.68,6.12,7.69,10.92,13.93,13.32,1.44,.55,2.48,1.25,3.38,2.27,1.87,2.13,1.95,5.05,1.69,7.14-.42,3.29-1.52,12.04-20.85,15.35-8.72,1.49-16.01,7.49-19.15,15.76-3.14,8.27-1.68,17.59,3.85,24.5,1.7,2.12,6.88,8.59,2.96,17.35-1.87,4.19-4.68,6.32-8.34,6.32-.21,0-.41,0-.61-.02-.49-.03-.98-.04-1.46-.04-6.77,0-13.27,2.75-18,7.65-5.07,5.26-7.58,12.47-6.88,19.73,.3,3.15,.21,5.83-.27,8.19-.83,4.02-2.81,6.72-6.04,8.24-1.27,.6-2.45,.89-3.61,.89-3.76,0-6.15-3.17-6.94-4.21-.65-.86-1.26-1.81-1.86-2.9-4.45-8.05-12.88-12.91-21.87-12.91-1.32,0-2.64,.1-3.97,.32-10.41,1.67-18.65,9.69-20.6,20.05-1.03,5.44-2.3,10.1-3.78,13.84-3.76,9.49-7.41,13.63-9.25,15.26-1.94,1.71-3.36,2.06-5.02,2.06Z"/><path class="cls-3" d="M413.38,1195.52c-1.45,0-3.03-.53-4.55-1.54-2.32-1.53-9.36-6.2-2.01-26.59,2.97-8.23,1.42-17.41-4.08-24.21-1.46-1.81-2.68-3.99-3.6-6.47-2.53-6.79-7.88-12.14-14.66-14.68-2.83-1.06-5.81-1.59-8.77-1.59-4.12,0-8.23,1.02-11.93,3.03-2.62,1.42-4.93,2.15-6.86,2.15-3.56,0-5.65-2.46-6.79-4.52-2.35-4.29-1.64-8.62-.62-11.5,1.79-5.1,6.15-10.95,12.94-17.38,3.14-2.97,7.13-5.92,11.86-8.78,7.65-4.61,12.25-12.96,12.08-21.88-.17-8.93-5.09-17.09-12.91-21.41-3.68-2.03-5.25-5.01-5.86-6.6-1.4-3.67-.55-5.78,.21-7.05,2.23-3.72,8.29-6.15,18.53-7.43,2.1-.26,4.46-.4,7.01-.4,5.91,0,12.97,.7,20.99,2.08,1.42,.24,2.84,.36,4.25,.36,7.49,0,14.68-3.37,19.47-9.32,5.69-7.07,7.11-16.67,3.69-25.08-1.88-4.63-2.8-8.47-2.83-11.74-.02-2.75,.7-6.53,4.25-8.95,1.45-.99,2.94-1.49,4.43-1.49,.94,0,3.15,0,6.66,3.09,4.58,4.04,10.47,6.25,16.54,6.25,.67,0,1.33-.03,2-.08,6.76-.54,13.01-3.81,17.32-9.05,5.01-6.11,8.32-6.11,9.41-6.11,1.52,0,3.04,.53,4.52,1.58,1.43,1.01,2.46,2.18,3.16,3.59,4.3,8.67,13.09,13.88,22.39,13.88,2.23,0,4.49-.3,6.72-.92,.65-.18,1.29-.27,1.97-.27,2.64,0,4.74,1.68,6.04,3.09,2.86,3.1,5.6,8.01,1.42,18.5-2.48,6.21-2.36,13.15,.31,19.27,2.68,6.12,7.69,10.92,13.93,13.32,1.44,.55,2.48,1.25,3.38,2.27,1.87,2.13,1.95,5.05,1.69,7.14-.42,3.29-1.52,12.04-20.85,15.35-8.72,1.49-16.01,7.49-19.15,15.76-3.14,8.27-1.68,17.59,3.85,24.5,1.7,2.12,6.88,8.59,2.96,17.35-1.87,4.19-4.68,6.32-8.34,6.32-.21,0-.41,0-.61-.02-.49-.03-.98-.04-1.46-.04-6.77,0-13.27,2.75-18,7.65-5.07,5.26-7.58,12.47-6.88,19.73,.3,3.15,.21,5.83-.27,8.19-.83,4.02-2.81,6.72-6.04,8.24-1.27,.6-2.45,.89-3.61,.89-3.76,0-6.15-3.17-6.94-4.21-.65-.86-1.26-1.81-1.86-2.9-4.45-8.05-12.88-12.91-21.87-12.91-1.32,0-2.64,.1-3.97,.32-10.41,1.67-18.65,9.69-20.6,20.05-1.03,5.44-2.3,10.1-3.78,13.84-3.76,9.49-7.41,13.63-9.25,15.26-1.94,1.71-3.36,2.06-5.02,2.06Z"/></g></g><g><g><path class="cls-4" d="M1644.74,426.29c-1.58,0-4.08-.27-7.54-2.56-5.14-3.4-7.88-8.22-8.62-15.14-.87-8.2,1.41-19.24,6.79-32.81,.45-1.15,.95-2.32,1.48-3.49,4.48-9.94,2-21.64-6.12-28.91-7.23-6.47-11.59-16.59-12.96-30.07-.94-9.29-6.99-17.29-15.68-20.72-2.98-1.18-6.09-1.75-9.19-1.75-5.94,0-11.79,2.11-16.42,6.15-10.36,9.02-18.83,13.59-25.2,13.59-4.73,0-8.51-2.52-11.23-7.49-3.17-5.78-3.5-12.01-1.03-19.04,2.97-8.45,10.18-18.12,21.43-28.76,19.18-18.14,49.65-29.69,61.87-33.82,12.06-4.07,19.14-16.57,16.43-29.01-2.52-11.58-12.78-19.68-24.41-19.68-.86,0-1.73,.04-2.6,.13-4.06,.42-7.87,.63-11.33,.63-16.93,0-27.5-5.17-31.4-15.38-1.72-4.5-1.61-8.42,.34-11.67,3.65-6.08,13.97-10.22,30.67-12.3,3.48-.43,7.39-.65,11.61-.65,26.93,0,60.27,8.78,66.68,10.54,2.19,.6,4.42,.89,6.62,.89,8.02,0,15.72-3.87,20.48-10.66,6.06-8.65,6.03-20.18-.08-28.8-2.96-4.18-5.5-8.25-7.52-12.08-7.15-13.53-10.66-24.07-10.72-32.23-.05-6.7,2.25-11.55,7.03-14.82,2.37-1.62,4.91-2.47,7.34-2.47,6.08,0,12.68,5.08,19.62,15.1,4.68,6.76,12.38,10.77,20.55,10.77,.4,0,.8,0,1.21-.03,8.62-.42,16.42-5.25,20.62-12.78,8.46-15.14,16.51-22.82,23.95-22.82,2.48,0,5.07,.9,7.49,2.62,4.24,3,6.55,7.22,7.04,12.91,.78,9.04,6.41,16.95,14.7,20.66,3.27,1.46,6.75,2.18,10.21,2.18,5.32,0,10.59-1.69,14.99-4.99,4.57-3.42,7.75-3.82,9.75-3.82,3.56,0,6.83,1.67,10,5.11,3.35,3.64,13.56,14.71-4.8,44.59-4.63,7.53-4.93,16.95-.8,24.76,4.13,7.82,12.08,12.87,20.91,13.29,7.75,.37,13.21,2.29,16.22,5.7,2.53,2.87,3.44,6.73,2.8,11.81-.83,6.59-3.87,11.82-9.29,15.99-6.5,5-16.6,8.41-30.01,10.14-2.87,.37-5.96,.56-9.16,.56-7.25,0-15.35-.94-24.1-2.79-1.74-.37-3.48-.54-5.19-.54-10.69,0-20.46,6.89-23.81,17.44-3.89,12.25,2.15,25.45,13.96,30.53,5.42,2.33,10.15,4.99,14.06,7.9,11.61,8.67,18.7,17.75,20.5,26.26,1.05,4.98,.42,10.12-1.89,15.29-4.67,10.46-11.55,10.46-13.81,10.46-3.7,0-8.09-1.32-13.05-3.92-3.66-1.92-7.64-2.86-11.6-2.86-5.59,0-11.15,1.88-15.69,5.53-7.75,6.24-11.06,16.49-8.42,26.09,.01,.04,.04,.16,.06,.21,4.06,14.42,5.27,25.74,3.62,33.73-1.35,6.57-4.72,11.16-10,13.65-2.1,.99-4.05,1.47-5.98,1.47-2.84,0-7.14-1.21-11.49-6.97-4.02-5.32-7.7-13.87-10.95-25.4-.25-.89-.49-1.8-.72-2.73-2.08-8.43-8.39-15.18-16.67-17.83-2.49-.8-5.06-1.18-7.6-1.18-5.91,0-11.71,2.09-16.31,6.05-4.66,4.01-9.35,7.61-13.95,10.7-6.14,4.13-10.13,10.77-10.91,18.13-1.88,17.82-4.94,32.19-9.11,42.72-7.53,19.03-15.48,28.68-23.62,28.68Z"/><path class="cls-4" d="M1644.74,426.29c-1.58,0-4.08-.27-7.54-2.56-5.14-3.4-7.88-8.22-8.62-15.14-.87-8.2,1.41-19.24,6.79-32.81,.45-1.15,.95-2.32,1.48-3.49,4.48-9.94,2-21.64-6.12-28.91-7.23-6.47-11.59-16.59-12.96-30.07-.94-9.29-6.99-17.29-15.68-20.72-2.98-1.18-6.09-1.75-9.19-1.75-5.94,0-11.79,2.11-16.42,6.15-10.36,9.02-18.83,13.59-25.2,13.59-4.73,0-8.51-2.52-11.23-7.49-3.17-5.78-3.5-12.01-1.03-19.04,2.97-8.45,10.18-18.12,21.43-28.76,19.18-18.14,49.65-29.69,61.87-33.82,12.06-4.07,19.14-16.57,16.43-29.01-2.52-11.58-12.78-19.68-24.41-19.68-.86,0-1.73,.04-2.6,.13-4.06,.42-7.87,.63-11.33,.63-16.93,0-27.5-5.17-31.4-15.38-1.72-4.5-1.61-8.42,.34-11.67,3.65-6.08,13.97-10.22,30.67-12.3,3.48-.43,7.39-.65,11.61-.65,26.93,0,60.27,8.78,66.68,10.54,2.19,.6,4.42,.89,6.62,.89,8.02,0,15.72-3.87,20.48-10.66,6.06-8.65,6.03-20.18-.08-28.8-2.96-4.18-5.5-8.25-7.52-12.08-7.15-13.53-10.66-24.07-10.72-32.23-.05-6.7,2.25-11.55,7.03-14.82,2.37-1.62,4.91-2.47,7.34-2.47,6.08,0,12.68,5.08,19.62,15.1,4.68,6.76,12.38,10.77,20.55,10.77,.4,0,.8,0,1.21-.03,8.62-.42,16.42-5.25,20.62-12.78,8.46-15.14,16.51-22.82,23.95-22.82,2.48,0,5.07,.9,7.49,2.62,4.24,3,6.55,7.22,7.04,12.91,.78,9.04,6.41,16.95,14.7,20.66,3.27,1.46,6.75,2.18,10.21,2.18,5.32,0,10.59-1.69,14.99-4.99,4.57-3.42,7.75-3.82,9.75-3.82,3.56,0,6.83,1.67,10,5.11,3.35,3.64,13.56,14.71-4.8,44.59-4.63,7.53-4.93,16.95-.8,24.76,4.13,7.82,12.08,12.87,20.91,13.29,7.75,.37,13.21,2.29,16.22,5.7,2.53,2.87,3.44,6.73,2.8,11.81-.83,6.59-3.87,11.82-9.29,15.99-6.5,5-16.6,8.41-30.01,10.14-2.87,.37-5.96,.56-9.16,.56-7.25,0-15.35-.94-24.1-2.79-1.74-.37-3.48-.54-5.19-.54-10.69,0-20.46,6.89-23.81,17.44-3.89,12.25,2.15,25.45,13.96,30.53,5.42,2.33,10.15,4.99,14.06,7.9,11.61,8.67,18.7,17.75,20.5,26.26,1.05,4.98,.42,10.12-1.89,15.29-4.67,10.46-11.55,10.46-13.81,10.46-3.7,0-8.09-1.32-13.05-3.92-3.66-1.92-7.64-2.86-11.6-2.86-5.59,0-11.15,1.88-15.69,5.53-7.75,6.24-11.06,16.49-8.42,26.09,.01,.04,.04,.16,.06,.21,4.06,14.42,5.27,25.74,3.62,33.73-1.35,6.57-4.72,11.16-10,13.65-2.1,.99-4.05,1.47-5.98,1.47-2.84,0-7.14-1.21-11.49-6.97-4.02-5.32-7.7-13.87-10.95-25.4-.25-.89-.49-1.8-.72-2.73-2.08-8.43-8.39-15.18-16.67-17.83-2.49-.8-5.06-1.18-7.6-1.18-5.91,0-11.71,2.09-16.31,6.05-4.66,4.01-9.35,7.61-13.95,10.7-6.14,4.13-10.13,10.77-10.91,18.13-1.88,17.82-4.94,32.19-9.11,42.72-7.53,19.03-15.48,28.68-23.62,28.68Z"/></g><g><path class="cls-3" d="M1644.74,426.29c-1.58,0-4.08-.27-7.54-2.56-5.14-3.4-7.88-8.22-8.62-15.14-.87-8.2,1.41-19.24,6.79-32.81,.45-1.15,.95-2.32,1.48-3.49,4.48-9.94,2-21.64-6.12-28.91-7.23-6.47-11.59-16.59-12.96-30.07-.94-9.29-6.99-17.29-15.68-20.72-2.98-1.18-6.09-1.75-9.19-1.75-5.94,0-11.79,2.11-16.42,6.15-10.36,9.02-18.83,13.59-25.2,13.59-4.73,0-8.51-2.52-11.23-7.49-3.17-5.78-3.5-12.01-1.03-19.04,2.97-8.45,10.18-18.12,21.43-28.76,19.18-18.14,49.65-29.69,61.87-33.82,12.06-4.07,19.14-16.57,16.43-29.01-2.52-11.58-12.78-19.68-24.41-19.68-.86,0-1.73,.04-2.6,.13-4.06,.42-7.87,.63-11.33,.63-16.93,0-27.5-5.17-31.4-15.38-1.72-4.5-1.61-8.42,.34-11.67,3.65-6.08,13.97-10.22,30.67-12.3,3.48-.43,7.39-.65,11.61-.65,26.93,0,60.27,8.78,66.68,10.54,2.19,.6,4.42,.89,6.62,.89,8.02,0,15.72-3.87,20.48-10.66,6.06-8.65,6.03-20.18-.08-28.8-2.96-4.18-5.5-8.25-7.52-12.08-7.15-13.53-10.66-24.07-10.72-32.23-.05-6.7,2.25-11.55,7.03-14.82,2.37-1.62,4.91-2.47,7.34-2.47,6.08,0,12.68,5.08,19.62,15.1,4.68,6.76,12.38,10.77,20.55,10.77,.4,0,.8,0,1.21-.03,8.62-.42,16.42-5.25,20.62-12.78,8.46-15.14,16.51-22.82,23.95-22.82,2.48,0,5.07,.9,7.49,2.62,4.24,3,6.55,7.22,7.04,12.91,.78,9.04,6.41,16.95,14.7,20.66,3.27,1.46,6.75,2.18,10.21,2.18,5.32,0,10.59-1.69,14.99-4.99,4.57-3.42,7.75-3.82,9.75-3.82,3.56,0,6.83,1.67,10,5.11,3.35,3.64,13.56,14.71-4.8,44.59-4.63,7.53-4.93,16.95-.8,24.76,4.13,7.82,12.08,12.87,20.91,13.29,7.75,.37,13.21,2.29,16.22,5.7,2.53,2.87,3.44,6.73,2.8,11.81-.83,6.59-3.87,11.82-9.29,15.99-6.5,5-16.6,8.41-30.01,10.14-2.87,.37-5.96,.56-9.16,.56-7.25,0-15.35-.94-24.1-2.79-1.74-.37-3.48-.54-5.19-.54-10.69,0-20.46,6.89-23.81,17.44-3.89,12.25,2.15,25.45,13.96,30.53,5.42,2.33,10.15,4.99,14.06,7.9,11.61,8.67,18.7,17.75,20.5,26.26,1.05,4.98,.42,10.12-1.89,15.29-4.67,10.46-11.55,10.46-13.81,10.46-3.7,0-8.09-1.32-13.05-3.92-3.66-1.92-7.64-2.86-11.6-2.86-5.59,0-11.15,1.88-15.69,5.53-7.75,6.24-11.06,16.49-8.42,26.09,.01,.04,.04,.16,.06,.21,4.06,14.42,5.27,25.74,3.62,33.73-1.35,6.57-4.72,11.16-10,13.65-2.1,.99-4.05,1.47-5.98,1.47-2.84,0-7.14-1.21-11.49-6.97-4.02-5.32-7.7-13.87-10.95-25.4-.25-.89-.49-1.8-.72-2.73-2.08-8.43-8.39-15.18-16.67-17.83-2.49-.8-5.06-1.18-7.6-1.18-5.91,0-11.71,2.09-16.31,6.05-4.66,4.01-9.35,7.61-13.95,10.7-6.14,4.13-10.13,10.77-10.91,18.13-1.88,17.82-4.94,32.19-9.11,42.72-7.53,19.03-15.48,28.68-23.62,28.68Z"/><path class="cls-3" d="M1644.74,426.29c-1.58,0-4.08-.27-7.54-2.56-5.14-3.4-7.88-8.22-8.62-15.14-.87-8.2,1.41-19.24,6.79-32.81,.45-1.15,.95-2.32,1.48-3.49,4.48-9.94,2-21.64-6.12-28.91-7.23-6.47-11.59-16.59-12.96-30.07-.94-9.29-6.99-17.29-15.68-20.72-2.98-1.18-6.09-1.75-9.19-1.75-5.94,0-11.79,2.11-16.42,6.15-10.36,9.02-18.83,13.59-25.2,13.59-4.73,0-8.51-2.52-11.23-7.49-3.17-5.78-3.5-12.01-1.03-19.04,2.97-8.45,10.18-18.12,21.43-28.76,19.18-18.14,49.65-29.69,61.87-33.82,12.06-4.07,19.14-16.57,16.43-29.01-2.52-11.58-12.78-19.68-24.41-19.68-.86,0-1.73,.04-2.6,.13-4.06,.42-7.87,.63-11.33,.63-16.93,0-27.5-5.17-31.4-15.38-1.72-4.5-1.61-8.42,.34-11.67,3.65-6.08,13.97-10.22,30.67-12.3,3.48-.43,7.39-.65,11.61-.65,26.93,0,60.27,8.78,66.68,10.54,2.19,.6,4.42,.89,6.62,.89,8.02,0,15.72-3.87,20.48-10.66,6.06-8.65,6.03-20.18-.08-28.8-2.96-4.18-5.5-8.25-7.52-12.08-7.15-13.53-10.66-24.07-10.72-32.23-.05-6.7,2.25-11.55,7.03-14.82,2.37-1.62,4.91-2.47,7.34-2.47,6.08,0,12.68,5.08,19.62,15.1,4.68,6.76,12.38,10.77,20.55,10.77,.4,0,.8,0,1.21-.03,8.62-.42,16.42-5.25,20.62-12.78,8.46-15.14,16.51-22.82,23.95-22.82,2.48,0,5.07,.9,7.49,2.62,4.24,3,6.55,7.22,7.04,12.91,.78,9.04,6.41,16.95,14.7,20.66,3.27,1.46,6.75,2.18,10.21,2.18,5.32,0,10.59-1.69,14.99-4.99,4.57-3.42,7.75-3.82,9.75-3.82,3.56,0,6.83,1.67,10,5.11,3.35,3.64,13.56,14.71-4.8,44.59-4.63,7.53-4.93,16.95-.8,24.76,4.13,7.82,12.08,12.87,20.91,13.29,7.75,.37,13.21,2.29,16.22,5.7,2.53,2.87,3.44,6.73,2.8,11.81-.83,6.59-3.87,11.82-9.29,15.99-6.5,5-16.6,8.41-30.01,10.14-2.87,.37-5.96,.56-9.16,.56-7.25,0-15.35-.94-24.1-2.79-1.74-.37-3.48-.54-5.19-.54-10.69,0-20.46,6.89-23.81,17.44-3.89,12.25,2.15,25.45,13.96,30.53,5.42,2.33,10.15,4.99,14.06,7.9,11.61,8.67,18.7,17.75,20.5,26.26,1.05,4.98,.42,10.12-1.89,15.29-4.67,10.46-11.55,10.46-13.81,10.46-3.7,0-8.09-1.32-13.05-3.92-3.66-1.92-7.64-2.86-11.6-2.86-5.59,0-11.15,1.88-15.69,5.53-7.75,6.24-11.06,16.49-8.42,26.09,.01,.04,.04,.16,.06,.21,4.06,14.42,5.27,25.74,3.62,33.73-1.35,6.57-4.72,11.16-10,13.65-2.1,.99-4.05,1.47-5.98,1.47-2.84,0-7.14-1.21-11.49-6.97-4.02-5.32-7.7-13.87-10.95-25.4-.25-.89-.49-1.8-.72-2.73-2.08-8.43-8.39-15.18-16.67-17.83-2.49-.8-5.06-1.18-7.6-1.18-5.91,0-11.71,2.09-16.31,6.05-4.66,4.01-9.35,7.61-13.95,10.7-6.14,4.13-10.13,10.77-10.91,18.13-1.88,17.82-4.94,32.19-9.11,42.72-7.53,19.03-15.48,28.68-23.62,28.68Z"/></g></g><g><g><path class="cls-1" d="M1074.84,203.61c-1.13,0-2.2-.28-3.38-.89-2.25-1.15-3.55-2.92-3.87-5.26-.2-1.48-.04-3.15,.5-5.11,1.99-7.22,.64-14.96-3.69-21.07-4.32-6.12-11.16-9.97-18.63-10.5-2-.14-3.49-1.23-4.4-2.12-1.8-1.77-2.51-3.85-2.12-6.17,.24-1.45,.88-2.96,1.95-4.64,7.09-11.13,4.32-25.85-6.34-33.63-5.68-4.15-8.68-7.53-10.2-9.63-3.09-4.3-4.68-7.93-4.72-10.8-.03-2.36,.99-4.3,3.04-5.78,1.34-.96,2.73-1.45,4.14-1.45,1.24,0,2.26,.26,3.43,.88,3.64,1.91,7.64,2.87,11.63,2.87,4.23,0,8.45-1.07,12.25-3.21,7.39-4.16,12.17-11.77,12.7-20.23,.08-1.33,.32-2.47,.73-3.48,.88-2.19,2.57-3.59,5.03-4.16,.65-.15,1.31-.23,1.9-.23,0,0,.54,0,1.29,.17,1.83,.42,3.68,.62,5.53,.62,5.11,0,10.15-1.57,14.4-4.56,5.78-4.08,9.57-10.41,10.42-17.43,.24-1.97,.59-3.73,1.04-5.25,2.34-7.86,5.62-11.84,9.78-11.84,.73,0,1.51,.12,2.31,.36,2.42,.72,4.02,2.22,4.76,4.46,.12,.37,.22,.75,.3,1.15,1.4,7.14,5.85,13.32,12.17,16.92,3.81,2.17,8.07,3.27,12.36,3.27,2.83,0,5.67-.48,8.4-1.46,.83-.3,1.61-.43,2.45-.43,1.02,0,2.59,.18,4.49,1.78,1.93,1.62,2.81,3.64,2.6,5.99-1.42,13.07,7.51,25.09,20.46,27.39,1.42,.25,2.73,1.01,3.89,2.25,1.73,1.84,2.35,3.94,1.87,6.25-.59,2.81-2.85,6.07-6.72,9.69-1.96,1.84-4.73,3.75-8.02,5.55-7.85,4.29-12.81,12.43-13.01,21.37-.2,8.94,4.38,17.31,12.03,21.94,4.08,2.47,6.72,4.96,7.85,7.38,1,2.14,.87,4.33-.4,6.51-1.37,2.37-3.51,3.63-6.2,3.63s-5.91-1.1-9.82-3.28c-3.77-2.1-7.96-3.16-12.16-3.16-3.61,0-7.23,.78-10.59,2.36-7.27,3.4-12.47,10.09-13.97,17.99-.04,.21-.09,.42-.14,.63-.61,2.29-2.12,3.88-4.49,4.74-.94,.34-1.82,.51-2.68,.51-1.3,0-2.48-.33-3.49-.99-4.07-2.62-8.77-3.97-13.52-3.97-2.22,0-4.46,.3-6.65,.9-6.85,1.89-12.58,6.61-15.74,12.97l-.14,.28c-3.37,6.59-6.94,9.94-10.59,9.94Z"/><path class="cls-1" d="M1074.84,203.61c-1.13,0-2.2-.28-3.38-.89-2.25-1.15-3.55-2.92-3.87-5.26-.2-1.48-.04-3.15,.5-5.11,1.99-7.22,.64-14.96-3.69-21.07-4.32-6.12-11.16-9.97-18.63-10.5-2-.14-3.49-1.23-4.4-2.12-1.8-1.77-2.51-3.85-2.12-6.17,.24-1.45,.88-2.96,1.95-4.64,7.09-11.13,4.32-25.85-6.34-33.63-5.68-4.15-8.68-7.53-10.2-9.63-3.09-4.3-4.68-7.93-4.72-10.8-.03-2.36,.99-4.3,3.04-5.78,1.34-.96,2.73-1.45,4.14-1.45,1.24,0,2.26,.26,3.43,.88,3.64,1.91,7.64,2.87,11.63,2.87,4.23,0,8.45-1.07,12.25-3.21,7.39-4.16,12.17-11.77,12.7-20.23,.08-1.33,.32-2.47,.73-3.48,.88-2.19,2.57-3.59,5.03-4.16,.65-.15,1.31-.23,1.9-.23,0,0,.54,0,1.29,.17,1.83,.42,3.68,.62,5.53,.62,5.11,0,10.15-1.57,14.4-4.56,5.78-4.08,9.57-10.41,10.42-17.43,.24-1.97,.59-3.73,1.04-5.25,2.34-7.86,5.62-11.84,9.78-11.84,.73,0,1.51,.12,2.31,.36,2.42,.72,4.02,2.22,4.76,4.46,.12,.37,.22,.75,.3,1.15,1.4,7.14,5.85,13.32,12.17,16.92,3.81,2.17,8.07,3.27,12.36,3.27,2.83,0,5.67-.48,8.4-1.46,.83-.3,1.61-.43,2.45-.43,1.02,0,2.59,.18,4.49,1.78,1.93,1.62,2.81,3.64,2.6,5.99-1.42,13.07,7.51,25.09,20.46,27.39,1.42,.25,2.73,1.01,3.89,2.25,1.73,1.84,2.35,3.94,1.87,6.25-.59,2.81-2.85,6.07-6.72,9.69-1.96,1.84-4.73,3.75-8.02,5.55-7.85,4.29-12.81,12.43-13.01,21.37-.2,8.94,4.38,17.31,12.03,21.94,4.08,2.47,6.72,4.96,7.85,7.38,1,2.14,.87,4.33-.4,6.51-1.37,2.37-3.51,3.63-6.2,3.63s-5.91-1.1-9.82-3.28c-3.77-2.1-7.96-3.16-12.16-3.16-3.61,0-7.23,.78-10.59,2.36-7.27,3.4-12.47,10.09-13.97,17.99-.04,.21-.09,.42-.14,.63-.61,2.29-2.12,3.88-4.49,4.74-.94,.34-1.82,.51-2.68,.51-1.3,0-2.48-.33-3.49-.99-4.07-2.62-8.77-3.97-13.52-3.97-2.22,0-4.46,.3-6.65,.9-6.85,1.89-12.58,6.61-15.74,12.97l-.14,.28c-3.37,6.59-6.94,9.94-10.59,9.94Z"/></g><g><path class="cls-3" d="M1074.84,203.61c-1.13,0-2.2-.28-3.38-.89-2.25-1.15-3.55-2.92-3.87-5.26-.2-1.48-.04-3.15,.5-5.11,1.99-7.22,.64-14.96-3.69-21.07-4.32-6.12-11.16-9.97-18.63-10.5-2-.14-3.49-1.23-4.4-2.12-1.8-1.77-2.51-3.85-2.12-6.17,.24-1.45,.88-2.96,1.95-4.64,7.09-11.13,4.32-25.85-6.34-33.63-5.68-4.15-8.68-7.53-10.2-9.63-3.09-4.3-4.68-7.93-4.72-10.8-.03-2.36,.99-4.3,3.04-5.78,1.34-.96,2.73-1.45,4.14-1.45,1.24,0,2.26,.26,3.43,.88,3.64,1.91,7.64,2.87,11.63,2.87,4.23,0,8.45-1.07,12.25-3.21,7.39-4.16,12.17-11.77,12.7-20.23,.08-1.33,.32-2.47,.73-3.48,.88-2.19,2.57-3.59,5.03-4.16,.65-.15,1.31-.23,1.9-.23,0,0,.54,0,1.29,.17,1.83,.42,3.68,.62,5.53,.62,5.11,0,10.15-1.57,14.4-4.56,5.78-4.08,9.57-10.41,10.42-17.43,.24-1.97,.59-3.73,1.04-5.25,2.34-7.86,5.62-11.84,9.78-11.84,.73,0,1.51,.12,2.31,.36,2.42,.72,4.02,2.22,4.76,4.46,.12,.37,.22,.75,.3,1.15,1.4,7.14,5.85,13.32,12.17,16.92,3.81,2.17,8.07,3.27,12.36,3.27,2.83,0,5.67-.48,8.4-1.46,.83-.3,1.61-.43,2.45-.43,1.02,0,2.59,.18,4.49,1.78,1.93,1.62,2.81,3.64,2.6,5.99-1.42,13.07,7.51,25.09,20.46,27.39,1.42,.25,2.73,1.01,3.89,2.25,1.73,1.84,2.35,3.94,1.87,6.25-.59,2.81-2.85,6.07-6.72,9.69-1.96,1.84-4.73,3.75-8.02,5.55-7.85,4.29-12.81,12.43-13.01,21.37-.2,8.94,4.38,17.31,12.03,21.94,4.08,2.47,6.72,4.96,7.85,7.38,1,2.14,.87,4.33-.4,6.51-1.37,2.37-3.51,3.63-6.2,3.63s-5.91-1.1-9.82-3.28c-3.77-2.1-7.96-3.16-12.16-3.16-3.61,0-7.23,.78-10.59,2.36-7.27,3.4-12.47,10.09-13.97,17.99-.04,.21-.09,.42-.14,.63-.61,2.29-2.12,3.88-4.49,4.74-.94,.34-1.82,.51-2.68,.51-1.3,0-2.48-.33-3.49-.99-4.07-2.62-8.77-3.97-13.52-3.97-2.22,0-4.46,.3-6.65,.9-6.85,1.89-12.58,6.61-15.74,12.97l-.14,.28c-3.37,6.59-6.94,9.94-10.59,9.94Z"/><path class="cls-3" d="M1074.84,203.61c-1.13,0-2.2-.28-3.38-.89-2.25-1.15-3.55-2.92-3.87-5.26-.2-1.48-.04-3.15,.5-5.11,1.99-7.22,.64-14.96-3.69-21.07-4.32-6.12-11.16-9.97-18.63-10.5-2-.14-3.49-1.23-4.4-2.12-1.8-1.77-2.51-3.85-2.12-6.17,.24-1.45,.88-2.96,1.95-4.64,7.09-11.13,4.32-25.85-6.34-33.63-5.68-4.15-8.68-7.53-10.2-9.63-3.09-4.3-4.68-7.93-4.72-10.8-.03-2.36,.99-4.3,3.04-5.78,1.34-.96,2.73-1.45,4.14-1.45,1.24,0,2.26,.26,3.43,.88,3.64,1.91,7.64,2.87,11.63,2.87,4.23,0,8.45-1.07,12.25-3.21,7.39-4.16,12.17-11.77,12.7-20.23,.08-1.33,.32-2.47,.73-3.48,.88-2.19,2.57-3.59,5.03-4.16,.65-.15,1.31-.23,1.9-.23,0,0,.54,0,1.29,.17,1.83,.42,3.68,.62,5.53,.62,5.11,0,10.15-1.57,14.4-4.56,5.78-4.08,9.57-10.41,10.42-17.43,.24-1.97,.59-3.73,1.04-5.25,2.34-7.86,5.62-11.84,9.78-11.84,.73,0,1.51,.12,2.31,.36,2.42,.72,4.02,2.22,4.76,4.46,.12,.37,.22,.75,.3,1.15,1.4,7.14,5.85,13.32,12.17,16.92,3.81,2.17,8.07,3.27,12.36,3.27,2.83,0,5.67-.48,8.4-1.46,.83-.3,1.61-.43,2.45-.43,1.02,0,2.59,.18,4.49,1.78,1.93,1.62,2.81,3.64,2.6,5.99-1.42,13.07,7.51,25.09,20.46,27.39,1.42,.25,2.73,1.01,3.89,2.25,1.73,1.84,2.35,3.94,1.87,6.25-.59,2.81-2.85,6.07-6.72,9.69-1.96,1.84-4.73,3.75-8.02,5.55-7.85,4.29-12.81,12.43-13.01,21.37-.2,8.94,4.38,17.31,12.03,21.94,4.08,2.47,6.72,4.96,7.85,7.38,1,2.14,.87,4.33-.4,6.51-1.37,2.37-3.51,3.63-6.2,3.63s-5.91-1.1-9.82-3.28c-3.77-2.1-7.96-3.16-12.16-3.16-3.61,0-7.23,.78-10.59,2.36-7.27,3.4-12.47,10.09-13.97,17.99-.04,.21-.09,.42-.14,.63-.61,2.29-2.12,3.88-4.49,4.74-.94,.34-1.82,.51-2.68,.51-1.3,0-2.48-.33-3.49-.99-4.07-2.62-8.77-3.97-13.52-3.97-2.22,0-4.46,.3-6.65,.9-6.85,1.89-12.58,6.61-15.74,12.97l-.14,.28c-3.37,6.59-6.94,9.94-10.59,9.94Z"/></g></g><g><g><path class="cls-5" d="M1524.74,387.2c-1.87,0-3.73-.49-5.68-1.49-2.59-1.33-5.83-3.94-6.5-8.83-.66-4.78,1.07-11.22,5.12-19.13,1.45-2.84,3.47-5.9,5.98-9.09,9.86-12.53,8.19-30.59-3.8-41.1-.54-.47-1.07-.95-1.59-1.44-5.56-5.13-12.83-7.96-20.35-7.96-.71,0-1.42,.03-2.13,.08-8.26,.59-15.91,4.56-21.14,10.99-.93,1.14-1.87,2.2-2.78,3.13-7.24,7.37-13.58,11.11-18.82,11.11-3.71,0-6.48-1.96-8.15-3.6-2.08-2.04-4.38-5.5-3.56-10.37,.8-4.76,4.37-10.38,10.6-16.73,4.91-4.99,12.68-10.15,22.48-14.9,10.93-5.3,17.58-16.67,16.85-28.79-.04-.66-.07-1.32-.1-1.99-.33-8.92-4.62-17.24-11.7-22.68-6.31-4.85-11.15-9.58-14.38-14.08-5.19-7.22-7.86-13.32-7.93-18.15-.07-4.94,2.73-8,5.1-9.7,2.25-1.62,4.59-2.44,6.95-2.44,.94,0,1.83,.11,2.71,.33,2.41,.6,4.85,.9,7.27,.9,8.64,0,17-3.74,22.77-10.47,7.39-8.62,9.28-20.68,4.88-31.15-1.3-3.09-2.26-5.97-2.86-8.56-2.01-8.66-2.11-15.33-.32-19.8,1.84-4.58,5.61-6.33,8.45-6.98,1.11-.26,2.18-.39,3.2-.39,7.33,0,12.68,7.02,15.89,20.87,.12,.53,.24,1.08,.34,1.64,2.67,14.14,14.99,24.39,29.38,24.44h.1c14.34,0,26.68-10.15,29.44-24.24,.3-1.54,.66-3,1.05-4.34,3.92-13.19,9.45-19.88,16.42-19.88,1.23,0,2.54,.2,3.88,.6,2.79,.83,6.45,2.8,8,7.49,.44,1.32,.7,2.75,.8,4.38,.77,12.23,8.91,22.76,20.55,26.59,3.08,1.02,6.25,1.51,9.39,1.51,8.69,0,17.14-3.78,22.95-10.67,0,0,.18-.21,.18-.21,2.89-3.44,10.56-12.59,18.75-12.59,2.68,0,5.15,.98,7.54,2.98,2.28,1.91,3.69,4.19,4.2,6.76,2.81,14.21,15.28,24.17,29.4,24.17,1.32,0,2.66-.09,4-.27,.58-.08,1.15-.12,1.73-.12,3.17,0,6.02,1.33,8.47,3.94,1.99,2.12,4.15,5.67,3.13,10.5-1,4.72-4.79,10.2-11.28,16.28-6.14,5.75-16.52,11.61-29.23,16.48-12.49,4.79-20.3,17.27-19.15,30.6,1.15,13.33,10.99,24.28,24.12,26.85,9.95,1.95,18.24,4.73,23.96,8.03,7.7,4.45,12.64,8.92,14.69,13.29,2.09,4.47,.79,8.42-.66,10.94-2.37,4.1-5.78,6.1-10.41,6.1s-10.54-2.06-17.58-6.13c-3.73-2.15-7.79-5.34-12.07-9.48-5.78-5.58-13.3-8.42-20.85-8.42-6.28,0-12.58,1.96-17.93,5.96-11.79,8.8-15.46,24.84-8.67,37.89,1.07,2.05,1.95,4.04,2.63,5.9,3.04,8.36,3.95,14.96,2.71,19.62-1.27,4.77-4.8,6.96-7.54,7.96-1.56,.57-3.08,.86-4.51,.86-2,0-8.08,0-14.31-12.71-5.18-10.56-15.81-16.79-26.94-16.79-3.66,0-7.37,.67-10.97,2.09-9.54,3.75-19.54,5.73-29.73,5.88-14.14,.21-26.21,10.27-28.98,24.14-1.42,7.12-3.37,13.24-5.65,17.7-3.9,7.63-10.16,16.72-17.8,16.72Z"/><path class="cls-5" d="M1524.74,387.2c-1.87,0-3.73-.49-5.68-1.49-2.59-1.33-5.83-3.94-6.5-8.83-.66-4.78,1.07-11.22,5.12-19.13,1.45-2.84,3.47-5.9,5.98-9.09,9.86-12.53,8.19-30.59-3.8-41.1-.54-.47-1.07-.95-1.59-1.44-5.56-5.13-12.83-7.96-20.35-7.96-.71,0-1.42,.03-2.13,.08-8.26,.59-15.91,4.56-21.14,10.99-.93,1.14-1.87,2.2-2.78,3.13-7.24,7.37-13.58,11.11-18.82,11.11-3.71,0-6.48-1.96-8.15-3.6-2.08-2.04-4.38-5.5-3.56-10.37,.8-4.76,4.37-10.38,10.6-16.73,4.91-4.99,12.68-10.15,22.48-14.9,10.93-5.3,17.58-16.67,16.85-28.79-.04-.66-.07-1.32-.1-1.99-.33-8.92-4.62-17.24-11.7-22.68-6.31-4.85-11.15-9.58-14.38-14.08-5.19-7.22-7.86-13.32-7.93-18.15-.07-4.94,2.73-8,5.1-9.7,2.25-1.62,4.59-2.44,6.95-2.44,.94,0,1.83,.11,2.71,.33,2.41,.6,4.85,.9,7.27,.9,8.64,0,17-3.74,22.77-10.47,7.39-8.62,9.28-20.68,4.88-31.15-1.3-3.09-2.26-5.97-2.86-8.56-2.01-8.66-2.11-15.33-.32-19.8,1.84-4.58,5.61-6.33,8.45-6.98,1.11-.26,2.18-.39,3.2-.39,7.33,0,12.68,7.02,15.89,20.87,.12,.53,.24,1.08,.34,1.64,2.67,14.14,14.99,24.39,29.38,24.44h.1c14.34,0,26.68-10.15,29.44-24.24,.3-1.54,.66-3,1.05-4.34,3.92-13.19,9.45-19.88,16.42-19.88,1.23,0,2.54,.2,3.88,.6,2.79,.83,6.45,2.8,8,7.49,.44,1.32,.7,2.75,.8,4.38,.77,12.23,8.91,22.76,20.55,26.59,3.08,1.02,6.25,1.51,9.39,1.51,8.69,0,17.14-3.78,22.95-10.67,0,0,.18-.21,.18-.21,2.89-3.44,10.56-12.59,18.75-12.59,2.68,0,5.15,.98,7.54,2.98,2.28,1.91,3.69,4.19,4.2,6.76,2.81,14.21,15.28,24.17,29.4,24.17,1.32,0,2.66-.09,4-.27,.58-.08,1.15-.12,1.73-.12,3.17,0,6.02,1.33,8.47,3.94,1.99,2.12,4.15,5.67,3.13,10.5-1,4.72-4.79,10.2-11.28,16.28-6.14,5.75-16.52,11.61-29.23,16.48-12.49,4.79-20.3,17.27-19.15,30.6,1.15,13.33,10.99,24.28,24.12,26.85,9.95,1.95,18.24,4.73,23.96,8.03,7.7,4.45,12.64,8.92,14.69,13.29,2.09,4.47,.79,8.42-.66,10.94-2.37,4.1-5.78,6.1-10.41,6.1s-10.54-2.06-17.58-6.13c-3.73-2.15-7.79-5.34-12.07-9.48-5.78-5.58-13.3-8.42-20.85-8.42-6.28,0-12.58,1.96-17.93,5.96-11.79,8.8-15.46,24.84-8.67,37.89,1.07,2.05,1.95,4.04,2.63,5.9,3.04,8.36,3.95,14.96,2.71,19.62-1.27,4.77-4.8,6.96-7.54,7.96-1.56,.57-3.08,.86-4.51,.86-2,0-8.08,0-14.31-12.71-5.18-10.56-15.81-16.79-26.94-16.79-3.66,0-7.37,.67-10.97,2.09-9.54,3.75-19.54,5.73-29.73,5.88-14.14,.21-26.21,10.27-28.98,24.14-1.42,7.12-3.37,13.24-5.65,17.7-3.9,7.63-10.16,16.72-17.8,16.72Z"/></g><g><path class="cls-3" d="M1524.74,387.2c-1.87,0-3.73-.49-5.68-1.49-2.59-1.33-5.83-3.94-6.5-8.83-.66-4.78,1.07-11.22,5.12-19.13,1.45-2.84,3.47-5.9,5.98-9.09,9.86-12.53,8.19-30.59-3.8-41.1-.54-.47-1.07-.95-1.59-1.44-5.56-5.13-12.83-7.96-20.35-7.96-.71,0-1.42,.03-2.13,.08-8.26,.59-15.91,4.56-21.14,10.99-.93,1.14-1.87,2.2-2.78,3.13-7.24,7.37-13.58,11.11-18.82,11.11-3.71,0-6.48-1.96-8.15-3.6-2.08-2.04-4.38-5.5-3.56-10.37,.8-4.76,4.37-10.38,10.6-16.73,4.91-4.99,12.68-10.15,22.48-14.9,10.93-5.3,17.58-16.67,16.85-28.79-.04-.66-.07-1.32-.1-1.99-.33-8.92-4.62-17.24-11.7-22.68-6.31-4.85-11.15-9.58-14.38-14.08-5.19-7.22-7.86-13.32-7.93-18.15-.07-4.94,2.73-8,5.1-9.7,2.25-1.62,4.59-2.44,6.95-2.44,.94,0,1.83,.11,2.71,.33,2.41,.6,4.85,.9,7.27,.9,8.64,0,17-3.74,22.77-10.47,7.39-8.62,9.28-20.68,4.88-31.15-1.3-3.09-2.26-5.97-2.86-8.56-2.01-8.66-2.11-15.33-.32-19.8,1.84-4.58,5.61-6.33,8.45-6.98,1.11-.26,2.18-.39,3.2-.39,7.33,0,12.68,7.02,15.89,20.87,.12,.53,.24,1.08,.34,1.64,2.67,14.14,14.99,24.39,29.38,24.44h.1c14.34,0,26.68-10.15,29.44-24.24,.3-1.54,.66-3,1.05-4.34,3.92-13.19,9.45-19.88,16.42-19.88,1.23,0,2.54,.2,3.88,.6,2.79,.83,6.45,2.8,8,7.49,.44,1.32,.7,2.75,.8,4.38,.77,12.23,8.91,22.76,20.55,26.59,3.08,1.02,6.25,1.51,9.39,1.51,8.69,0,17.14-3.78,22.95-10.67,0,0,.18-.21,.18-.21,2.89-3.44,10.56-12.59,18.75-12.59,2.68,0,5.15,.98,7.54,2.98,2.28,1.91,3.69,4.19,4.2,6.76,2.81,14.21,15.28,24.17,29.4,24.17,1.32,0,2.66-.09,4-.27,.58-.08,1.15-.12,1.73-.12,3.17,0,6.02,1.33,8.47,3.94,1.99,2.12,4.15,5.67,3.13,10.5-1,4.72-4.79,10.2-11.28,16.28-6.14,5.75-16.52,11.61-29.23,16.48-12.49,4.79-20.3,17.27-19.15,30.6,1.15,13.33,10.99,24.28,24.12,26.85,9.95,1.95,18.24,4.73,23.96,8.03,7.7,4.45,12.64,8.92,14.69,13.29,2.09,4.47,.79,8.42-.66,10.94-2.37,4.1-5.78,6.1-10.41,6.1s-10.54-2.06-17.58-6.13c-3.73-2.15-7.79-5.34-12.07-9.48-5.78-5.58-13.3-8.42-20.85-8.42-6.28,0-12.58,1.96-17.93,5.96-11.79,8.8-15.46,24.84-8.67,37.89,1.07,2.05,1.95,4.04,2.63,5.9,3.04,8.36,3.95,14.96,2.71,19.62-1.27,4.77-4.8,6.96-7.54,7.96-1.56,.57-3.08,.86-4.51,.86-2,0-8.08,0-14.31-12.71-5.18-10.56-15.81-16.79-26.94-16.79-3.66,0-7.37,.67-10.97,2.09-9.54,3.75-19.54,5.73-29.73,5.88-14.14,.21-26.21,10.27-28.98,24.14-1.42,7.12-3.37,13.24-5.65,17.7-3.9,7.63-10.16,16.72-17.8,16.72Z"/><path class="cls-3" d="M1524.74,387.2c-1.87,0-3.73-.49-5.68-1.49-2.59-1.33-5.83-3.94-6.5-8.83-.66-4.78,1.07-11.22,5.12-19.13,1.45-2.84,3.47-5.9,5.98-9.09,9.86-12.53,8.19-30.59-3.8-41.1-.54-.47-1.07-.95-1.59-1.44-5.56-5.13-12.83-7.96-20.35-7.96-.71,0-1.42,.03-2.13,.08-8.26,.59-15.91,4.56-21.14,10.99-.93,1.14-1.87,2.2-2.78,3.13-7.24,7.37-13.58,11.11-18.82,11.11-3.71,0-6.48-1.96-8.15-3.6-2.08-2.04-4.38-5.5-3.56-10.37,.8-4.76,4.37-10.38,10.6-16.73,4.91-4.99,12.68-10.15,22.48-14.9,10.93-5.3,17.58-16.67,16.85-28.79-.04-.66-.07-1.32-.1-1.99-.33-8.92-4.62-17.24-11.7-22.68-6.31-4.85-11.15-9.58-14.38-14.08-5.19-7.22-7.86-13.32-7.93-18.15-.07-4.94,2.73-8,5.1-9.7,2.25-1.62,4.59-2.44,6.95-2.44,.94,0,1.83,.11,2.71,.33,2.41,.6,4.85,.9,7.27,.9,8.64,0,17-3.74,22.77-10.47,7.39-8.62,9.28-20.68,4.88-31.15-1.3-3.09-2.26-5.97-2.86-8.56-2.01-8.66-2.11-15.33-.32-19.8,1.84-4.58,5.61-6.33,8.45-6.98,1.11-.26,2.18-.39,3.2-.39,7.33,0,12.68,7.02,15.89,20.87,.12,.53,.24,1.08,.34,1.64,2.67,14.14,14.99,24.39,29.38,24.44h.1c14.34,0,26.68-10.15,29.44-24.24,.3-1.54,.66-3,1.05-4.34,3.92-13.19,9.45-19.88,16.42-19.88,1.23,0,2.54,.2,3.88,.6,2.79,.83,6.45,2.8,8,7.49,.44,1.32,.7,2.75,.8,4.38,.77,12.23,8.91,22.76,20.55,26.59,3.08,1.02,6.25,1.51,9.39,1.51,8.69,0,17.14-3.78,22.95-10.67,0,0,.18-.21,.18-.21,2.89-3.44,10.56-12.59,18.75-12.59,2.68,0,5.15,.98,7.54,2.98,2.28,1.91,3.69,4.19,4.2,6.76,2.81,14.21,15.28,24.17,29.4,24.17,1.32,0,2.66-.09,4-.27,.58-.08,1.15-.12,1.73-.12,3.17,0,6.02,1.33,8.47,3.94,1.99,2.12,4.15,5.67,3.13,10.5-1,4.72-4.79,10.2-11.28,16.28-6.14,5.75-16.52,11.61-29.23,16.48-12.49,4.79-20.3,17.27-19.15,30.6,1.15,13.33,10.99,24.28,24.12,26.85,9.95,1.95,18.24,4.73,23.96,8.03,7.7,4.45,12.64,8.92,14.69,13.29,2.09,4.47,.79,8.42-.66,10.94-2.37,4.1-5.78,6.1-10.41,6.1s-10.54-2.06-17.58-6.13c-3.73-2.15-7.79-5.34-12.07-9.48-5.78-5.58-13.3-8.42-20.85-8.42-6.28,0-12.58,1.96-17.93,5.96-11.79,8.8-15.46,24.84-8.67,37.89,1.07,2.05,1.95,4.04,2.63,5.9,3.04,8.36,3.95,14.96,2.71,19.62-1.27,4.77-4.8,6.96-7.54,7.96-1.56,.57-3.08,.86-4.51,.86-2,0-8.08,0-14.31-12.71-5.18-10.56-15.81-16.79-26.94-16.79-3.66,0-7.37,.67-10.97,2.09-9.54,3.75-19.54,5.73-29.73,5.88-14.14,.21-26.21,10.27-28.98,24.14-1.42,7.12-3.37,13.24-5.65,17.7-3.9,7.63-10.16,16.72-17.8,16.72Z"/></g></g><g><g><path class="cls-2" d="M1110.44,1217.04c-.96,0-1.92-.25-2.92-.77-.48-.25-2.12-1.19-2.89-2.88-1.12-2.47-.35-6.56,2.18-11.5,1.26-2.46,3.29-5.18,6.04-8.07,1.99-2.1,2.98-4.96,2.7-7.83-.27-2.88-1.78-5.5-4.13-7.18-.41-.29-.81-.59-1.21-.9-1.78-1.37-3.93-2.07-6.09-2.07-1.42,0-2.85,.3-4.19,.92-1.15,.53-2.21,.79-3.25,.79-1.55,0-2.92-.6-4.18-1.85-2.84-2.79-2.55-6.24,.93-10.84,1.92-2.55,2.52-5.87,1.59-8.93-1.23-4.06-1.85-8.3-1.85-12.6,0-5.63,1.13-11.37,3.27-16.58,1.06-2.59,.99-5.51-.2-8.05-1.32-2.82-2.63-6.89,1.3-9.72,1.14-.82,2.37-1.25,3.57-1.25,.73,0,1.45,.14,2.19,.42,1.17,.45,2.39,.67,3.6,.67,1.96,0,3.91-.58,5.58-1.7,.64-.43,1.31-.85,1.99-1.26,3.2-1.91,5.07-5.43,4.86-9.15-.29-5.14,1.28-7.92,4.94-8.77,.57-.13,1.12-.2,1.64-.2,1.14,0,2.17,.31,3.06,.91,1.68,1.14,3.64,1.72,5.62,1.72,1.25,0,2.51-.24,3.71-.71,3.08-1.23,5.35-3.92,6.06-7.16,.13-.58,.27-1.15,.43-1.67,2.02-6.78,4.86-10.22,8.44-10.22,.63,0,1.3,.1,2,.31,2.12,.63,3.46,1.89,4.11,3.85,.28,.85,.43,1.81,.44,2.94,.04,4,2.46,7.59,6.15,9.13,1.24,.52,2.55,.77,3.85,.77,2.55,0,5.06-.98,6.96-2.82,4.01-3.89,6.46-3.89,7.26-3.89,1.36,0,2.66,.52,3.88,1.53,1.69,1.42,2.42,3.11,2.24,5.17-.19,2.12-1.41,4.68-3.63,7.59-2.19,2.88-2.66,6.72-1.22,10.04,1.44,3.32,4.56,5.6,8.17,5.97,1.39,.14,2.61,.79,3.74,2,1.51,1.61,2.04,3.38,1.61,5.4-.51,2.43-2.46,5.24-5.8,8.37-1.33,1.24-3.02,2.49-5.02,3.7-3.5,2.11-5.36,6.14-4.71,10.17,.66,4.03,3.7,7.26,7.69,8.15,4.29,.96,7.79,2.21,10.42,3.73,4.8,2.77,7.67,5.78,8.07,8.47,.27,1.84-.59,3.51-.86,3.98-1.2,2.08-3,3.14-5.35,3.14-1.95,0-4.37-.72-7.18-2.14-1.43-.72-2.98-1.08-4.51-1.08-2.64,0-5.24,1.04-7.17,3.03-3.05,3.13-3.71,7.89-1.63,11.73,.67,1.23,1.21,2.42,1.62,3.54,1.56,4.29,2.03,7.68,1.39,10.08-.53,2-1.8,3.33-3.88,4.09-.8,.29-1.58,.44-2.32,.44-4.27,0-7.08-5.28-8.7-9.7-.06-.16-.11-.32-.17-.48-.93-2.75-3.02-4.97-5.71-6.06-1.21-.49-2.49-.73-3.76-.73-1.57,0-3.13,.37-4.56,1.1-6.15,3.15-13.02,4.81-19.88,4.81-1,0-2.01-.03-3.01-.1-.23-.02-.46-.02-.69-.02-4.96,0-9.22,3.67-9.9,8.66-.73,5.36-1.96,9.84-3.56,12.97-2.92,5.7-6,8.6-9.15,8.6Z"/><path class="cls-2" d="M1110.44,1217.04c-.96,0-1.92-.25-2.92-.77-.48-.25-2.12-1.19-2.89-2.88-1.12-2.47-.35-6.56,2.18-11.5,1.26-2.46,3.29-5.18,6.04-8.07,1.99-2.1,2.98-4.96,2.7-7.83-.27-2.88-1.78-5.5-4.13-7.18-.41-.29-.81-.59-1.21-.9-1.78-1.37-3.93-2.07-6.09-2.07-1.42,0-2.85,.3-4.19,.92-1.15,.53-2.21,.79-3.25,.79-1.55,0-2.92-.6-4.18-1.85-2.84-2.79-2.55-6.24,.93-10.84,1.92-2.55,2.52-5.87,1.59-8.93-1.23-4.06-1.85-8.3-1.85-12.6,0-5.63,1.13-11.37,3.27-16.58,1.06-2.59,.99-5.51-.2-8.05-1.32-2.82-2.63-6.89,1.3-9.72,1.14-.82,2.37-1.25,3.57-1.25,.73,0,1.45,.14,2.19,.42,1.17,.45,2.39,.67,3.6,.67,1.96,0,3.91-.58,5.58-1.7,.64-.43,1.31-.85,1.99-1.26,3.2-1.91,5.07-5.43,4.86-9.15-.29-5.14,1.28-7.92,4.94-8.77,.57-.13,1.12-.2,1.64-.2,1.14,0,2.17,.31,3.06,.91,1.68,1.14,3.64,1.72,5.62,1.72,1.25,0,2.51-.24,3.71-.71,3.08-1.23,5.35-3.92,6.06-7.16,.13-.58,.27-1.15,.43-1.67,2.02-6.78,4.86-10.22,8.44-10.22,.63,0,1.3,.1,2,.31,2.12,.63,3.46,1.89,4.11,3.85,.28,.85,.43,1.81,.44,2.94,.04,4,2.46,7.59,6.15,9.13,1.24,.52,2.55,.77,3.85,.77,2.55,0,5.06-.98,6.96-2.82,4.01-3.89,6.46-3.89,7.26-3.89,1.36,0,2.66,.52,3.88,1.53,1.69,1.42,2.42,3.11,2.24,5.17-.19,2.12-1.41,4.68-3.63,7.59-2.19,2.88-2.66,6.72-1.22,10.04,1.44,3.32,4.56,5.6,8.17,5.97,1.39,.14,2.61,.79,3.74,2,1.51,1.61,2.04,3.38,1.61,5.4-.51,2.43-2.46,5.24-5.8,8.37-1.33,1.24-3.02,2.49-5.02,3.7-3.5,2.11-5.36,6.14-4.71,10.17,.66,4.03,3.7,7.26,7.69,8.15,4.29,.96,7.79,2.21,10.42,3.73,4.8,2.77,7.67,5.78,8.07,8.47,.27,1.84-.59,3.51-.86,3.98-1.2,2.08-3,3.14-5.35,3.14-1.95,0-4.37-.72-7.18-2.14-1.43-.72-2.98-1.08-4.51-1.08-2.64,0-5.24,1.04-7.17,3.03-3.05,3.13-3.71,7.89-1.63,11.73,.67,1.23,1.21,2.42,1.62,3.54,1.56,4.29,2.03,7.68,1.39,10.08-.53,2-1.8,3.33-3.88,4.09-.8,.29-1.58,.44-2.32,.44-4.27,0-7.08-5.28-8.7-9.7-.06-.16-.11-.32-.17-.48-.93-2.75-3.02-4.97-5.71-6.06-1.21-.49-2.49-.73-3.76-.73-1.57,0-3.13,.37-4.56,1.1-6.15,3.15-13.02,4.81-19.88,4.81-1,0-2.01-.03-3.01-.1-.23-.02-.46-.02-.69-.02-4.96,0-9.22,3.67-9.9,8.66-.73,5.36-1.96,9.84-3.56,12.97-2.92,5.7-6,8.6-9.15,8.6Z"/></g><g><path class="cls-3" d="M1110.44,1217.04c-.96,0-1.92-.25-2.92-.77-.48-.25-2.12-1.19-2.89-2.88-1.12-2.47-.35-6.56,2.18-11.5,1.26-2.46,3.29-5.18,6.04-8.07,1.99-2.1,2.98-4.96,2.7-7.83-.27-2.88-1.78-5.5-4.13-7.18-.41-.29-.81-.59-1.21-.9-1.78-1.37-3.93-2.07-6.09-2.07-1.42,0-2.85,.3-4.19,.92-1.15,.53-2.21,.79-3.25,.79-1.55,0-2.92-.6-4.18-1.85-2.84-2.79-2.55-6.24,.93-10.84,1.92-2.55,2.52-5.87,1.59-8.93-1.23-4.06-1.85-8.3-1.85-12.6,0-5.63,1.13-11.37,3.27-16.58,1.06-2.59,.99-5.51-.2-8.05-1.32-2.82-2.63-6.89,1.3-9.72,1.14-.82,2.37-1.25,3.57-1.25,.73,0,1.45,.14,2.19,.42,1.17,.45,2.39,.67,3.6,.67,1.96,0,3.91-.58,5.58-1.7,.64-.43,1.31-.85,1.99-1.26,3.2-1.91,5.07-5.43,4.86-9.15-.29-5.14,1.28-7.92,4.94-8.77,.57-.13,1.12-.2,1.64-.2,1.14,0,2.17,.31,3.06,.91,1.68,1.14,3.64,1.72,5.62,1.72,1.25,0,2.51-.24,3.71-.71,3.08-1.23,5.35-3.92,6.06-7.16,.13-.58,.27-1.15,.43-1.67,2.02-6.78,4.86-10.22,8.44-10.22,.63,0,1.3,.1,2,.31,2.12,.63,3.46,1.89,4.11,3.85,.28,.85,.43,1.81,.44,2.94,.04,4,2.46,7.59,6.15,9.13,1.24,.52,2.55,.77,3.85,.77,2.55,0,5.06-.98,6.96-2.82,4.01-3.89,6.46-3.89,7.26-3.89,1.36,0,2.66,.52,3.88,1.53,1.69,1.42,2.42,3.11,2.24,5.17-.19,2.12-1.41,4.68-3.63,7.59-2.19,2.88-2.66,6.72-1.22,10.04,1.44,3.32,4.56,5.6,8.17,5.97,1.39,.14,2.61,.79,3.74,2,1.51,1.61,2.04,3.38,1.61,5.4-.51,2.43-2.46,5.24-5.8,8.37-1.33,1.24-3.02,2.49-5.02,3.7-3.5,2.11-5.36,6.14-4.71,10.17,.66,4.03,3.7,7.26,7.69,8.15,4.29,.96,7.79,2.21,10.42,3.73,4.8,2.77,7.67,5.78,8.07,8.47,.27,1.84-.59,3.51-.86,3.98-1.2,2.08-3,3.14-5.35,3.14-1.95,0-4.37-.72-7.18-2.14-1.43-.72-2.98-1.08-4.51-1.08-2.64,0-5.24,1.04-7.17,3.03-3.05,3.13-3.71,7.89-1.63,11.73,.67,1.23,1.21,2.42,1.62,3.54,1.56,4.29,2.03,7.68,1.39,10.08-.53,2-1.8,3.33-3.88,4.09-.8,.29-1.58,.44-2.32,.44-4.27,0-7.08-5.28-8.7-9.7-.06-.16-.11-.32-.17-.48-.93-2.75-3.02-4.97-5.71-6.06-1.21-.49-2.49-.73-3.76-.73-1.57,0-3.13,.37-4.56,1.1-6.15,3.15-13.02,4.81-19.88,4.81-1,0-2.01-.03-3.01-.1-.23-.02-.46-.02-.69-.02-4.96,0-9.22,3.67-9.9,8.66-.73,5.36-1.96,9.84-3.56,12.97-2.92,5.7-6,8.6-9.15,8.6Z"/><path class="cls-3" d="M1110.44,1217.04c-.96,0-1.92-.25-2.92-.77-.48-.25-2.12-1.19-2.89-2.88-1.12-2.47-.35-6.56,2.18-11.5,1.26-2.46,3.29-5.18,6.04-8.07,1.99-2.1,2.98-4.96,2.7-7.83-.27-2.88-1.78-5.5-4.13-7.18-.41-.29-.81-.59-1.21-.9-1.78-1.37-3.93-2.07-6.09-2.07-1.42,0-2.85,.3-4.19,.92-1.15,.53-2.21,.79-3.25,.79-1.55,0-2.92-.6-4.18-1.85-2.84-2.79-2.55-6.24,.93-10.84,1.92-2.55,2.52-5.87,1.59-8.93-1.23-4.06-1.85-8.3-1.85-12.6,0-5.63,1.13-11.37,3.27-16.58,1.06-2.59,.99-5.51-.2-8.05-1.32-2.82-2.63-6.89,1.3-9.72,1.14-.82,2.37-1.25,3.57-1.25,.73,0,1.45,.14,2.19,.42,1.17,.45,2.39,.67,3.6,.67,1.96,0,3.91-.58,5.58-1.7,.64-.43,1.31-.85,1.99-1.26,3.2-1.91,5.07-5.43,4.86-9.15-.29-5.14,1.28-7.92,4.94-8.77,.57-.13,1.12-.2,1.64-.2,1.14,0,2.17,.31,3.06,.91,1.68,1.14,3.64,1.72,5.62,1.72,1.25,0,2.51-.24,3.71-.71,3.08-1.23,5.35-3.92,6.06-7.16,.13-.58,.27-1.15,.43-1.67,2.02-6.78,4.86-10.22,8.44-10.22,.63,0,1.3,.1,2,.31,2.12,.63,3.46,1.89,4.11,3.85,.28,.85,.43,1.81,.44,2.94,.04,4,2.46,7.59,6.15,9.13,1.24,.52,2.55,.77,3.85,.77,2.55,0,5.06-.98,6.96-2.82,4.01-3.89,6.46-3.89,7.26-3.89,1.36,0,2.66,.52,3.88,1.53,1.69,1.42,2.42,3.11,2.24,5.17-.19,2.12-1.41,4.68-3.63,7.59-2.19,2.88-2.66,6.72-1.22,10.04,1.44,3.32,4.56,5.6,8.17,5.97,1.39,.14,2.61,.79,3.74,2,1.51,1.61,2.04,3.38,1.61,5.4-.51,2.43-2.46,5.24-5.8,8.37-1.33,1.24-3.02,2.49-5.02,3.7-3.5,2.11-5.36,6.14-4.71,10.17,.66,4.03,3.7,7.26,7.69,8.15,4.29,.96,7.79,2.21,10.42,3.73,4.8,2.77,7.67,5.78,8.07,8.47,.27,1.84-.59,3.51-.86,3.98-1.2,2.08-3,3.14-5.35,3.14-1.95,0-4.37-.72-7.18-2.14-1.43-.72-2.98-1.08-4.51-1.08-2.64,0-5.24,1.04-7.17,3.03-3.05,3.13-3.71,7.89-1.63,11.73,.67,1.23,1.21,2.42,1.62,3.54,1.56,4.29,2.03,7.68,1.39,10.08-.53,2-1.8,3.33-3.88,4.09-.8,.29-1.58,.44-2.32,.44-4.27,0-7.08-5.28-8.7-9.7-.06-.16-.11-.32-.17-.48-.93-2.75-3.02-4.97-5.71-6.06-1.21-.49-2.49-.73-3.76-.73-1.57,0-3.13,.37-4.56,1.1-6.15,3.15-13.02,4.81-19.88,4.81-1,0-2.01-.03-3.01-.1-.23-.02-.46-.02-.69-.02-4.96,0-9.22,3.67-9.9,8.66-.73,5.36-1.96,9.84-3.56,12.97-2.92,5.7-6,8.6-9.15,8.6Z"/></g></g><g><g><path class="cls-6" d="M240.27,630.98c-1.58,0-4.08-.26-7.54-2.56-5.15-3.4-7.88-8.22-8.62-15.14-.87-8.2,1.41-19.24,6.79-32.81,.45-1.14,.95-2.32,1.48-3.49,4.48-9.94,2-21.64-6.12-28.9-7.23-6.47-11.59-16.59-12.96-30.07-.94-9.29-6.99-17.29-15.68-20.72-2.98-1.18-6.1-1.75-9.19-1.75-5.94,0-11.79,2.11-16.42,6.15-10.36,9.02-18.84,13.59-25.2,13.59-4.73,0-8.51-2.52-11.23-7.49-3.17-5.78-3.5-12.01-1.03-19.05,2.97-8.45,10.18-18.12,21.43-28.76,19.18-18.14,49.65-29.69,61.86-33.82,12.06-4.07,19.14-16.56,16.43-29.01-2.52-11.58-12.78-19.68-24.41-19.68-.86,0-1.73,.04-2.6,.13-4.06,.42-7.87,.63-11.33,.63-16.93,0-27.5-5.17-31.4-15.38-1.72-4.5-1.61-8.42,.34-11.67,3.65-6.08,13.97-10.21,30.67-12.3,3.48-.43,7.39-.65,11.61-.65,26.93,0,60.27,8.78,66.68,10.54,2.19,.6,4.42,.89,6.62,.89,8.02,0,15.72-3.87,20.48-10.66,6.06-8.65,6.03-20.18-.08-28.8-2.97-4.19-5.5-8.25-7.52-12.08-7.15-13.53-10.66-24.07-10.72-32.23-.05-6.7,2.25-11.55,7.03-14.82,2.37-1.62,4.9-2.47,7.34-2.47,6.08,0,12.68,5.08,19.62,15.1,4.68,6.76,12.38,10.77,20.55,10.77,.4,0,.8,0,1.21-.03,8.62-.42,16.42-5.25,20.62-12.78,8.46-15.14,16.51-22.82,23.95-22.82,2.48,0,5.07,.9,7.49,2.62,4.24,3,6.55,7.22,7.04,12.91,.78,9.04,6.41,16.95,14.7,20.66,3.27,1.46,6.75,2.18,10.21,2.18,5.32,0,10.59-1.69,14.99-4.99,4.57-3.42,7.75-3.82,9.75-3.82,3.56,0,6.83,1.67,10,5.11,3.35,3.64,13.56,14.71-4.8,44.59-4.63,7.53-4.93,16.95-.8,24.76,4.13,7.82,12.08,12.87,20.91,13.29,7.75,.37,13.21,2.29,16.21,5.7,2.53,2.87,3.44,6.73,2.8,11.81-.83,6.59-3.87,11.82-9.29,15.98-6.5,5-16.6,8.41-30.01,10.14-2.88,.37-5.96,.56-9.17,.56-7.24,0-15.34-.94-24.09-2.79-1.74-.37-3.48-.54-5.19-.54-10.69,0-20.46,6.89-23.81,17.45-3.89,12.25,2.15,25.45,13.96,30.53,5.42,2.33,10.15,4.99,14.06,7.91,11.61,8.66,18.7,17.75,20.5,26.26,1.05,4.98,.42,10.12-1.89,15.29-4.67,10.46-11.55,10.46-13.81,10.46-3.7,0-8.09-1.32-13.05-3.92-3.66-1.92-7.64-2.86-11.6-2.86-5.64,0-11.24,1.91-15.8,5.62-7.74,6.31-10.98,16.61-8.26,26.21,0,.03,.02,.06,.02,.09,4.03,14.33,5.24,25.65,3.6,33.65-1.35,6.57-4.72,11.16-10,13.65-2.1,.99-4.05,1.47-5.98,1.47-2.84,0-7.14-1.21-11.49-6.97-4.02-5.33-7.7-13.87-10.95-25.4-.25-.9-.49-1.81-.72-2.74-2.08-8.43-8.4-15.18-16.67-17.82-2.49-.79-5.05-1.18-7.6-1.18-5.91,0-11.71,2.09-16.31,6.05-4.66,4.01-9.35,7.61-13.95,10.7-6.14,4.13-10.14,10.77-10.91,18.13-1.88,17.82-4.94,32.19-9.11,42.73-7.53,19.03-15.48,28.68-23.62,28.68Z"/><path class="cls-6" d="M240.27,630.98c-1.58,0-4.08-.26-7.54-2.56-5.15-3.4-7.88-8.22-8.62-15.14-.87-8.2,1.41-19.24,6.79-32.81,.45-1.14,.95-2.32,1.48-3.49,4.48-9.94,2-21.64-6.12-28.9-7.23-6.47-11.59-16.59-12.96-30.07-.94-9.29-6.99-17.29-15.68-20.72-2.98-1.18-6.1-1.75-9.19-1.75-5.94,0-11.79,2.11-16.42,6.15-10.36,9.02-18.84,13.59-25.2,13.59-4.73,0-8.51-2.52-11.23-7.49-3.17-5.78-3.5-12.01-1.03-19.05,2.97-8.45,10.18-18.12,21.43-28.76,19.18-18.14,49.65-29.69,61.86-33.82,12.06-4.07,19.14-16.56,16.43-29.01-2.52-11.58-12.78-19.68-24.41-19.68-.86,0-1.73,.04-2.6,.13-4.06,.42-7.87,.63-11.33,.63-16.93,0-27.5-5.17-31.4-15.38-1.72-4.5-1.61-8.42,.34-11.67,3.65-6.08,13.97-10.21,30.67-12.3,3.48-.43,7.39-.65,11.61-.65,26.93,0,60.27,8.78,66.68,10.54,2.19,.6,4.42,.89,6.62,.89,8.02,0,15.72-3.87,20.48-10.66,6.06-8.65,6.03-20.18-.08-28.8-2.97-4.19-5.5-8.25-7.52-12.08-7.15-13.53-10.66-24.07-10.72-32.23-.05-6.7,2.25-11.55,7.03-14.82,2.37-1.62,4.9-2.47,7.34-2.47,6.08,0,12.68,5.08,19.62,15.1,4.68,6.76,12.38,10.77,20.55,10.77,.4,0,.8,0,1.21-.03,8.62-.42,16.42-5.25,20.62-12.78,8.46-15.14,16.51-22.82,23.95-22.82,2.48,0,5.07,.9,7.49,2.62,4.24,3,6.55,7.22,7.04,12.91,.78,9.04,6.41,16.95,14.7,20.66,3.27,1.46,6.75,2.18,10.21,2.18,5.32,0,10.59-1.69,14.99-4.99,4.57-3.42,7.75-3.82,9.75-3.82,3.56,0,6.83,1.67,10,5.11,3.35,3.64,13.56,14.71-4.8,44.59-4.63,7.53-4.93,16.95-.8,24.76,4.13,7.82,12.08,12.87,20.91,13.29,7.75,.37,13.21,2.29,16.21,5.7,2.53,2.87,3.44,6.73,2.8,11.81-.83,6.59-3.87,11.82-9.29,15.98-6.5,5-16.6,8.41-30.01,10.14-2.88,.37-5.96,.56-9.17,.56-7.24,0-15.34-.94-24.09-2.79-1.74-.37-3.48-.54-5.19-.54-10.69,0-20.46,6.89-23.81,17.45-3.89,12.25,2.15,25.45,13.96,30.53,5.42,2.33,10.15,4.99,14.06,7.91,11.61,8.66,18.7,17.75,20.5,26.26,1.05,4.98,.42,10.12-1.89,15.29-4.67,10.46-11.55,10.46-13.81,10.46-3.7,0-8.09-1.32-13.05-3.92-3.66-1.92-7.64-2.86-11.6-2.86-5.64,0-11.24,1.91-15.8,5.62-7.74,6.31-10.98,16.61-8.26,26.21,0,.03,.02,.06,.02,.09,4.03,14.33,5.24,25.65,3.6,33.65-1.35,6.57-4.72,11.16-10,13.65-2.1,.99-4.05,1.47-5.98,1.47-2.84,0-7.14-1.21-11.49-6.97-4.02-5.33-7.7-13.87-10.95-25.4-.25-.9-.49-1.81-.72-2.74-2.08-8.43-8.4-15.18-16.67-17.82-2.49-.79-5.05-1.18-7.6-1.18-5.91,0-11.71,2.09-16.31,6.05-4.66,4.01-9.35,7.61-13.95,10.7-6.14,4.13-10.14,10.77-10.91,18.13-1.88,17.82-4.94,32.19-9.11,42.73-7.53,19.03-15.48,28.68-23.62,28.68Z"/></g><g><path class="cls-3" d="M240.27,630.98c-1.58,0-4.08-.26-7.54-2.56-5.15-3.4-7.88-8.22-8.62-15.14-.87-8.2,1.41-19.24,6.79-32.81,.45-1.14,.95-2.32,1.48-3.49,4.48-9.94,2-21.64-6.12-28.9-7.23-6.47-11.59-16.59-12.96-30.07-.94-9.29-6.99-17.29-15.68-20.72-2.98-1.18-6.1-1.75-9.19-1.75-5.94,0-11.79,2.11-16.42,6.15-10.36,9.02-18.84,13.59-25.2,13.59-4.73,0-8.51-2.52-11.23-7.49-3.17-5.78-3.5-12.01-1.03-19.05,2.97-8.45,10.18-18.12,21.43-28.76,19.18-18.14,49.65-29.69,61.86-33.82,12.06-4.07,19.14-16.56,16.43-29.01-2.52-11.58-12.78-19.68-24.41-19.68-.86,0-1.73,.04-2.6,.13-4.06,.42-7.87,.63-11.33,.63-16.93,0-27.5-5.17-31.4-15.38-1.72-4.5-1.61-8.42,.34-11.67,3.65-6.08,13.97-10.21,30.67-12.3,3.48-.43,7.39-.65,11.61-.65,26.93,0,60.27,8.78,66.68,10.54,2.19,.6,4.42,.89,6.62,.89,8.02,0,15.72-3.87,20.48-10.66,6.06-8.65,6.03-20.18-.08-28.8-2.97-4.19-5.5-8.25-7.52-12.08-7.15-13.53-10.66-24.07-10.72-32.23-.05-6.7,2.25-11.55,7.03-14.82,2.37-1.62,4.9-2.47,7.34-2.47,6.08,0,12.68,5.08,19.62,15.1,4.68,6.76,12.38,10.77,20.55,10.77,.4,0,.8,0,1.21-.03,8.62-.42,16.42-5.25,20.62-12.78,8.46-15.14,16.51-22.82,23.95-22.82,2.48,0,5.07,.9,7.49,2.62,4.24,3,6.55,7.22,7.04,12.91,.78,9.04,6.41,16.95,14.7,20.66,3.27,1.46,6.75,2.18,10.21,2.18,5.32,0,10.59-1.69,14.99-4.99,4.57-3.42,7.75-3.82,9.75-3.82,3.56,0,6.83,1.67,10,5.11,3.35,3.64,13.56,14.71-4.8,44.59-4.63,7.53-4.93,16.95-.8,24.76,4.13,7.82,12.08,12.87,20.91,13.29,7.75,.37,13.21,2.29,16.21,5.7,2.53,2.87,3.44,6.73,2.8,11.81-.83,6.59-3.87,11.82-9.29,15.98-6.5,5-16.6,8.41-30.01,10.14-2.88,.37-5.96,.56-9.17,.56-7.24,0-15.34-.94-24.09-2.79-1.74-.37-3.48-.54-5.19-.54-10.69,0-20.46,6.89-23.81,17.45-3.89,12.25,2.15,25.45,13.96,30.53,5.42,2.33,10.15,4.99,14.06,7.91,11.61,8.66,18.7,17.75,20.5,26.26,1.05,4.98,.42,10.12-1.89,15.29-4.67,10.46-11.55,10.46-13.81,10.46-3.7,0-8.09-1.32-13.05-3.92-3.66-1.92-7.64-2.86-11.6-2.86-5.64,0-11.24,1.91-15.8,5.62-7.74,6.31-10.98,16.61-8.26,26.21,0,.03,.02,.06,.02,.09,4.03,14.33,5.24,25.65,3.6,33.65-1.35,6.57-4.72,11.16-10,13.65-2.1,.99-4.05,1.47-5.98,1.47-2.84,0-7.14-1.21-11.49-6.97-4.02-5.33-7.7-13.87-10.95-25.4-.25-.9-.49-1.81-.72-2.74-2.08-8.43-8.4-15.18-16.67-17.82-2.49-.79-5.05-1.18-7.6-1.18-5.91,0-11.71,2.09-16.31,6.05-4.66,4.01-9.35,7.61-13.95,10.7-6.14,4.13-10.14,10.77-10.91,18.13-1.88,17.82-4.94,32.19-9.11,42.73-7.53,19.03-15.48,28.68-23.62,28.68Z"/><path class="cls-3" d="M240.27,630.98c-1.58,0-4.08-.26-7.54-2.56-5.15-3.4-7.88-8.22-8.62-15.14-.87-8.2,1.41-19.24,6.79-32.81,.45-1.14,.95-2.32,1.48-3.49,4.48-9.94,2-21.64-6.12-28.9-7.23-6.47-11.59-16.59-12.96-30.07-.94-9.29-6.99-17.29-15.68-20.72-2.98-1.18-6.1-1.75-9.19-1.75-5.94,0-11.79,2.11-16.42,6.15-10.36,9.02-18.84,13.59-25.2,13.59-4.73,0-8.51-2.52-11.23-7.49-3.17-5.78-3.5-12.01-1.03-19.05,2.97-8.45,10.18-18.12,21.43-28.76,19.18-18.14,49.65-29.69,61.86-33.82,12.06-4.07,19.14-16.56,16.43-29.01-2.52-11.58-12.78-19.68-24.41-19.68-.86,0-1.73,.04-2.6,.13-4.06,.42-7.87,.63-11.33,.63-16.93,0-27.5-5.17-31.4-15.38-1.72-4.5-1.61-8.42,.34-11.67,3.65-6.08,13.97-10.21,30.67-12.3,3.48-.43,7.39-.65,11.61-.65,26.93,0,60.27,8.78,66.68,10.54,2.19,.6,4.42,.89,6.62,.89,8.02,0,15.72-3.87,20.48-10.66,6.06-8.65,6.03-20.18-.08-28.8-2.97-4.19-5.5-8.25-7.52-12.08-7.15-13.53-10.66-24.07-10.72-32.23-.05-6.7,2.25-11.55,7.03-14.82,2.37-1.62,4.9-2.47,7.34-2.47,6.08,0,12.68,5.08,19.62,15.1,4.68,6.76,12.38,10.77,20.55,10.77,.4,0,.8,0,1.21-.03,8.62-.42,16.42-5.25,20.62-12.78,8.46-15.14,16.51-22.82,23.95-22.82,2.48,0,5.07,.9,7.49,2.62,4.24,3,6.55,7.22,7.04,12.91,.78,9.04,6.41,16.95,14.7,20.66,3.27,1.46,6.75,2.18,10.21,2.18,5.32,0,10.59-1.69,14.99-4.99,4.57-3.42,7.75-3.82,9.75-3.82,3.56,0,6.83,1.67,10,5.11,3.35,3.64,13.56,14.71-4.8,44.59-4.63,7.53-4.93,16.95-.8,24.76,4.13,7.82,12.08,12.87,20.91,13.29,7.75,.37,13.21,2.29,16.21,5.7,2.53,2.87,3.44,6.73,2.8,11.81-.83,6.59-3.87,11.82-9.29,15.98-6.5,5-16.6,8.41-30.01,10.14-2.88,.37-5.96,.56-9.17,.56-7.24,0-15.34-.94-24.09-2.79-1.74-.37-3.48-.54-5.19-.54-10.69,0-20.46,6.89-23.81,17.45-3.89,12.25,2.15,25.45,13.96,30.53,5.42,2.33,10.15,4.99,14.06,7.91,11.61,8.66,18.7,17.75,20.5,26.26,1.05,4.98,.42,10.12-1.89,15.29-4.67,10.46-11.55,10.46-13.81,10.46-3.7,0-8.09-1.32-13.05-3.92-3.66-1.92-7.64-2.86-11.6-2.86-5.64,0-11.24,1.91-15.8,5.62-7.74,6.31-10.98,16.61-8.26,26.21,0,.03,.02,.06,.02,.09,4.03,14.33,5.24,25.65,3.6,33.65-1.35,6.57-4.72,11.16-10,13.65-2.1,.99-4.05,1.47-5.98,1.47-2.84,0-7.14-1.21-11.49-6.97-4.02-5.33-7.7-13.87-10.95-25.4-.25-.9-.49-1.81-.72-2.74-2.08-8.43-8.4-15.18-16.67-17.82-2.49-.79-5.05-1.18-7.6-1.18-5.91,0-11.71,2.09-16.31,6.05-4.66,4.01-9.35,7.61-13.95,10.7-6.14,4.13-10.14,10.77-10.91,18.13-1.88,17.82-4.94,32.19-9.11,42.73-7.53,19.03-15.48,28.68-23.62,28.68Z"/></g></g></svg>