<?xml version="1.0" encoding="UTF-8"?><svg id="_レイヤー_1" xmlns="http://www.w3.org/2000/svg" viewBox="0 0 65.52 62.89"><defs><style>.cls-1{fill:none;}.cls-1,.cls-2{stroke:#000;stroke-linecap:round;stroke-linejoin:round;stroke-width:3px;}.cls-2{fill:#22b573;}</style></defs><path class="cls-2" d="M5.53,44.74c5.59,10.62,18.76,20.63,29.38,15.04,1.77-.93,6.07-8.49,5.17-9.5l-5.5-6.15c-5.03-5.26-3.21-3.96-8.94,.19-3.13,1.44-8.56-2.43-9.5-5.17-1.72-2.33-1.84-9,1.12-10.76,6.66-2.38,6.71-.14,5.22-7.27l-1.96-8.01c-.32-1.32-8.99-2.05-10.76-1.12C-.86,17.59-.06,34.12,5.53,44.74Z"/><path class="cls-1" d="M46.44,38.49c1.22-10.99-4.46-20.62-12.7-21.53"/><path class="cls-1" d="M54.83,39.92c1.77-15.93-7.47-30.01-20.66-31.47"/><path class="cls-1" d="M63.78,40.92C65.97,21.14,53.07,3.51,34.94,1.5"/></svg>