<?xml version="1.0" encoding="UTF-8"?><svg xmlns="http://www.w3.org/2000/svg" viewBox="0 0 70.22 70"><defs><style>.cls-1{fill:#fff;}.cls-2{stroke:#000;}.cls-2,.cls-3,.cls-4{stroke-miterlimit:10;}.cls-2,.cls-5{stroke-width:.5px;}.cls-3{fill:#666;}.cls-3,.cls-4,.cls-5{stroke:#fff;}.cls-5{stroke-linecap:round;stroke-linejoin:round;}</style></defs><g id="_レイヤー_2"><rect x=".22" width="70" height="2"/><rect y="3" width="70" height="1"/><rect y="66" width="70" height="1"/><rect x=".22" y="68" width="70" height="2"/></g><g id="_レイヤー_1"><g><rect x=".22" y="5" width="70" height="60"/><g><path id="_白" class="cls-1" d="M40.41,23.64s-.04-.02-.06-.02c-.02,0-.03,0-.05,0-.03-.14-.06-.28-.1-.42l.17,.17c.02,.08,.02,.17,.04,.26Z"/><g id="_右前"><path class="cls-1" d="M23.62,26.52s-.04-.02-.05-.02h-.03s.02-.06,.02-.09l.06,.11Z"/><path class="cls-1" d="M29.77,29.83s-.03,.07-.05,.1l-1.96-3.22s.05,0,.06-.02c.05-.02,.07-.05,.08-.09h0c.08,0,.24,.11,.33,.16,.06,.04,.12,.08,.17,.09,.33,1.03,.79,2.02,1.38,2.98Z"/><path d="M29.61,30.16c-1.41,2.8-2.17,3.91-2.41,4.01,0-.05-.03-.17,0-.45,0-.05-.03-.11-.08-.14-.17-.06-.27,.11-.35,.23-.04,.05-.1,.14-.13,.15l-.04,.04c-.64,.66-1.15,1.18-1.54,1.6,0-.02,0-.03,0-.04,.05-.05,.08-.14,.05-.2-.02-.05-.08-.08-.14-.08-.1,0-.25,.11-.29,.2,0,.03-.02,.04,0,.07-.02,0-.04,.02-.05,.04-.02,.02-.05,.05-.05,.06l-.02,.02c-.17,.36-.44,.64-.72,.94-.2,.23-.42,.46-.61,.73-.08,.14-.14,.22-.18,.26-.02-.09-.02-.23-.03-.35-.03-.39-.05-.83-.27-1.02-.04-.05-.08-.05-.13-.03-.05,.02-.08,.05-.08,.11-.27,2.05-2.04,2.47-3.82,2.72h0c-.69,.17-1.17,.23-1.51,.23,.05-.04,.08-.09,.05-.15,0-.02-.02-.03-.04-.05,.02-.03,.03-.06,.05-.09,.04-.08,.09-.14,.14-.23,.02-.04,.05-.07,.08-.1,.06,.02,.12,0,.15-.06,.05-.12,.11-.24,.02-.32-.03-.02-.11-.06-.2,.02-.04,.04-.61,.71-.47,.92,0,0,.02,.02,.03,.04h0c-.29-.04-.42-.13-.48-.23-.39-.66,1.45-2.63,2.32-3.59,.22-.24,.41-.44,.54-.6,0,0,.02-.02,.02-.02l.33-.59c1.43-2.57,3.01-5.41,3.6-7l.3,.55s.07,.08,.11,.08c.02,0,.05,0,.06-.02,.07-.03,.09-.11,.05-.17l-.31-.58s.05-.03,.06-.07c.03-.05,0-.13-.05-.16l-.09-.05s0-.04,.02-.04h.08c.06,0,.12-.05,.12-.11l.69,1.15v.04c0,.06,.06,.13,.13,.13s.13-.07,.13-.13v-.08h0s0-.02,0-.02,0-.02,0-.03h0l-.89-1.51c.14,.02,.28,.04,.42,.06h0s1.32,2.08,1.32,2.08c.02,.03,.06,.06,.11,.06,.02,0,.05,0,.07-.03,.06-.03,.08-.11,.04-.17l-1.21-1.92c.11,.02,.21,.04,.32,.05l.2,.02,1.67,2.79s.07,.07,.11,.07c.02,0,.05,0,.06-.02,.06-.04,.08-.12,.05-.17l-1.57-2.61c.14,.02,.31,.05,.48,.06l2.07,3.44s.06,.06,.11,.06c.02,0,.05,0,.07-.02,.06-.04,.08-.12,.05-.17l-1.98-3.3c.08,0,.17,0,.26,.02h.17s0,.02,0,.02l2.51,4.14s.07,.06,.11,.06c.02,0,.05,0,.07-.02,0-.02,.02-.02,.03-.03,.03-.04,.04-.1,0-.14l-2.44-4.03c.2,.02,.39,.02,.56,.07h0l2.13,3.53s.05,.05,.08,.06Z"/><path class="cls-1" d="M16.47,37.98c.02-.23,.04-.38,0-.48,0,0,0,0,0-.02,0-.02,.02-.12,.23-.33,.23-.22,.51-.39,.71-.48-.39,.48-.73,.93-.94,1.33,0-.02,0-.02,0-.03Z"/></g><path class="cls-1" d="M40.52,24.56h0c-.05-.2-.08-.39-.13-.58v-.02l.08,.08c.02,.16,.04,.34,.06,.51Z"/><path d="M42.52,31.81c-.77-.35-1.57-.77-2.26-1.29-.02-.52-.06-1.03-.14-1.54,.11,.26,.23,.51,.3,.77,0,.02,.02,.03,.03,.05,0,0,0,0,0,0-.02,.04,0,.08,.03,.11l2.02,1.88Z"/><path class="cls-1" d="M44.07,32.4c-.27-.09-.57-.2-.87-.32l-2.43-2.26c.06-.08,.07-.21,.08-.38l3.22,2.95Z"/><path class="cls-1" d="M58.8,35.18c-.4-.2-.89-.55-1.23-.78l-.11-.08s-.03-.02-.05-.02c-.05-.02-.12-.05-.17-.08,.02-.05,.03-.09,.05-.14,.05-.14,.11-.3,.17-.44l1.33,1.53Z"/><path class="cls-1" d="M59.96,35.7c-.2-.12-.42-.23-.66-.31,0-.02-.02-.03-.02-.04l-1.64-1.88s-.05-.04-.07-.05c.05-.11,.11-.23,.17-.35l2.21,2.63Z"/><path class="cls-1" d="M63.33,28.74l-.46-.67-.04-.04c.08-.11,.17-.24,.24-.35,.06,.35,.14,.7,.26,1.05Z"/><path class="cls-1" d="M66.14,19.47c-.11,.46-.29,.74-.51,.8-.24,.08-.73-.11-.92-.3-.02-.03-.05-.04-.07-.04-.02-.18-.05-.37-.09-.56-.14-.67-.35-1.33-.67-1.99-.26-.61-.55-1.16-.88-1.66l-.07-.15s.02,0,.02-.02c.1-.07,.16-.14,.21-.19,.02-.02,.05-.05,.06-.07,0,0,.02,0,.03,.03,.04,.02,.08,.04,.12,.02,.02,0,.05-.02,.12-.05,.16-.07,.63-.28,.83-.26l.53,.53s.06,.02,.09,.02h0c.09,0,.44,.3,.74,.82,.23,.39,.7,1.39,.17,2.25-.02,.05-.02,.1,0,.14,.17,.27,.3,.58,.27,.67Z"/><path id="_白-2" class="cls-2" d="M63.55,17.55c-2.66-6.18-8.74-6.34-14.71-6.42-2.93-.05-5.94-.09-8.54-.85,.11,.08,.23,.18,.39,.29,.05,.05,.1,.08,.15,.12,.42,.24,.8,.45,1.03,.59,.19,.11,.31,.18,.39,.23h.02c.11,.08,.1,.1,.07,.17-.02,.02-.03,.05-.06,.06-.23,.13-.69-.18-1.57-.85-1.48-.85-1.81-1.06-1.85-1.18-.39-.19-.76-.35-1.11-.49-.37-.19-.79-.29-1.21-.39-.4-.1-.81-.2-1.17-.36l-.12-.04c-.72-.19-1.54-.4-2.32-.21-.45,.15-.92,.22-1.38,.3-.36,.05-.72,.11-1.06,.2-1.16,.51-2.42,.89-3.66,1.26-.7,.22-1.44,.44-2.13,.67,0,0,0,0,0,0-.86,.21-1.49,.54-2.1,.85-.77,.41-1.51,.79-2.61,.92-.52,.14-1.03,.29-1.54,.42-1.44,.41-2.79,.79-4.22,1.07-.17,.09-.35,.17-.52,.25-.05,.02-.08,.03-.12,.05-.05,.02-.08,.02-.12,.05h0c-.57,.24-1.18,.48-1.82,.73-1.24,.47-2.52,.97-3.75,1.61,0,0-.02,.02-.02,.02-.08,.05-.31,.31-.36,.39-.03,.09-.14,.35-.26,.42-.02,0-.03,.02-.05,.02-1.02,.85-2.07,1.98-2.79,2.81,.21-.02,.49,0,.64,.07,.14-.02,.24,.05,.3,.15,.17,.3-.07,.95-.21,1.12-.06,.07-.11,.08-.16,.08h-.05s-.08,0-.11-.02h0s-.07,.05-.1,.05c-.05,0-.08-.03-.09-.04,0,.02,.03,.05,.05,.06,0,0,0,.02,0,.02,.04,.03,.07,.08,.11,.12l.13,.13s.08,.07,.12,.11c0,0,0,0,.02,0,.03,.04,.06,.07,.09,.09h.02s0,0,0,.02c0,0,0,0,.02,0,.08,0,.23,.02,.27,0,.02-.02,.05-.03,.08-.04,.02-.02,.07-.05,.11-.05l.1,.02c.1-.02,.21-.02,.33-.02,.19,0,.41,0,.55-.05,.04,0,.07-.03,.1-.05,.06-.05,.14-.02,.17,.03,.05,.05,.04,.12-.02,.17-.05,.04-.1,.08-.17,.09-.31,.14-.66,.11-.97,.08h0c-.07,0-.13,0-.17,.04-.02,0-.02,0-.04,0,.32,.2,.67,.34,1.04,.38,.04,0,.08,.03,.09,.06,.06,.02,.21,0,.28,0,.11,0,.17,0,.21,0,.05,.02,.11,.04,.16,.05,.07,.04,.2,.08,.23,.05,0,0,.02,0,.03-.02,.19-.08,.83-.1,1-.08,1.81-.06,4.47-.03,6.9,.45,.02,0,.04,0,.06,.02,1.46,1.23,3.49,1.95,6.18,2.17,0,0,.02,0,.02,0,.71,.18,1.46,.29,2.21,.39,.31,.05,.61,.09,.92,.13l.42,.05h.02c.29,.08,.7,.09,1.1,.1,.5,0,1.01,0,1.36,.17,.02-.02,.05-.04,.07-.05,.14-.08,.32,.02,.5,.14-.14-.48-.25-.95-.33-1.45-.04-.18-.06-.36-.08-.55-.02-.16-.04-.32-.05-.48-.02-.25-.05-.51-.05-.76,0-.08,.05-.14,.12-.14s.12,.05,.13,.11t0,.02c0,.2,.02,.43,.04,.64,.02,.3,.06,.59,.11,.89,.02,.19,.05,.37,.09,.56,.08,.44,.2,.88,.33,1.31,.02,.04,.02,.08,.04,.11,.02,.05,.03,.09,.04,.13,.3,.89,.69,1.76,1.19,2.6,.11,.19,.23,.37,.35,.55,.17,.26,.3,.6,.41,.92,.21,.58,.41,1.13,.9,1.28,.07,.02,.11,.09,.08,.16-.02,.07-.09,.1-.16,.08l-.13-.04c.09,.61,.17,1.36,.18,2.07,.02,0,.02,.03,.03,.05l2.14,3.89c.03,.05,0,.14-.05,.17-.02,0-.04,.02-.06,.02-.05,0-.09-.02-.11-.07l-1.95-3.55c0,.21-.02,.42-.05,.61,.06-.02,.12,0,.15,.07l1.2,2.32c.03,.06,0,.14-.06,.17-.02,0-.04,.02-.05,.02-.05,0-.09-.03-.11-.08l-1.14-2.2s-.03-.02-.04-.04c-.05,.14-.09,.32-.13,.48,.03,.02,.06,.05,.08,.08l.81,1.51c.04,.06,.02,.14-.05,.17-.02,0-.05,.02-.06,.02-.05,0-.09-.02-.11-.07l-.74-1.37c-.02,.1-.03,.18-.05,.28-.02,.17-.05,.32-.08,.42,0,.05-.03,.08-.07,.09-.03,0-.08,0-.11,0-.7-.3-2.1,.43-2.53,1.33-.16,.33-.22,.75,.2,1.12,0-.03,0-.05,0-.08,.05-.33,.81-1.09,1.1-1.09h0s.02,0,.03,0c.05,0,.08,0,.08,.04,.03,.03,.05,.06,.06,.12,0,.07-.05,.12-.11,.13-.04,.02-.08,0-.1-.02-.02,.02-.05,.02-.09,.05-.24,.15-.69,.61-.72,.79,0,0,0,0,0,.02,.06,.02,.1,.09,.08,.15-.02,.04-.04,.05-.07,.08,.02,0,.02,.02,.04,.02,.2,.09,.36,.19,.49,.26,.2,.11,.33,.19,.5,.23,.08-.29,.57-1.06,.95-1.12,.08-.02,.23,0,.34,.18,.03,.07,0,.14-.05,.17-.05,.04-.12,.02-.16-.02,0,0,0-.02-.02-.03-.03-.05-.06-.05-.08-.05-.19,.03-.48,.42-.64,.7h.02s.46,.1,.46,.1c.06,.02,.11,.08,.11,.14,0,.05-.04,.1-.1,.12-.11,.02-.21,.05-.3,.06,.48,.48,1.2,.35,1.91,.23,.1-.02,.2-.03,.3-.05h0c3.11-.15,4.97-2.12,5.85-6.21h0v-.08c-.02-.28-.02-.43,.1-.48,.04,0,.12-.02,.19,.07,.02,.02,.02,.04,.02,.05,.11,.42,.52,1.36,.7,1.47,.02-.02,.04-.08,.06-.19,.45-2.39,.59-4.28,.43-6.01-.05-.55-.13-1.08-.24-1.61-.02-.06,.02-.14,.08-.14,.07-.03,.14,0,.16,.06,.08,.18,.16,.36,.25,.55,.14,.28,.27,.58,.39,.87,0-.15,.02-.3,.07-.39,.11-1.39-.07-2.79-.35-4.17-.17-.85-.38-1.69-.59-2.52-.04-.05-.08-.14-.15-.3-.02-.03-.03-.07-.05-.11-.02,0-.04,.02-.05,.02-.07,0-.12-.05-.13-.11h0c0-.11,0-.27,.13-.31,.14-.02,.2,.13,.34,.42,.04,.09,.1,.23,.12,.24,.02,.03,.03,.05,.04,.07,.05,.19,.09,.38,.14,.57,.02,0,.03,0,.05,.02,.02,0,.04-.02,.06-.02h.08c-.02-.14-.05-.26-.06-.36,0-.02,0-.05-.02-.09h-.02c-.07,0-.12-.05-.12-.14,0-.11,.02-.29,.17-.29,.11,0,.19,0,.37,1.32l.94,.9s.05,.14,0,.19c-.02,.02-.05,.04-.09,.04-.03,0-.06-.02-.09-.04l-.71-.68c.02,.08,.02,.17,.04,.26l.73,.74,.88,.86c.05,.06,.05,.14,0,.18-.03,.04-.06,.05-.09,.05-.04,0-.07,0-.09-.05l-1.01-.99-.38-.38s0,.09,.02,.14c.02,.1,.02,.2,.03,.29,0,.02,0,.05,0,.05l1.89,1.8,.28,.26s.05,.1,.02,.14c0,.02-.02,.03-.02,.04-.02,.02-.05,.04-.09,.04-.03,0-.06-.02-.08-.04l-1.95-1.85c.02,.17,.04,.35,.05,.52l1.54,1.44,1.06,.99s.04,.05,.04,.08c0,.04,0,.08-.03,.11-.02,.02-.06,.04-.09,.04s-.06,0-.09-.03l-.88-.82-.11-.1-1.41-1.32c.02,.18,.04,.36,.05,.53l3.08,2.96c.05,.05,.05,.14,0,.17-.02,.04-.05,.04-.09,.04-.03,0-.06,0-.09-.02l-2.86-2.76c.02,.2,.03,.4,.05,.58l3.25,3.13c.05,.05,.05,.12,0,.17-.02,.03-.05,.04-.09,.04-.03,0-.06,0-.09-.04l-3.04-2.92c0,.08,.02,.19,.02,.26,0,.1,0,.19,.02,.28l3.56,3.27c.05,.05,.06,.13,0,.18-.02,.02-.05,.04-.09,.04-.03,0-.06,0-.08-.03l-3.38-3.1c0,.23-.05,.26-.14,.28,0,0-.02,0-.02,0-.02,0-.03,0-.05,0l3.64,3.32s.03,.04,.04,.06c.11,.04,.21,.06,.32,.1,.02-.1,0-.15-.03-.19-.02-.05-.05-.1-.02-.17,.03-.08,.11-.11,.18-.14,.04-.02,.08-.02,.11,0,.04,.02,.06,.06,.06,.1,0,0,.02,0,.05,.02,.04,.02,.09,.04,.13,.08,.85,.39,1.73,.76,2.54,.76h.02s.02-.04,.02-.05c.03-.04,.06-.05,.11-.05,.21,0,.55,0,.76-.03,.05-.26,.11-.53,.21-.77v-.07c-.05-1.1,.34-2.1,.73-3.09,.08-.2,.15-.39,.22-.58,.21-.69,.45-1.36,.72-2.02,.5-1.23,1.1-2.43,1.82-3.59,.02-.03,.03-.07,.05-.11,.04-.05,.11-.07,.17-.03,.06,.03,.08,.11,.05,.17-.76,1.24-1.4,2.51-1.92,3.83-.23,.6-.45,1.2-.64,1.83-.08,.2-.15,.39-.23,.6-.38,.95-.76,1.95-.7,2.99v.07s0,.04-.02,.05c-.06,.17-.11,.35-.16,.52-.02,.07-.02,.13-.04,.18,0,.08-.02,.14-.04,.23-.05,.39-.08,.8-.08,1.26t.02,0s.07,.08,.06,.14c-.02,.07-.05,.3-.07,.45,0,.06,0,.12,0,.18,0,.05-.04,.1-.09,.12,0,0,0,0-.02,0,0,0,0,.02,0,.04,.06-.02,.12,0,.16,.05l1.51,2.26c.04,.06,.02,.14-.04,.18-.02,0-.05,.02-.07,.02-.05,0-.08-.02-.11-.07l-1.48-2.22s0,.09-.02,.14c-.02,.14-.03,.26-.05,.39,.02,.02,.05,.02,.06,.04l.76,1.07c.04,.05,.03,.14-.03,.18-.02,.02-.05,.02-.08,.02-.04,0-.08-.02-.11-.05l-.66-.92c-.02,.08-.03,.17-.05,.26,.02,.1,0,.2-.03,.29-.02,.08-.05,.14-.03,.18,0,0,0,.03,0,.04,0,.02,0,.04,0,.05,0,.02,0,.06-.02,.1-.05,.08-.09,.15-.16,.17-.05,.05-.11,.09-.19,.08-.05,0-.08-.03-.11-.07-.64-.48-1.39-.17-1.68,0-.66,.37-1.1,1.01-1.04,1.54,.02,.19,.11,.37,.26,.51,0-.02,0-.05,0-.06,.14-.55,.86-1.04,1.51-1.04h.04s.05,.02,.07,.02c.05,.05,.07,.1,.08,.17,.02,0,.05,0,.08,.02,.06,.05,.07,.13,.03,.19-.02,.03-.1,.14-.21,.11-.05,0-.08-.04-.11-.08-.02-.05-.03-.11-.04-.16-.47,.03-.99,.37-1.16,.73-.02,.04-.03,.07-.04,.11-.02,.05-.07,.1-.12,.1,.14,.1,.3,.18,.51,.24,2.53,.56,5.41,.65,8.11,.25,.05,0,.1-.02,.13-.02-.06-.04-.14-.08-.2-.11-.05-.03-.09-.05-.13-.08-.07,.04-.12,.03-.15,.02-.11-.07-.11-.21-.1-.26,0-.05,.05-.1,.09-.11,.05-.02,.11,0,.14,.05,.05-.07,.08-.14,.09-.17-.02-.05,0-.11,.05-.14,0,0,0-.02,0-.03,0-.06,.02-.15,.09-.2,.21-.49,.3-.95,.39-1.49l.03-.21c.02-.05,.06-.1,.12-.1,.05,0,.11,.03,.13,.09,.02,.04,.03,.05,.04,.08,.06-.05,.26-.31,.64-1.55v-.03c.02-.05,.07-.08,.11-.09,.05,0,.11,.02,.13,.07,.22,.37,.31,.39,.31,.39,.09-.04,.2-.51,.3-.89,.14-.58,.33-1.36,.7-2.13,.2-.43,.47-.86,.82-1.26,0-.02,.02-.02,.03-.02,.73-.45,1.82-1.39,2.84-2.45,.11-.11,.23-.24,.34-.36,.62-.67,1.19-1.38,1.6-2,0-.02,0-.03,.02-.08,0-.02,0-.03,.02-.05,.02-.04,.03-.07,.05-.11,.42-1.13,2.17-6.09,.51-9.46Zm-12.19,20.64s-.02,0-.03,0c-.03,.02-.06,0-.08-.02,0,0-.02,0-.02-.02-.02-.02-.02-.03-.03-.04l-.95-1.64c-.03-.06-.07-.14,0-.17,.07-.03,.13,.02,.17,.08,0,0,.06,.09,.14,.24,.26,.42,.79,1.3,.83,1.39,.04,.12-.03,.16-.03,.16Z"/><path d="M67.48,36.67c0,.2,0,.39-.05,.61-.11,.48-.27,.72-.55,.76-.03,0-.06,0-.09,0-.05,0-.11,0-.16-.02-.02,0-.05,0-.08,0-.04,.02-.06,.06-.08,.11,0,.06,.04,.14,.11,.14,.07,.02,.13,.02,.18,.02-.17,.12-.38,.23-.62,.31-.07,.03-.14,.05-.23,.08-.17,.06-.37,.11-.57,.14-.02,0-.03,0-.05,0-.05,.02-.1,.02-.14,.03-.02,0-.03,0-.05,0-.12,.02-.24,.02-.36,.03-.88,.07-1.82-.05-2.48-.37-.02,0-.03-.02-.04-.02-.06,0-.11,0-.17-.02-.06,0-.11,0-.17,0-.24-.02-.5-.03-.73-.13-.1-.02-.2-.05-.3-.05-.18-.02-.33-.05-.43-.18-.02-.02-.03-.03-.05-.05-.12-.05-.17-.15-.17-.3,.02-.27,.24-.61,.45-.7,.05,0,.09-.06,.13-.1,.07-.1,.13-.16,.17-.2l.02,.02,.39,.38,.03,.05h0s.07,.05,.1,.05l.16,.16s.08,.03,.12,.02c0,0,0,0,.02,0,.04-.02,.06-.05,.08-.08,0-.06,.02-.14-.03-.21-.05-.08-.13-.08-.18-.09,0,0-.02,0-.03,0l-.53-.5s-.04-.05-.07-.07c-.08-.07-.17-.14-.25-.21-.25-.19-.5-.37-.76-.52h.02s.02,0,.02,0h.02s.06,0,.08-.02c.05-.06,.06-.13,.02-.18l-2.26-2.69c.07-.1,.14-.21,.21-.3,0,0,0,0,0-.02,.02,0,.03,0,.05,0l1.99,2.54s.05,.05,.09,.05h0s.05-.02,.08-.04c.06-.05,.07-.11,.02-.18l-2.05-2.61s.02-.02,.03-.04c.09-.05,.18-.11,.28-.17,.02,0,.02-.02,.04-.02l1.69,2.26s.06,.05,.1,.05h0s.05,0,.08-.03c.05-.04,.07-.12,.02-.17l-1.69-2.25c.08-.06,.17-.12,.24-.18,.02,0,.02-.02,.04-.02t.02,.02l1.51,1.95s.06,.05,.1,.05c0,0,.02,0,.02,0,.02,0,.05,0,.06-.02,.05-.05,.06-.13,.02-.18l-1.51-1.95s-.02,0-.02-.02c.08-.07,.16-.13,.25-.2,0,0,.02-.02,.03-.02l1.42,1.71s.05,.05,.08,.05h.02s.06,0,.08-.02c.05-.05,.06-.12,.02-.18l-1.42-1.72c.09-.07,.17-.14,.26-.21,0,0,.02-.02,.03-.02l1.25,1.61s.06,.05,.1,.05h0s.05-.02,.08-.03c.05-.05,.07-.12,.02-.19l-1.26-1.61c.1-.08,.19-.17,.28-.25,0-.02,.02-.02,.03-.03l1.16,1.53s.06,.04,.1,.04h0s.02,0,.03,0c.02,0,.03,0,.05,0,.05-.05,.07-.14,.02-.18l-1.17-1.54c.08-.08,.16-.14,.23-.22,0,0,.02-.02,.03-.03l.35,.41,.7,.82s.05,.05,.08,.05h.02s.06,0,.08-.02c.05-.05,.06-.13,.02-.18l-1.07-1.24c.06-.06,.11-.11,.17-.17,0,0,.02-.02,.03-.03l.69,.83,.23,.28s.07,.05,.1,.05,.06-.02,.08-.03c.05-.05,.06-.13,.02-.18l-.94-1.13c.08-.07,.15-.14,.21-.23,.02,0,.02-.02,.03-.03l.88,1.05s.06,.05,.1,.05c.03,0,.06,0,.08-.04,.05-.05,.06-.12,.02-.17l-.9-1.07c.08-.1,.17-.2,.25-.29,0-.02,.02-.02,.02-.03l.87,1.04s.06,.05,.1,.05c.02,0,.02,0,.04,0,.02,0,.03,0,.05,0,.05-.05,.06-.13,.02-.18l-.91-1.09c.07-.08,.14-.17,.2-.26,.02-.02,.02-.02,.03-.04l.55,.78s.05,.05,.1,.05h0s.02,0,.02,0c.02,0,.03,0,.05,0,.02,0,.02-.02,.03-.04,.49,1.4,1.29,2.69,2.08,3.97,.31,.5,.64,1.01,.92,1.51,0,0,0,.02,.02,.02,.16,.2,.36,.48,.54,.78,.23,.41,.42,.88,.45,1.36Z"/><g id="_耳とか"><path class="cls-3" d="M51.39,38.03c.04,.12-.03,.16-.03,.16,0,0-.02,0-.03,0-.03,.02-.06,0-.08-.02,0,0-.02,0-.02-.02-.02-.02-.02-.03-.03-.04l-.95-1.64c-.03-.06-.07-.14,0-.17,.07-.03,.13,.02,.17,.08,0,0,.06,.09,.14,.24,.26,.42,.79,1.3,.83,1.39Z"/><path class="cls-4" d="M10.31,17.87c-.02,.17-.05,.3-.08,.4-.03,.1-.08,.17-.12,.19-.01,0-.03,0-.04,0-.02,0-.05,0-.08-.03-.01,0-.03-.03-.04-.04-.01-.03-.03-.05-.05-.08-.02,0-.03-.03-.05-.05h-.03s0,0,0,0c-.01,0-.02,0-.03-.02-.02-.03-.03-.03-.05-.09-.03-.12,.01-.24,.03-.28v-.03s.02-.09,.03-.13c0-.04,.01-.09,.03-.12,.01-.03,.02-.07,.03-.1s.02-.04,.04-.04c.02,0,.04,0,.05,.03,.01,0,.03-.02,.04-.03,.01,0,.02,0,.03,0,.02,0,.04,0,.07,0,.01,0,.02,0,.04,0,.02,0,.04,0,.06,0,.02,0,.04,.02,.05,.03,0,0,.01,0,.02,.02,0,0,.01,0,.02,.02,.01,0,.02,.02,.03,.03v.03s.02,.03,.02,.03c0,.02,0,.03,0,.04,0,.02,0,.03,0,.04,0,0,0,.02,0,.03,0,0,0,0,0,0,0,.03,.01,.08,0,.12Z"/><path class="cls-3" d="M15.79,17.44s-.05,.08-.07,.13c-.02,.05-.03,.1-.04,.16v.02c-.11,.42-.35,.88-.71,.92-.02,0-.04,0-.06,0-.02,0-.03,0-.05,0-.02,0-.04,0-.05,0-.03,0-.07-.02-.11-.04-.05-.02-.1-.06-.16-.11-.04-.04-.08-.08-.11-.12-.05-.05-.1-.12-.14-.2-.02-.02-.03-.04-.05-.05l-.05,.02s-.08,0-.13-.03c0,0,0,0,0,0-.05-.04-.06-.12-.02-.17,.02-.02,.04-.04,.06-.05h.02s.02-.03,.04-.03c0,0,.02-.02,.03-.02,0,0,.02,0,.03,0,.1-.02,.18,.06,.28,.19t.02,0h0c.14,.26,.3,.39,.42,.37,.19-.03,.39-.33,.5-.73,.02-.17,.08-.29,.13-.38,.02-.03,.03-.06,.04-.08,0-.02,0-.03,0-.04-.02-.13-.07-.26-.14-.38-.04-.08-.09-.16-.14-.24-.05-.08-.11-.16-.17-.24-.03-.04-.06-.08-.09-.11,0,0,0-.02,0-.02-.23-.41-.71-.23-1.26,.03-.08,.03-.14,.06-.21,.09h0s-.08,.02-.11-.02c-.02,0-.04-.03-.05-.05-.02-.07,0-.14,.07-.17,.07-.03,.13-.06,.2-.09,.48-.23,1.23-.56,1.59,.08,.25,.32,.5,.66,.58,1.05,.06,.11,0,.22-.05,.31Z"/></g><path id="_枠" class="cls-5" d="M66.65,34.38c-.3-.5-.61-1.01-.92-1.51-1.12-1.8-2.28-3.67-2.48-5.75,.69-1.44,1.7-4.07,1.44-6.84,.28,.19,.65,.27,.86,.27,.06,0,.11,0,.17-.03,.31-.08,.55-.43,.67-.98,.05-.23-.16-.64-.26-.81,.54-.98,.02-2.05-.23-2.48-.25-.42-.63-.85-.9-.89l-.52-.52s-.04-.02-.06-.03c-.23-.06-.63,.1-1.02,.26-.02,0-.03,.02-.04,.02-.18-.11-.3,.02-.38,.11-.05,.05-.09,.11-.17,.15-.02,0-.03,.03-.04,.05-3.1-4.36-8.6-4.44-13.94-4.53-3.31-.05-6.73-.1-9.5-1.17-.52-.28-1.07-.51-1.49-.7-.39-.2-.83-.31-1.26-.41-.41-.1-.79-.19-1.13-.34,0,0-.02,0-.02-.02l-.13-.03c-.75-.2-1.6-.42-2.46-.23-.43,.16-.89,.23-1.34,.3-.36,.05-.73,.11-1.1,.21h-.02c-1.14,.51-2.41,.89-3.63,1.26-.7,.21-1.44,.44-2.13,.68-.88,.21-1.53,.55-2.15,.87-.76,.39-1.48,.76-2.54,.88h-.02c-.52,.14-1.04,.29-1.54,.43-1.44,.42-2.8,.79-4.22,1.08h-.03c-.18,.09-.36,.18-.55,.26-.14-.14-.36-.22-.55-.28-.14-.05-.26-.09-.34-.15-.02-.02-.04-.02-.05-.02-.36-.06-.67,0-1.01,.08-.07,.02-.14,.02-.23,.05-.16,0-.31,.14-.45,.43-.07,.14-.32,.78-.15,.96,0,.02,.02,.02,.04,.03-1.01,.39-2.05,.82-3.06,1.34-.05,.02-.11,.08-.19,.14-.25,.26-.32,.38-.33,.42-.02,.05-.08,.19-.13,.24-.02,.02-.05,.02-.07,.04-1.29,1.05-2.63,2.59-3.32,3.41-.03,.04-.04,.09-.02,.14,.45,1.01,1.48,2.17,2.71,2.33,.09,.09,.3,.08,.48,.07,.04,0,.09-.02,.11-.02,0,0,.02,.02,.02,.02,.04,0,.08,.02,.13,.03,.14,.05,.32,.12,.46,.02,.16-.06,.74-.08,.86-.05h.03c1.79-.07,4.41-.03,6.81,.43,1.51,1.26,3.57,1.98,6.3,2.2,.55,.14,1.11,.24,1.69,.33,0,.02-.02,.05-.02,.07,.1,.88-2.06,4.75-3.79,7.87l-.33,.58c-.13,.16-.32,.36-.53,.59-.35,.38-.69,.75-1,1.11-.32-.03-.88,.36-1.14,.61-.27,.26-.37,.47-.3,.63,0,.05,0,.23-.02,.36-.02,.26-.04,.45,0,.55v.03s0,.02,0,.03c0,.11,0,.16,.02,.2,0,.14,.02,.26,.08,.37,.14,.24,.45,.36,.95,.36,.39,0,.9-.08,1.53-.23,1.68-.23,3.48-.64,3.95-2.52,.03,.17,.05,.36,.05,.52,.02,.36,.04,.59,.21,.62,.16,.05,.3-.12,.48-.42,.16-.24,.37-.48,.58-.69,.28-.3,.57-.61,.75-.98,0,0,0,0,0,0,0,.11,.02,.23,.12,.25,.12,.05,.21-.07,.25-.12,0-.02,.02-.05,.04-.08,0-.02,.02-.04,.02-.05,.39-.42,.89-.94,1.54-1.6,.06-.05,.11-.09,.14-.15,0,.19,.05,.34,.19,.39,.17,.05,.56,.17,2.81-4.35,.02,.04,.05,.08,.07,.1,.16,.23,.26,.55,.38,.86,.15,.41,.3,.83,.56,1.11,0,0,0,.02,0,.03-.02,.02-.02,.07,0,.11,.02,.03,.04,.05,.08,.06h.02s.02,.03,.02,.05c.15,.97,.27,2.41,.12,3.35-.13,.33-.2,.81-.27,1.19-.02,.1-.03,.19-.05,.28-.92-.24-2.29,.61-2.72,1.51-.33,.67-.1,1.28,.62,1.67,.2,.09,.35,.18,.48,.26,.29,.16,.48,.26,.83,.26,.34,.45,.8,.58,1.29,.58,.33,0,.66-.06,.98-.11,.09-.02,.19-.04,.28-.05,4.22-.2,5.49-3.69,6.06-6.34,.19,.5,.51,1.19,.8,1.17,.22-.02,.26-.32,.28-.42,.36-1.88,.52-3.46,.5-4.91,.86,.63,1.87,1.11,2.79,1.47,.04,.02,.08,.04,.11,.05,.75,.29,1.45,.51,1.95,.64,0,0,.02,0,.02,0,.05,0,.17,0,.2-.09,.03-.11-.05-.16-.11-.2-.02,0-.05-.04-.06-.05v-.14s.04,.02,.04,.02c.02,.02,.03,.03,.05,.05,.89,.41,1.8,.79,2.68,.79,.1,0,.2,0,.3,0,.09,0,.15,0,.19-.05,0,0,.02-.02,.02-.04,.12,0,.24,0,.36,0-.06,.47-.08,.99-.07,1.57-.07,.28-.11,.6-.14,.92-.05,.33-.09,.67-.17,.97,0,.03,0,.05,0,.08,.02,.05,0,.11-.03,.18-.02,.07-.05,.17-.03,.26-.02,.04-.03,.07-.04,.09-.02,0-.03,.04-.05,.05-.53-.38-1.26-.39-1.95,0-.75,.41-1.24,1.17-1.18,1.79,.04,.34,.25,.82,1.07,1.07,1.51,.33,3.15,.5,4.79,.5,1.15,0,2.3-.08,3.41-.24,.24-.02,.4-.07,.43-.21,.03-.17-.17-.27-.42-.4-.02,0-.04-.02-.05-.02,.06-.08,.11-.19,.12-.28,.05-.07,.06-.13,.06-.17,0,0,0-.02,0-.04,.02,0,.04-.02,.05-.05,.23-.51,.33-1,.42-1.51h.07c.18,0,.41-.19,.83-1.51,.15,.22,.28,.3,.42,.28,.25-.03,.34-.4,.51-1.08,.08-.29,.16-.64,.27-1.01,.05,.05,.11,.09,.17,.11,.04,0,.07,0,.09,0h0c.46,.33,1.09,.76,1.56,.95,.67,.19,1.14,.52,1.66,.91,.05,.04,.09,.09,.14,.13-.05,.05-.11,.13-.18,.22,0,0,0,.02-.02,.02-.3,.12-.58,.53-.61,.92-.02,.26,.08,.45,.29,.55,.17,.2,.38,.23,.58,.24,.09,.02,.17,.04,.24,.05,.27,.1,.56,.13,.81,.14,.11,0,.2,.02,.3,.03,.58,.28,1.33,.42,2.08,.42,1.23,0,2.47-.35,2.93-.97,0,0,.02-.04,.02-.05,.28-.21,.37-.61,.42-.81,.29-1.17-.49-2.35-.98-2.97Zm-3.32-5.64l-.46-.67-.04-.04c.08-.11,.17-.24,.24-.35,.06,.35,.14,.7,.26,1.05Zm-.37-13.18c.1-.07,.16-.14,.21-.19,.02-.02,.05-.05,.06-.07,0,0,.02,0,.03,.03,.04,.02,.08,.04,.12,.02,.02,0,.05-.02,.12-.05,.16-.07,.63-.28,.83-.26l.53,.53s.06,.02,.09,.02h0c.09,0,.44,.3,.74,.82,.23,.39,.7,1.39,.17,2.25-.02,.05-.02,.1,0,.14,.17,.27,.3,.58,.27,.67-.11,.46-.29,.74-.51,.8-.24,.08-.73-.11-.92-.3-.02-.03-.05-.04-.07-.04-.02-.18-.05-.37-.09-.56-.14-.67-.35-1.33-.67-1.99-.26-.61-.55-1.16-.88-1.66l-.07-.15s.02,0,.02-.02Zm-51.66-1.59c.06-.08,.09-.09,.11-.08,0,0,.02,0,.03,0,.08-.02,.17-.04,.24-.05,.31-.07,.58-.13,.88-.08,.11,.08,.24,.12,.39,.17,.15,.05,.28,.1,.37,.15-.55,.23-1.15,.47-1.77,.7-.04,0-.08,.03-.11,.05l-.36,.1v-.02s-.04-.05-.07-.08c0-.15,.12-.62,.3-.86Zm5.17,23.54s0,0,0-.02c0-.02,.02-.12,.23-.33,.23-.22,.51-.39,.71-.48-.39,.48-.73,.93-.94,1.33,0-.02,0-.02,0-.03,.02-.23,.04-.38,0-.48Zm10.73-3.34s-.03-.17,0-.45c0-.05-.03-.11-.08-.14-.17-.06-.27,.11-.35,.23-.04,.05-.1,.14-.13,.15l-.04,.04c-.64,.66-1.15,1.18-1.54,1.6,0-.02,0-.03,0-.04,.05-.05,.08-.14,.05-.2-.02-.05-.08-.08-.14-.08-.1,0-.25,.11-.29,.2,0,.03-.02,.04,0,.07-.02,0-.04,.02-.05,.04-.02,.02-.05,.05-.05,.06l-.02,.02c-.17,.36-.44,.64-.72,.94-.2,.23-.42,.46-.61,.73-.08,.14-.14,.22-.18,.26-.02-.09-.02-.23-.03-.35-.03-.39-.05-.83-.27-1.02-.04-.05-.08-.05-.13-.03-.05,.02-.08,.05-.08,.11-.27,2.05-2.04,2.47-3.82,2.72h0c-.69,.17-1.17,.23-1.51,.23,.05-.04,.08-.09,.05-.15,0-.02-.02-.03-.04-.05,.02-.03,.03-.06,.05-.09,.04-.08,.09-.14,.14-.23,.02-.04,.05-.07,.08-.1,.06,.02,.12,0,.15-.06,.05-.12,.11-.24,.02-.32-.03-.02-.11-.06-.2,.02-.04,.04-.61,.71-.47,.92,0,0,.02,.02,.03,.04h0c-.29-.04-.42-.13-.48-.23-.39-.66,1.45-2.63,2.32-3.59,.22-.24,.41-.44,.54-.6,0,0,.02-.02,.02-.02l.33-.59c1.43-2.57,3.01-5.41,3.6-7l.3,.55s.07,.08,.11,.08c.02,0,.05,0,.06-.02,.07-.03,.09-.11,.05-.17l-.31-.58s.05-.03,.06-.07c.03-.05,0-.13-.05-.16l-.09-.05s0-.04,.02-.04h.08c.06,0,.12-.05,.12-.11l.69,1.15v.04c0,.06,.06,.13,.13,.13s.13-.07,.13-.13v-.08h0s0-.02,0-.02,0-.02,0-.03h0l-.89-1.51c.14,.02,.28,.04,.42,.06h0s1.32,2.08,1.32,2.08c.02,.03,.06,.06,.11,.06,.02,0,.05,0,.07-.03,.06-.03,.08-.11,.04-.17l-1.21-1.92c.11,.02,.21,.04,.32,.05l.2,.02,1.67,2.79s.07,.07,.11,.07c.02,0,.05,0,.06-.02,.06-.04,.08-.12,.05-.17l-1.57-2.61c.14,.02,.31,.05,.48,.06l2.07,3.44s.06,.06,.11,.06c.02,0,.05,0,.07-.02,.06-.04,.08-.12,.05-.17l-1.98-3.3c.08,0,.17,0,.26,.02h.17s0,.02,0,.02l2.51,4.14s.07,.06,.11,.06c.02,0,.05,0,.07-.02,0-.02,.02-.02,.03-.03,.03-.04,.04-.1,0-.14l-2.44-4.03c.2,.02,.39,.02,.56,.07h0l2.13,3.53s.05,.05,.08,.06c-1.41,2.8-2.17,3.91-2.41,4.01Zm-3.66-7.66s.02-.06,.02-.09l.06,.11s-.04-.02-.05-.02h-.03Zm6.18,3.42l-1.96-3.22s.05,0,.06-.02c.05-.02,.07-.05,.08-.09h0c.08,0,.24,.11,.33,.16,.06,.04,.12,.08,.17,.09,.33,1.03,.79,2.02,1.38,2.98-.02,.04-.03,.07-.05,.1Zm10.54,.59c-.02-.52-.06-1.03-.14-1.54,.11,.26,.23,.51,.3,.77,0,.02,.02,.03,.03,.05,0,0,0,0,0,0-.02,.04,0,.08,.03,.11l2.02,1.88c-.77-.35-1.57-.77-2.26-1.29Zm2.94,1.57l-2.43-2.26c.06-.08,.07-.21,.08-.38l3.22,2.95c-.27-.09-.57-.2-.87-.32Zm13.43,3.38c-.09,.38-.2,.85-.3,.89,0,0-.09-.02-.31-.39-.02-.05-.08-.08-.13-.07-.05,.02-.09,.04-.11,.09v.03c-.39,1.24-.59,1.51-.65,1.55,0-.02-.02-.04-.04-.08-.02-.06-.08-.09-.13-.09-.06,0-.11,.05-.12,.1l-.03,.21c-.09,.54-.17,1-.39,1.49-.08,.05-.09,.14-.09,.2,0,0,0,.02,0,.03-.05,.03-.07,.08-.05,.14,0,.04-.05,.11-.09,.17-.03-.04-.08-.07-.14-.05-.05,.02-.08,.06-.09,.11,0,.05-.02,.19,.1,.26,.03,.02,.08,.02,.15-.02,.04,.03,.08,.05,.13,.08,.06,.03,.14,.07,.2,.11-.03,0-.08,.02-.13,.02-2.69,.4-5.58,.31-8.11-.25-.2-.06-.37-.14-.51-.24,.05,0,.11-.05,.12-.1,0-.05,.02-.08,.04-.11,.17-.36,.69-.7,1.16-.73,0,.05,.02,.11,.04,.16,.02,.05,.05,.08,.11,.08,.11,.03,.19-.08,.21-.11,.04-.06,.03-.14-.03-.19-.02,0-.05-.02-.08-.02-.02-.07-.03-.12-.08-.17-.02,0-.05-.02-.07-.02h-.04c-.64,0-1.37,.49-1.51,1.04,0,.02,0,.04,0,.06-.15-.14-.24-.33-.26-.51-.05-.52,.39-1.17,1.04-1.54,.3-.17,1.04-.48,1.68,0,.03,.04,.07,.07,.11,.07,.08,.02,.14-.02,.19-.08,.07-.02,.11-.09,.16-.17,.02-.04,.02-.08,.02-.1,0-.02,0-.04,0-.05,0,0,0-.03,0-.04-.02-.05,0-.11,.03-.18,.02-.08,.05-.19,.03-.29,.02-.09,.04-.18,.05-.26l.66,.92s.07,.05,.11,.05c.03,0,.05,0,.08-.02,.06-.05,.07-.13,.03-.18l-.76-1.07s-.04-.02-.06-.04c.02-.13,.04-.26,.05-.39,0-.05,0-.09,.02-.14l1.48,2.22s.06,.07,.11,.07c.02,0,.05-.02,.07-.02,.06-.05,.08-.12,.04-.18l-1.51-2.26c-.04-.05-.1-.07-.16-.05,0-.02,0-.03,0-.04,0,0,0,0,.02,0,.05-.02,.09-.08,.09-.12,0-.06,0-.12,0-.18,.02-.15,.05-.39,.07-.45,0-.05-.02-.11-.06-.14t-.02,0c0-.46,.03-.88,.08-1.26,.02-.08,.03-.15,.04-.23,.02-.05,.02-.11,.04-.18,.05-.17,.1-.35,.16-.52,0-.02,.02-.03,.02-.05v-.07c-.06-1.04,.33-2.04,.7-2.99,.08-.2,.15-.39,.23-.6,.19-.63,.41-1.23,.64-1.83,.52-1.32,1.16-2.59,1.92-3.83,.03-.05,.02-.14-.05-.17-.06-.04-.14-.02-.17,.03-.02,.04-.04,.08-.05,.11-.72,1.16-1.32,2.35-1.82,3.59-.26,.66-.51,1.33-.72,2.02-.07,.19-.14,.38-.22,.58-.39,.98-.78,1.99-.73,3.09v.07c-.1,.24-.16,.51-.21,.77-.21,.04-.55,.04-.76,.03-.05,0-.08,0-.11,.05,0,0-.02,.03-.02,.05h-.02c-.82,0-1.7-.36-2.54-.76-.04-.05-.09-.06-.13-.08-.02,0-.05-.02-.05-.02,0-.04-.02-.08-.06-.1-.03-.02-.08-.03-.11,0-.08,.03-.15,.07-.18,.14-.03,.07,0,.12,.02,.17,.02,.04,.05,.09,.03,.19-.11-.04-.21-.06-.32-.1,0-.02-.02-.05-.04-.06l-3.64-3.32s.03,0,.05,0c0,0,.02,0,.02,0,.09-.02,.14-.05,.14-.28l3.38,3.1s.05,.03,.08,.03c.04,0,.07-.02,.09-.04,.05-.05,.05-.14,0-.18l-3.56-3.27c0-.09,0-.18-.02-.28,0-.08-.02-.18-.02-.26l3.04,2.92s.06,.04,.09,.04c.04,0,.07,0,.09-.04,.05-.05,.05-.13,0-.17l-3.25-3.13c-.02-.18-.03-.38-.05-.58l2.86,2.76s.06,.02,.09,.02c.04,0,.07,0,.09-.04,.05-.04,.05-.12,0-.17l-3.08-2.96c-.02-.17-.03-.35-.05-.53l1.41,1.32,.11,.1,.88,.82s.06,.03,.09,.03,.07-.02,.09-.04c.03-.03,.04-.07,.03-.11,0-.03-.02-.05-.04-.08l-1.06-.99-1.54-1.44c-.02-.17-.04-.36-.05-.52l1.95,1.85s.05,.04,.08,.04c.04,0,.07-.02,.09-.04,0,0,.02-.02,.02-.04,.02-.05,.02-.11-.02-.14l-.28-.26-1.89-1.8s0-.03,0-.05c0-.09-.02-.19-.03-.29,0-.05,0-.09-.02-.14l.38,.38,1.01,.99s.05,.05,.09,.05c.03,0,.06,0,.09-.05,.05-.05,.05-.12,0-.18l-.88-.86-.73-.74c-.02-.1-.02-.19-.04-.26l.71,.68s.06,.04,.09,.04c.04,0,.07-.02,.09-.04,.05-.05,.05-.14,0-.19l-.94-.9c-.18-1.32-.26-1.32-.37-1.32-.14,0-.16,.17-.17,.29,0,.08,.05,.14,.12,.14h.02s0,.07,.02,.09c.02,.1,.04,.22,.06,.36h-.08s-.05,0-.06,.02c-.02,0-.03-.02-.05-.02-.05-.19-.1-.38-.14-.57,0-.02-.02-.04-.04-.07-.02-.02-.08-.15-.12-.24-.14-.3-.2-.45-.34-.42-.14,.04-.14,.2-.13,.3h0c0,.08,.06,.12,.13,.12,.02,0,.04,0,.05-.02,.02,.05,.04,.08,.05,.11,.07,.17,.11,.26,.15,.3,.21,.83,.42,1.67,.59,2.52,.28,1.38,.46,2.78,.35,4.17-.05,.1-.06,.24-.07,.39-.11-.3-.25-.59-.39-.87-.09-.19-.17-.37-.25-.55-.02-.05-.09-.09-.16-.06-.06,0-.1,.08-.08,.14,.11,.53,.19,1.07,.24,1.61,.16,1.73,.02,3.62-.43,6.01-.02,.11-.05,.17-.06,.19-.17-.11-.58-1.04-.7-1.47,0,0,0-.02-.02-.05-.07-.09-.15-.08-.19-.07-.12,.05-.12,.2-.1,.48v.08h0c-.88,4.1-2.74,6.06-5.85,6.21h0c-.1,.02-.2,.03-.3,.05-.7,.11-1.42,.24-1.91-.23,.09-.02,.19-.04,.3-.06,.06-.02,.1-.07,.1-.12,0-.06-.05-.11-.11-.14l-.46-.09h-.02c.16-.29,.45-.68,.64-.71,.02,0,.05,0,.08,.05,0,0,.02,.02,.02,.03,.04,.05,.11,.06,.16,.02,.06-.02,.08-.1,.05-.17-.11-.19-.26-.2-.34-.18-.39,.06-.87,.83-.95,1.12-.17-.04-.3-.11-.5-.23-.14-.08-.29-.17-.49-.26-.02,0-.02,0-.04-.02,.03-.03,.05-.05,.07-.08,.02-.06-.02-.14-.08-.15,0,0,0-.02,0-.02,.03-.18,.48-.64,.72-.79,.04-.03,.07-.04,.09-.05,.02,.02,.06,.04,.1,.02,.07,0,.12-.06,.11-.13,0-.06-.03-.09-.06-.12,0-.04-.04-.05-.08-.04,0,0-.02,0-.03,0h0c-.29,0-1.05,.76-1.1,1.09,0,.04,0,.05,0,.08-.42-.37-.36-.79-.2-1.12,.42-.9,1.82-1.63,2.53-1.33,.03,0,.08,0,.11,0,.04-.02,.06-.05,.07-.09,.02-.11,.05-.26,.08-.42,.02-.1,.03-.18,.05-.28l.74,1.37s.07,.07,.11,.07c.02,0,.04-.02,.06-.02,.06-.03,.08-.11,.05-.17l-.81-1.51s-.05-.05-.08-.08c.04-.16,.08-.33,.13-.48,0,.02,.02,.03,.04,.04l1.14,2.2s.06,.08,.11,.08c.02,0,.04,0,.05-.02,.07-.03,.09-.11,.06-.17l-1.2-2.32c-.03-.06-.09-.08-.15-.07,.02-.19,.04-.39,.05-.61l1.95,3.55s.07,.07,.11,.07c.02,0,.04,0,.06-.02,.06-.04,.08-.12,.05-.17l-2.14-3.89s-.02-.04-.03-.05c-.02-.71-.09-1.47-.18-2.07l.13,.04c.07,.02,.14-.02,.16-.08,.02-.07-.02-.14-.08-.16-.49-.15-.69-.7-.9-1.28-.11-.33-.23-.66-.41-.92-.12-.17-.23-.36-.35-.55-.5-.84-.89-1.7-1.19-2.6,0-.04-.02-.08-.04-.13-.02-.03-.02-.08-.04-.11-.13-.43-.24-.87-.33-1.31-.04-.19-.07-.37-.09-.56-.05-.3-.09-.59-.11-.89-.02-.21-.03-.44-.04-.64t0-.02c0-.07-.06-.11-.13-.11s-.12,.05-.12,.14c0,.24,.03,.51,.05,.76,.02,.17,.03,.33,.05,.48,.02,.19,.05,.37,.08,.55,.08,.49,.19,.97,.33,1.45-.18-.11-.36-.21-.5-.14-.02,0-.05,.02-.07,.05-.34-.16-.86-.17-1.36-.17-.4,0-.81-.02-1.1-.1h-.02l-.42-.05c-.3-.04-.61-.08-.92-.13-.75-.1-1.5-.2-2.21-.39,0,0-.02,0-.02,0-2.69-.22-4.72-.93-6.18-2.17-.02-.02-.04-.02-.06-.02-2.43-.48-5.09-.51-6.9-.45-.17-.02-.81,0-1,.08,0,0-.02,.02-.03,.02-.03,.04-.16,0-.23-.05-.05,0-.11-.03-.16-.05-.05,0-.11,0-.21,0-.07,0-.22,.02-.28,0-.02-.03-.05-.05-.09-.06-.37-.04-.72-.18-1.04-.38,.02,0,.02,0,.04,0,.05-.03,.11-.03,.17-.04h0c.31,.03,.66,.06,.97-.08,.07-.02,.12-.05,.17-.09,.05-.05,.06-.11,.02-.17-.04-.05-.11-.08-.17-.03-.03,.02-.06,.05-.1,.05-.14,.05-.36,.05-.55,.05-.12,0-.23,0-.33,.02l-.1-.02s-.08,.02-.11,.05c-.03,0-.06,.02-.08,.04-.04,0-.2,0-.27,0,0,0-.02,0-.02,0,0-.02,0-.02,0-.02h0s0,0,0,0c-.03-.02-.06-.05-.09-.09,0,0-.02,0-.02,0-.04-.04-.08-.07-.12-.11l-.13-.13s-.07-.09-.11-.12c0,0,0-.02,0-.02-.02-.02-.04-.04-.05-.06,.02,0,.05,.04,.09,.04,.03,0,.06-.02,.1-.05h0s.09,0,.11,.02h.05s.1,0,.16-.08c.14-.17,.38-.83,.21-1.12-.06-.11-.17-.17-.3-.15-.14-.07-.42-.08-.64-.07,.72-.83,1.77-1.96,2.79-2.81,.02,0,.03,0,.05-.02,.13-.07,.23-.33,.26-.42,.05-.08,.28-.33,.36-.39,0,0,.02-.02,.02-.02,1.23-.64,2.51-1.14,3.75-1.61,.64-.24,1.25-.48,1.82-.73h0s.08-.04,.12-.05c.04-.02,.08-.04,.12-.05,.17-.08,.36-.16,.52-.25,1.43-.29,2.79-.67,4.22-1.07,.51-.14,1.01-.28,1.54-.42,1.11-.13,1.84-.51,2.61-.92,.61-.31,1.25-.64,2.1-.85,0,0,0,0,0,0,.69-.23,1.42-.45,2.13-.67,1.23-.37,2.5-.76,3.66-1.26,.34-.1,.7-.15,1.06-.2,.45-.08,.93-.14,1.38-.3,.78-.19,1.6,.02,2.32,.21l.12,.04c.36,.16,.76,.26,1.17,.36,.42,.1,.84,.2,1.21,.39,.34,.14,.72,.3,1.11,.49,.05,.12,.38,.33,1.85,1.18,.89,.67,1.35,.98,1.57,.85,.03-.02,.05-.04,.06-.06,.03-.08,.05-.09-.07-.17h-.02c-.08-.05-.2-.12-.39-.23-.23-.14-.61-.35-1.03-.59-.05-.04-.11-.08-.15-.12-.15-.11-.28-.2-.39-.29,2.6,.76,5.61,.8,8.54,.85,5.97,.08,12.04,.24,14.71,6.42,1.66,3.37-.1,8.33-.51,9.46-.02,.05-.03,.08-.05,.11,0,.02,0,.03-.02,.05-.02,.05-.02,.06-.02,.08-.41,.62-.98,1.32-1.6,2-.11,.11-.23,.24-.34,.36-1.01,1.06-2.1,2-2.84,2.45-.02,0-.02,0-.03,.02-.35,.39-.61,.83-.82,1.26-.36,.77-.55,1.54-.7,2.13Zm-16.25-11.49l.08,.08c.02,.16,.04,.34,.06,.51h0c-.05-.2-.08-.39-.13-.58v-.02Zm-.04-.35s-.03,0-.05,0c-.03-.14-.06-.28-.1-.42l.17,.17c.02,.08,.02,.17,.04,.26-.02,0-.04-.02-.06-.02Zm17.23,10.78l-.11-.08s-.03-.02-.05-.02c-.05-.02-.12-.05-.17-.08,.02-.05,.03-.09,.05-.14,.05-.14,.11-.3,.17-.44l1.33,1.53c-.4-.2-.89-.55-1.23-.78Zm1.73,.98s-.02-.03-.02-.04l-1.64-1.88s-.05-.04-.07-.05c.05-.11,.11-.23,.17-.35l2.21,2.63c-.2-.12-.42-.23-.66-.31Zm8.13,1.89c-.11,.48-.27,.72-.55,.76-.03,0-.06,0-.09,0-.05,0-.11,0-.16-.02-.02,0-.05,0-.08,0-.04,.02-.06,.06-.08,.11,0,.06,.04,.14,.11,.14,.07,.02,.13,.02,.18,.02-.17,.12-.38,.23-.62,.31-.07,.03-.14,.05-.23,.08-.17,.06-.37,.11-.57,.14-.02,0-.03,0-.05,0-.05,.02-.1,.02-.14,.03-.02,0-.03,0-.05,0-.12,.02-.24,.02-.36,.03-.88,.07-1.82-.05-2.48-.37-.02,0-.03-.02-.04-.02-.06,0-.11,0-.17-.02-.06,0-.11,0-.17,0-.24-.02-.5-.03-.73-.13-.1-.02-.2-.05-.3-.05-.18-.02-.33-.05-.43-.18-.02-.02-.03-.03-.05-.05-.12-.05-.17-.15-.17-.3,.02-.27,.24-.61,.45-.7,.05,0,.09-.06,.13-.1,.07-.1,.13-.16,.17-.2l.02,.02,.39,.38,.03,.05h0s.07,.05,.1,.05l.16,.16s.08,.03,.12,.02c0,0,0,0,.02,0,.04-.02,.06-.05,.08-.08,0-.06,.02-.14-.03-.21-.05-.08-.13-.08-.18-.09,0,0-.02,0-.03,0l-.53-.5s-.04-.05-.07-.07c-.08-.07-.17-.14-.25-.21-.25-.19-.5-.37-.76-.52h.02s.02,0,.02,0h.02s.06,0,.08-.02c.05-.06,.06-.13,.02-.18l-2.26-2.69c.07-.1,.14-.21,.21-.3,0,0,0,0,0-.02,.02,0,.03,0,.05,0l1.99,2.54s.05,.05,.09,.05h0s.05-.02,.08-.04c.06-.05,.07-.11,.02-.18l-2.05-2.61s.02-.02,.03-.04c.09-.05,.18-.11,.28-.17,.02,0,.02-.02,.04-.02l1.69,2.26s.06,.05,.1,.05h0s.05,0,.08-.03c.05-.04,.07-.12,.02-.17l-1.69-2.25c.08-.06,.17-.12,.24-.18,.02,0,.02-.02,.04-.02t.02,.02l1.51,1.95s.06,.05,.1,.05c0,0,.02,0,.02,0,.02,0,.05,0,.06-.02,.05-.05,.06-.13,.02-.18l-1.51-1.95s-.02,0-.02-.02c.08-.07,.16-.13,.25-.2,0,0,.02-.02,.03-.02l1.42,1.71s.05,.05,.08,.05h.02s.06,0,.08-.02c.05-.05,.06-.12,.02-.18l-1.42-1.72c.09-.07,.17-.14,.26-.21,0,0,.02-.02,.03-.02l1.25,1.61s.06,.05,.1,.05h0s.05-.02,.08-.03c.05-.05,.07-.12,.02-.19l-1.26-1.61c.1-.08,.19-.17,.28-.25,0-.02,.02-.02,.03-.03l1.16,1.53s.06,.04,.1,.04h0s.02,0,.03,0c.02,0,.03,0,.05,0,.05-.05,.07-.14,.02-.18l-1.17-1.54c.08-.08,.16-.14,.23-.22,0,0,.02-.02,.03-.03l.35,.41,.7,.82s.05,.05,.08,.05h.02s.06,0,.08-.02c.05-.05,.06-.13,.02-.18l-1.07-1.24c.06-.06,.11-.11,.17-.17,0,0,.02-.02,.03-.03l.69,.83,.23,.28s.07,.05,.1,.05,.06-.02,.08-.03c.05-.05,.06-.13,.02-.18l-.94-1.13c.08-.07,.15-.14,.21-.23,.02,0,.02-.02,.03-.03l.88,1.05s.06,.05,.1,.05c.03,0,.06,0,.08-.04,.05-.05,.06-.12,.02-.17l-.9-1.07c.08-.1,.17-.2,.25-.29,0-.02,.02-.02,.02-.03l.87,1.04s.06,.05,.1,.05c.02,0,.02,0,.04,0,.02,0,.03,0,.05,0,.05-.05,.06-.13,.02-.18l-.91-1.09c.07-.08,.14-.17,.2-.26,.02-.02,.02-.02,.03-.04l.55,.78s.05,.05,.1,.05h0s.02,0,.02,0c.02,0,.03,0,.05,0,.02,0,.02-.02,.03-.04,.49,1.4,1.29,2.69,2.08,3.97,.31,.5,.64,1.01,.92,1.51,0,0,0,.02,.02,.02,.16,.2,.36,.48,.54,.78,.23,.41,.42,.88,.45,1.36,0,.2,0,.39-.05,.61Z"/></g><g id="SRKM"><path class="cls-1" d="M5.71,59.98l-.41-.2-.16-.9c.25-.34,.61-.47,1.09-.45l.77,.34,1.31-.79c.63-.66,1.86-1.84,1.86-2.75l-.16-.27c-.84-.2-1.67-.41-2.56-.57-.86-.16-1.65-.61-2.35-1.38-.45-.86-.7-1.81-.75-2.83,.05-.93,.25-1.79,.57-2.6,.32-.81,.72-1.61,1.22-2.35,.54-.63,1.2-.97,1.95-1.02,.93,.11,1.7,.61,2.31,1.45,.41,.54,.66,1.2,.75,1.92l-.25,.43-.54,.2c-.61-1.11-1.31-1.92-2.17-2.51l-.41-.09-.93,.72c-.32,.59-.57,1.24-.79,1.92-.2,.66-.29,1.4-.23,2.17l.45,1.65,.54,.57c.68,.34,1.4,.59,2.19,.7,.79,.11,1.56,.36,2.28,.77,.32,.45,.47,.97,.43,1.61-.14,1.18-1.57,2.59-2.5,3.43-.93,.93-2.06,1.33-3.44,1.24l-.09-.41Z"/><path class="cls-1" d="M26.62,56.37l-.32-.07c-1.04,.18-2.06,.27-3.05,.27l-.18,2.6,.07,.47-.52,.72h-.77s-.27-.81-.27-.81l.09-.48c-.16-2.71-.29-4.8-.36-6.17-.09-1.4-.14-2.62-.14-3.64l.16-.36-.07-1.27,.07-.32-.16-1.09,1.11-1.45,.79-.2c.93,.14,1.72,.45,2.44,.95,.63,.38,1.22,.86,1.76,1.49,.52,.86,.88,1.7,1.09,2.51,.23,.84,.32,1.79,.32,2.9-.16,1.09-.43,2.08-.81,3.03l1.29,3.86,.36,.32v.41s-.62,.35-.62,.35l-.9,.09c-.5-.59-.56-2.28-1.38-4.12Zm0-1.97c.34-.9,.52-1.85,.59-2.87-.11-1.4-.45-2.51-.97-3.3l-1.33-1.47c-.63-.41-1.29-.66-2.01-.7-.2,.68-.32,1.43-.34,2.22-.05,.79-.07,1.38-.14,1.79,.07,.79,.14,1.58,.2,2.33,.09,.75,.2,1.49,.36,2.22,.84,.34,1.81,.43,2.87,.29l.41-.23,.36-.27Z"/><path class="cls-1" d="M39.53,60.08c-.18-.36-.23-.79-.18-1.29l.09-.27c0-1.22-.09-2.37-.25-3.48l.07-.38-.32-6.06,.09-.32-.09-1.54,.25-.86-.07-.59,.27-.47,1.02-.09,.2,.75c-.11,1.45-.2,2.85-.27,4.28l.09,.66-.09,.32,.32,3.82,.86-1.11,.43-.38c.36-.81,.75-1.61,1.18-2.4,.41-.77,.77-1.61,1.04-2.51l.99-.23,.09,.95c-.27,.81-.59,1.58-.95,2.33s-.68,1.49-.97,2.24c.34,.93,.72,1.85,1.13,2.76,.41,.91,2.52,4,1.9,4.21h-.93c-.5-.36-.81-.9-.93-1.63-.38-1.02-1.74-2.78-2.24-3.73l-.16-.07-.95,1.4-.29,.18-.09,.52,.18,2.56-.27,.6-.65,.14-.5-.29Z"/><path class="cls-1" d="M64.06,59.6c-.23-.36-.32-.81-.32-1.33,.05-2.06,.07-4.51,.07-6.55l-.14-.61h-.14c-1.04,1.2-2.35,1.74-3.89,1.7l-1.2-1.15-.97-2.6h-.11s0,1.67,0,1.67l.43,8.93-.36,.63-.84,.11c-.25-.57-.36-1.2-.36-1.88l.14-1.67c-.05-2.1-.16-4.21-.32-6.33l.09-.36-.25-5.04c.11-.57,.43-.81,.95-.75,.25,.41,.38,.88,.38,1.42h.2s.32-.14,.32-.14c.52,.86,.91,1.79,1.15,2.76,.25,.99,.68,1.88,1.27,2.67,.29,.2,.63,.27,.97,.2,.63-.25,1.22-.77,1.76-1.49,.57-.88,.84-1.83,.84-2.92l-.09-.7,.75-.52,.25,.14,.25-.14,.41,.43c-.02,4.21,.09,8.79,.34,12.95-.07,.52-.23,1.02-.45,1.47l-.63-.1c-.32-.25-.55-.28-.5-.8Z"/></g></g></g></svg>