<?xml version="1.0" encoding="UTF-8"?><svg xmlns="http://www.w3.org/2000/svg" viewBox="0 0 640 240"><defs><style>.cls-1{fill:#009245;}.cls-2{fill:#fff;}.cls-3{fill:#f7931e;}.cls-4{fill:#b54113;}</style></defs><g id="_イヤー_2"><rect class="cls-1" width="640" height="240"/></g><g id="_イヤー_1"><g><g><path class="cls-4" d="M285.78,199.64c-5.02,0-9.01-1.5-11.84-4.45-2.76-2.87-4.27-7.25-4.27-12.33,0-5.53,1.76-11.72,4.71-16.56,.33-.55,.68-1.07,1.04-1.57,5.66-7.88,9.45-16.81,11.24-26.15,1.33,9.55,4.73,18.79,10.11,27.04,.15,.23,.29,.46,.43,.69,2.94,4.82,4.7,11.01,4.7,16.54,0,5.08-1.52,9.46-4.27,12.33-2.84,2.95-6.82,4.45-11.84,4.45Zm442.36-5.74c-5.51,0-9.23-3.31-11.39-6.08-3-3.87-4.73-9.21-4.73-14.67s1.72-10.8,4.73-14.67c.13-.16,.26-.33,.4-.49,5.95-7.17,10.15-15.26,12.61-23.72,1.66,8.79,5.12,17.36,10.44,25.13,2.58,3.76,4.06,8.77,4.06,13.75,0,5.45-1.72,10.8-4.73,14.67-2.16,2.78-5.88,6.08-11.39,6.08Zm-649.19-10.95c-5.47,0-9.44-1.18-12.12-3.61-2.65-2.39-3.99-6.08-3.99-10.96,0-5.23,1.4-11.09,3.85-16.08,15.45-31.56,3.55-69.69-27.12-86.86-3.17-1.77-6.47-3.75-10.09-6.04-10.92-6.91-23.18-10.25-35.35-10.25-18.64,0-37.04,7.86-50.02,22.8-6.82,7.85-15.12,17.01-24.99,25.32l-7.46,6.27c-26.07,21.91-34.66,29.33-41.74,39.56-.82,1.19-2.18,1.9-3.63,1.9-.62,0-1.11-.1-1.68-.33-.87-.36-1.73-1.13-2.19-1.96-.45-.83-.64-1.97-.47-2.9L-98.29-82.36c.38-2.14,2.17-3.64,4.35-3.64H745.58c2.39,0,4.41,2.02,4.41,4.41V71.34c0,1.16-.38,2.13-1.16,2.98-.32,.34-.64,.68-.96,1.01-8.03,8.08-13.6,17.8-16.61,28.15-2.4-12.78-8.57-24.95-18.42-34.73-.89-.88-1.74-1.75-2.56-2.59-12.83-13.25-30.12-20.15-47.58-20.15-11.85,0-23.78,3.18-34.47,9.7-5.59,3.41-12.36,7.3-20.24,10.29-3.03,1.15-5.79,2.18-8.45,3.14-32.24,11.71-50.19,46.1-41.37,79.24,.72,2.7,1.1,5.46,1.1,7.99,0,5.08-1.52,9.46-4.27,12.33-2.83,2.95-6.82,4.45-11.84,4.45s-9.01-1.5-11.84-4.45c-2.75-2.87-4.27-7.25-4.27-12.33,0-2.46,.36-5.14,1.04-7.76,7.65-29.5-5.83-60.42-32.66-74.88-.45-.24-.89-.49-1.33-.73-12.22-6.9-23.65-17.39-34.95-32.09-11-14.31-27.38-23.51-45.32-25.46-2.39-.26-4.77-.39-7.15-.39-15.5,0-30.6,5.45-42.58,15.52-7.81,6.56-16.02,14.79-25.11,25.14-5.97,6.8-12.57,12.29-19.62,16.32-15.82,9.04-27.21,24.21-31.49,41.92-.25,1.02-.47,2.05-.67,3.08-.19-1.34-.42-2.69-.69-4.03-3.65-18.04-14.65-33.74-30.35-43.34-7.89-4.82-14.97-11.03-21.03-18.45-11.51-14.08-28.31-22.81-46.46-24.12-1.6-.12-3.2-.17-4.79-.17-16.47,0-32.42,6.15-44.66,17.34-1.33,1.22-2.74,2.53-4.22,3.95-7.33,7.02-14.55,12.84-21.45,17.32-28.59,18.55-38.42,55.78-22.71,86.02,2.68,5.17,4.22,11.3,4.22,16.83,0,4.88-1.34,8.57-3.99,10.96-2.69,2.43-6.65,3.61-12.12,3.61Z"/><path class="cls-4" d="M285.78,199.64c-5.02,0-9.01-1.5-11.84-4.45-2.76-2.87-4.27-7.25-4.27-12.33,0-5.53,1.76-11.72,4.71-16.56,.33-.55,.68-1.07,1.04-1.57,5.66-7.88,9.45-16.81,11.24-26.15,1.33,9.55,4.73,18.79,10.11,27.04,.15,.23,.29,.46,.43,.69,2.94,4.82,4.7,11.01,4.7,16.54,0,5.08-1.52,9.46-4.27,12.33-2.84,2.95-6.82,4.45-11.84,4.45Zm442.36-5.74c-5.51,0-9.23-3.31-11.39-6.08-3-3.87-4.73-9.21-4.73-14.67s1.72-10.8,4.73-14.67c.13-.16,.26-.33,.4-.49,5.95-7.17,10.15-15.26,12.61-23.72,1.66,8.79,5.12,17.36,10.44,25.13,2.58,3.76,4.06,8.77,4.06,13.75,0,5.45-1.72,10.8-4.73,14.67-2.16,2.78-5.88,6.08-11.39,6.08Zm-649.19-10.95c-5.47,0-9.44-1.18-12.12-3.61-2.65-2.39-3.99-6.08-3.99-10.96,0-5.23,1.4-11.09,3.85-16.08,15.45-31.56,3.55-69.69-27.12-86.86-3.17-1.77-6.47-3.75-10.09-6.04-10.92-6.91-23.18-10.25-35.35-10.25-18.64,0-37.04,7.86-50.02,22.8-6.82,7.85-15.12,17.01-24.99,25.32l-7.46,6.27c-26.07,21.91-34.66,29.33-41.74,39.56-.82,1.19-2.18,1.9-3.63,1.9-.62,0-1.11-.1-1.68-.33-.87-.36-1.73-1.13-2.19-1.96-.45-.83-.64-1.97-.47-2.9L-98.29-82.36c.38-2.14,2.17-3.64,4.35-3.64H745.58c2.39,0,4.41,2.02,4.41,4.41V71.34c0,1.16-.38,2.13-1.16,2.98-.32,.34-.64,.68-.96,1.01-8.03,8.08-13.6,17.8-16.61,28.15-2.4-12.78-8.57-24.95-18.42-34.73-.89-.88-1.74-1.75-2.56-2.59-12.83-13.25-30.12-20.15-47.58-20.15-11.85,0-23.78,3.18-34.47,9.7-5.59,3.41-12.36,7.3-20.24,10.29-3.03,1.15-5.79,2.18-8.45,3.14-32.24,11.71-50.19,46.1-41.37,79.24,.72,2.7,1.1,5.46,1.1,7.99,0,5.08-1.52,9.46-4.27,12.33-2.83,2.95-6.82,4.45-11.84,4.45s-9.01-1.5-11.84-4.45c-2.75-2.87-4.27-7.25-4.27-12.33,0-2.46,.36-5.14,1.04-7.76,7.65-29.5-5.83-60.42-32.66-74.88-.45-.24-.89-.49-1.33-.73-12.22-6.9-23.65-17.39-34.95-32.09-11-14.31-27.38-23.51-45.32-25.46-2.39-.26-4.77-.39-7.15-.39-15.5,0-30.6,5.45-42.58,15.52-7.81,6.56-16.02,14.79-25.11,25.14-5.97,6.8-12.57,12.29-19.62,16.32-15.82,9.04-27.21,24.21-31.49,41.92-.25,1.02-.47,2.05-.67,3.08-.19-1.34-.42-2.69-.69-4.03-3.65-18.04-14.65-33.74-30.35-43.34-7.89-4.82-14.97-11.03-21.03-18.45-11.51-14.08-28.31-22.81-46.46-24.12-1.6-.12-3.2-.17-4.79-.17-16.47,0-32.42,6.15-44.66,17.34-1.33,1.22-2.74,2.53-4.22,3.95-7.33,7.02-14.55,12.84-21.45,17.32-28.59,18.55-38.42,55.78-22.71,86.02,2.68,5.17,4.22,11.3,4.22,16.83,0,4.88-1.34,8.57-3.99,10.96-2.69,2.43-6.65,3.61-12.12,3.61Z"/></g><g><path class="cls-3" d="M286.09,194.53c-4.93,0-8.84-1.47-11.63-4.37-2.71-2.82-4.2-7.12-4.2-12.11,0-5.43,1.73-11.51,4.63-16.27,.32-.53,.66-1.05,1.02-1.54,5.56-7.74,9.28-16.51,11.04-25.68,1.3,9.38,4.65,18.45,9.92,26.55,.14,.22,.28,.44,.42,.66,2.9,4.77,4.63,10.85,4.63,16.28,0,4.99-1.49,9.29-4.2,12.11-2.78,2.9-6.7,4.37-11.63,4.37Zm434.45-5.64c-5.41,0-9.07-3.25-11.19-5.98-2.95-3.8-4.64-9.05-4.64-14.4s1.69-10.61,4.64-14.4c.34-.44,.7-.86,1.06-1.25,5.35-5.78,9.49-12.36,12.38-19.38,1.81,7.53,4.99,14.83,9.59,21.53,2.53,3.69,3.99,8.62,3.99,13.5,0,5.36-1.69,10.61-4.64,14.4-2.12,2.73-5.78,5.97-11.19,5.97Zm-639.53-7.8c-5.37,0-9.27-1.16-11.91-3.54-2.6-2.35-3.92-5.97-3.92-10.76,0-5.57,1.58-11.73,4.34-16.89,16.66-31.19,5.34-69.98-25.49-87.3-3.03-1.7-6.18-3.59-9.65-5.79C23.66,50.02,11.61,46.74-.34,46.74c-18.31,0-36.38,7.72-49.12,22.4-6.69,7.71-14.84,16.7-24.54,24.87l-7.32,6.16c-25.61,21.52-34.04,28.81-40.99,38.85-.81,1.18-2.14,1.87-3.57,1.87-.61,0-1.09-.09-1.65-.33-.87-.36-1.71-1.11-2.15-1.93-.45-.81-.63-1.93-.47-2.85L-91.11-82.43c.38-2.1,2.13-3.57,4.27-3.57H737.66c2.35,0,4.34,1.99,4.34,4.34V68.51c0,1.17-.37,2.11-1.17,2.97-.21,.22-.44,.46-.66,.68-6.3,6.26-11.07,13.54-14.28,21.35-.98-4.06-2.36-8.07-4.15-11.96-10.64-23.11-33.74-37.82-59.03-37.82-.83,0-1.67,.02-2.51,.05-22.57,.87-37.41,9.41-56.19,20.22-4.88,2.81-9.78,5.38-14.55,7.63-27.72,13.07-42.55,43.73-35.58,73.58,.55,2.34,.82,4.64,.82,6.83,0,4.99-1.49,9.29-4.2,12.11-2.78,2.9-6.7,4.37-11.63,4.37s-8.84-1.47-11.63-4.37c-2.71-2.82-4.2-7.12-4.2-12.11,0-2.3,.32-4.81,.93-7.28,6.95-28.03-5.43-57.27-30.38-71.81-13.04-7.59-25.56-19.14-37.24-34.33-10.81-14.06-26.89-23.09-44.51-25-2.34-.25-4.69-.38-7.02-.38-15.22,0-30.05,5.35-41.82,15.24-7.67,6.45-15.74,14.53-24.67,24.69-5.86,6.68-12.34,12.07-19.26,16.03-15.54,8.88-26.72,23.77-30.92,41.17-.24,1.01-.46,2.02-.66,3.03-.18-1.32-.41-2.64-.67-3.96-3.59-17.72-14.39-33.14-29.81-42.57-7.75-4.74-14.7-10.83-20.65-18.12-11.31-13.83-27.81-22.4-45.63-23.69-1.57-.11-3.14-.17-4.7-.17-16.18,0-31.84,6.04-43.86,17.03-1.3,1.19-2.68,2.48-4.14,3.87-7.78,7.44-15.41,13.51-22.69,18.04-29.11,18.13-39.13,55.76-22.89,85.97,2.78,5.17,4.38,11.36,4.38,16.96,0,4.79-1.32,8.41-3.92,10.76-2.64,2.38-6.53,3.54-11.91,3.54Z"/><path class="cls-3" d="M286.09,194.53c-4.93,0-8.84-1.47-11.63-4.37-2.71-2.82-4.2-7.12-4.2-12.11,0-5.43,1.73-11.51,4.63-16.27,.32-.53,.66-1.05,1.02-1.54,5.56-7.74,9.28-16.51,11.04-25.68,1.3,9.38,4.65,18.45,9.92,26.55,.14,.22,.28,.44,.42,.66,2.9,4.77,4.63,10.85,4.63,16.28,0,4.99-1.49,9.29-4.2,12.11-2.78,2.9-6.7,4.37-11.63,4.37Zm434.45-5.64c-5.41,0-9.07-3.25-11.19-5.98-2.95-3.8-4.64-9.05-4.64-14.4s1.69-10.61,4.64-14.4c.34-.44,.7-.86,1.06-1.25,5.35-5.78,9.49-12.36,12.38-19.38,1.81,7.53,4.99,14.83,9.59,21.53,2.53,3.69,3.99,8.62,3.99,13.5,0,5.36-1.69,10.61-4.64,14.4-2.12,2.73-5.78,5.97-11.19,5.97Zm-639.53-7.8c-5.37,0-9.27-1.16-11.91-3.54-2.6-2.35-3.92-5.97-3.92-10.76,0-5.57,1.58-11.73,4.34-16.89,16.66-31.19,5.34-69.98-25.49-87.3-3.03-1.7-6.18-3.59-9.65-5.79C23.66,50.02,11.61,46.74-.34,46.74c-18.31,0-36.38,7.72-49.12,22.4-6.69,7.71-14.84,16.7-24.54,24.87l-7.32,6.16c-25.61,21.52-34.04,28.81-40.99,38.85-.81,1.18-2.14,1.87-3.57,1.87-.61,0-1.09-.09-1.65-.33-.87-.36-1.71-1.11-2.15-1.93-.45-.81-.63-1.93-.47-2.85L-91.11-82.43c.38-2.1,2.13-3.57,4.27-3.57H737.66c2.35,0,4.34,1.99,4.34,4.34V68.51c0,1.17-.37,2.11-1.17,2.97-.21,.22-.44,.46-.66,.68-6.3,6.26-11.07,13.54-14.28,21.35-.98-4.06-2.36-8.07-4.15-11.96-10.64-23.11-33.74-37.82-59.03-37.82-.83,0-1.67,.02-2.51,.05-22.57,.87-37.41,9.41-56.19,20.22-4.88,2.81-9.78,5.38-14.55,7.63-27.72,13.07-42.55,43.73-35.58,73.58,.55,2.34,.82,4.64,.82,6.83,0,4.99-1.49,9.29-4.2,12.11-2.78,2.9-6.7,4.37-11.63,4.37s-8.84-1.47-11.63-4.37c-2.71-2.82-4.2-7.12-4.2-12.11,0-2.3,.32-4.81,.93-7.28,6.95-28.03-5.43-57.27-30.38-71.81-13.04-7.59-25.56-19.14-37.24-34.33-10.81-14.06-26.89-23.09-44.51-25-2.34-.25-4.69-.38-7.02-.38-15.22,0-30.05,5.35-41.82,15.24-7.67,6.45-15.74,14.53-24.67,24.69-5.86,6.68-12.34,12.07-19.26,16.03-15.54,8.88-26.72,23.77-30.92,41.17-.24,1.01-.46,2.02-.66,3.03-.18-1.32-.41-2.64-.67-3.96-3.59-17.72-14.39-33.14-29.81-42.57-7.75-4.74-14.7-10.83-20.65-18.12-11.31-13.83-27.81-22.4-45.63-23.69-1.57-.11-3.14-.17-4.7-.17-16.18,0-31.84,6.04-43.86,17.03-1.3,1.19-2.68,2.48-4.14,3.87-7.78,7.44-15.41,13.51-22.69,18.04-29.11,18.13-39.13,55.76-22.89,85.97,2.78,5.17,4.38,11.36,4.38,16.96,0,4.79-1.32,8.41-3.92,10.76-2.64,2.38-6.53,3.54-11.91,3.54Z"/></g><ellipse class="cls-2" cx="91.5" cy="166" rx="2.5" ry="7"/><ellipse class="cls-2" cx="295.5" cy="179" rx="2.5" ry="7"/><ellipse class="cls-2" cx="126.23" cy="45.2" rx="15.5" ry="3.13" transform="translate(5.01 102.5) rotate(-45)"/><ellipse class="cls-2" cx="548.57" cy="159.25" rx="5.44" ry="2.56" transform="translate(107.02 521.63) rotate(-55.56)"/><ellipse class="cls-2" cx="247.4" cy="47.32" rx="3.13" ry="15.5" transform="translate(33.93 181.02) rotate(-42.89)"/><ellipse class="cls-2" cx="484.4" cy="57.32" rx="3.13" ry="15.5" transform="translate(128.41 390.79) rotate(-49.88)"/></g></g></svg>